# Blender 5.1.2
# www.blender.org
mtllib 123123123123.mtl
o RenderMesh_18643356310
v -0.002356 0.482986 -0.053606
v -0.205373 0.482986 -0.053606
v -0.205372 0.482986 0.053605
v -0.002356 0.482986 0.053605
v 0.005236 -0.262862 0.045251
v -0.000252 -0.282812 0.054715
v 0.005237 -0.282918 0.045250
v -0.000253 -0.262968 0.054715
v -0.000253 -0.262968 -0.054709
v 0.005237 -0.282918 -0.045245
v -0.000252 -0.282812 -0.054709
v 0.005236 -0.262862 -0.045245
v -0.209962 -0.282918 0.045251
v -0.204472 -0.262968 0.054715
v -0.209961 -0.262862 0.045251
v -0.204473 -0.282812 0.054715
v -0.204473 -0.282812 -0.054709
v -0.209961 -0.262862 -0.045245
v -0.204472 -0.262968 -0.054709
v -0.209962 -0.282918 -0.045244
v -0.205373 0.482986 -0.053606
v -0.205373 -0.196863 -0.053606
v -0.205372 -0.196863 0.053605
v -0.205372 0.482986 0.053605
v -0.216782 -0.220795 -0.059631
v -0.216782 -0.220795 0.059631
v -0.216782 -0.267253 -0.059631
v -0.216782 -0.267253 0.059631
v -0.123801 -0.385824 0.045250
v -0.080924 -0.385824 0.045250
v -0.081037 -0.380669 0.054716
v -0.123688 -0.380669 0.054716
v -0.123688 -0.380669 -0.054710
v -0.081037 -0.380669 -0.054710
v -0.080924 -0.385824 -0.045244
v -0.123801 -0.385824 -0.045244
v 0.005236 -0.262862 -0.045245
v 0.005237 -0.282918 0.045250
v 0.005237 -0.282918 -0.045245
v 0.005236 -0.262862 0.045251
v -0.002356 -0.196863 -0.053606
v -0.002356 0.482986 -0.053606
v -0.002356 0.482986 0.053605
v -0.002356 -0.196863 0.053605
v 0.009053 -0.220795 -0.059631
v 0.009054 -0.220795 0.059630
v 0.009054 -0.267253 0.059630
v 0.009053 -0.267253 -0.059631
v -0.209962 -0.282918 -0.045244
v -0.209961 -0.262862 0.045251
v -0.209961 -0.262862 -0.045245
v -0.209962 -0.282918 0.045251
v -0.080924 -0.385824 -0.045244
v -0.080924 -0.385824 0.045250
v -0.123801 -0.385824 -0.045244
v -0.123801 -0.385824 0.045250
v -0.048293 -0.350216 0.054711
v -0.080924 -0.385824 0.045250
v -0.042807 -0.350323 0.045244
v -0.081037 -0.380669 0.054716
v -0.042807 -0.350323 -0.045238
v -0.080924 -0.385824 -0.045244
v -0.048293 -0.350216 -0.054705
v -0.081037 -0.380669 -0.054710
v -0.161918 -0.350323 0.045244
v -0.123801 -0.385824 0.045250
v -0.156432 -0.350216 0.054711
v -0.123688 -0.380669 0.054716
v -0.123801 -0.385824 -0.045244
v -0.156432 -0.350216 -0.054705
v -0.123688 -0.380669 -0.054710
v -0.161918 -0.350323 -0.045238
v -0.080924 -0.385824 -0.045244
v -0.042807 -0.350323 0.045244
v -0.080924 -0.385824 0.045250
v -0.042807 -0.350323 -0.045238
v -0.123801 -0.385824 -0.045244
v -0.161918 -0.350323 0.045244
v -0.161918 -0.350323 -0.045238
v -0.123801 -0.385824 0.045250
v -0.048425 -0.317786 0.054849
v -0.042846 -0.318114 0.045254
v -0.043292 -0.312907 0.054848
v -0.048293 -0.350216 0.054711
v -0.042807 -0.350323 0.045244
v -0.042930 -0.318142 0.045240
v -0.032409 -0.313026 0.054715
v -0.032292 -0.318179 0.045248
v -0.048293 -0.350216 -0.054705
v -0.048425 -0.317786 -0.054843
v -0.042846 -0.318114 -0.045248
v -0.042807 -0.350323 -0.045238
v -0.043292 -0.312907 -0.054842
v -0.032409 -0.313026 -0.054709
v -0.042930 -0.318142 -0.045234
v -0.032292 -0.318179 -0.045242
v -0.161880 -0.318114 0.045254
v -0.161918 -0.350323 0.045244
v -0.156432 -0.350216 0.054711
v -0.156300 -0.317786 0.054849
v -0.161433 -0.312907 0.054848
v -0.172316 -0.313026 0.054715
v -0.161795 -0.318142 0.045240
v -0.172434 -0.318179 0.045248
v -0.156432 -0.350216 -0.054705
v -0.161880 -0.318114 -0.045248
v -0.156300 -0.317786 -0.054843
v -0.161918 -0.350323 -0.045238
v -0.161433 -0.312907 -0.054842
v -0.172316 -0.313026 -0.054709
v -0.161795 -0.318142 -0.045234
v -0.172434 -0.318179 -0.045242
v -0.000252 -0.282812 0.054715
v -0.032292 -0.318179 0.045248
v 0.005237 -0.282918 0.045250
v -0.032409 -0.313026 0.054715
v 0.005237 -0.282918 -0.045245
v -0.032292 -0.318179 -0.045242
v -0.000252 -0.282812 -0.054709
v -0.032409 -0.313026 -0.054709
v -0.209962 -0.282918 0.045251
v -0.172434 -0.318179 0.045248
v -0.204473 -0.282812 0.054715
v -0.172316 -0.313026 0.054715
v -0.172434 -0.318179 -0.045242
v -0.204473 -0.282812 -0.054709
v -0.172316 -0.313026 -0.054709
v -0.209962 -0.282918 -0.045244
v -0.042846 -0.318114 -0.045248
v -0.042846 -0.318114 0.045254
v -0.042807 -0.350323 -0.045238
v -0.042807 -0.350323 0.045244
v -0.042930 -0.318142 -0.045234
v -0.042930 -0.318142 0.045240
v -0.032292 -0.318179 0.045248
v -0.032292 -0.318179 -0.045242
v -0.161918 -0.350323 -0.045238
v -0.161918 -0.350323 0.045244
v -0.161880 -0.318114 -0.045248
v -0.161880 -0.318114 0.045254
v -0.161795 -0.318142 0.045240
v -0.161795 -0.318142 -0.045234
v -0.172434 -0.318179 -0.045242
v -0.172434 -0.318179 0.045248
v -0.032292 -0.318179 -0.045242
v 0.005237 -0.282918 0.045250
v -0.032292 -0.318179 0.045248
v 0.005237 -0.282918 -0.045245
v -0.209962 -0.282918 -0.045244
v -0.172434 -0.318179 0.045248
v -0.209962 -0.282918 0.045251
v -0.172434 -0.318179 -0.045242
v -0.205372 0.482986 0.053605
v -0.205372 -0.196863 0.053605
v -0.002356 -0.196863 0.053605
v -0.002356 0.482986 0.053605
v 0.009054 -0.220795 0.059630
v -0.216782 -0.220795 0.059631
v -0.216782 -0.267253 0.059631
v 0.009054 -0.267253 0.059630
v -0.002356 0.482986 -0.053606
v -0.205373 -0.196863 -0.053606
v -0.205373 0.482986 -0.053606
v -0.002356 -0.196863 -0.053606
v 0.009053 -0.220795 -0.059631
v -0.216782 -0.220795 -0.059631
v 0.009053 -0.267253 -0.059631
v -0.216782 -0.267253 -0.059631
v -0.027661 -0.263321 -0.054844
v -0.000253 -0.262968 -0.054709
v -0.000252 -0.282812 -0.054709
v -0.027667 -0.282462 -0.054842
v -0.000252 -0.282812 0.054715
v -0.027661 -0.263321 0.054850
v -0.027667 -0.282462 0.054848
v -0.000253 -0.262968 0.054715
v -0.177064 -0.263321 -0.054844
v -0.204473 -0.282812 -0.054709
v -0.204472 -0.262968 -0.054709
v -0.177058 -0.282462 -0.054842
v -0.204473 -0.282812 0.054715
v -0.177058 -0.282462 0.054848
v -0.177064 -0.263321 0.054850
v -0.204472 -0.262968 0.054715
v -0.123318 -0.354917 -0.054837
v -0.081037 -0.380669 -0.054710
v -0.123688 -0.380669 -0.054710
v -0.081407 -0.354917 -0.054837
v -0.123688 -0.380669 0.054716
v -0.081037 -0.380669 0.054716
v -0.123318 -0.354917 0.054843
v -0.081407 -0.354917 0.054843
v -0.123688 -0.380669 -0.054710
v -0.129025 -0.349863 -0.054848
v -0.123318 -0.354917 -0.054837
v -0.156432 -0.350216 -0.054705
v -0.177058 -0.282462 -0.054842
v -0.172316 -0.313026 -0.054709
v -0.204473 -0.282812 -0.054709
v -0.171939 -0.287283 -0.054841
v -0.027667 -0.282462 0.054848
v -0.032409 -0.313026 0.054715
v -0.000252 -0.282812 0.054715
v -0.032786 -0.287283 0.054847
v -0.000252 -0.282812 -0.054709
v -0.032409 -0.313026 -0.054709
v -0.027667 -0.282462 -0.054842
v -0.032786 -0.287283 -0.054841
v -0.204473 -0.282812 0.054715
v -0.172316 -0.313026 0.054715
v -0.177058 -0.282462 0.054848
v -0.171939 -0.287283 0.054847
v -0.075700 -0.349863 0.054854
v -0.081037 -0.380669 0.054716
v -0.048293 -0.350216 0.054711
v -0.081407 -0.354917 0.054843
v -0.048293 -0.350216 -0.054705
v -0.081037 -0.380669 -0.054710
v -0.075700 -0.349863 -0.054848
v -0.081407 -0.354917 -0.054837
v -0.156432 -0.350216 0.054711
v -0.123688 -0.380669 0.054716
v -0.129025 -0.349863 0.054854
v -0.123318 -0.354917 0.054843
v -0.048425 -0.317786 -0.054843
v -0.075700 -0.349863 -0.054848
v -0.075841 -0.317435 -0.054706
v -0.048293 -0.350216 -0.054705
v -0.043670 -0.287165 -0.054709
v -0.043292 -0.312907 -0.054842
v -0.032786 -0.287283 -0.054841
v -0.032409 -0.313026 -0.054709
v -0.075700 -0.349863 0.054854
v -0.048293 -0.350216 0.054711
v -0.048425 -0.317786 0.054849
v -0.075841 -0.317435 0.054712
v -0.043670 -0.287165 0.054715
v -0.043292 -0.312907 0.054848
v -0.032786 -0.287283 0.054847
v -0.032409 -0.313026 0.054715
v -0.156300 -0.317786 -0.054843
v -0.128885 -0.317435 -0.054706
v -0.129025 -0.349863 -0.054848
v -0.156432 -0.350216 -0.054705
v -0.161055 -0.287165 -0.054709
v -0.161433 -0.312907 -0.054842
v -0.171939 -0.287283 -0.054841
v -0.172316 -0.313026 -0.054709
v -0.129025 -0.349863 0.054854
v -0.156300 -0.317786 0.054849
v -0.156432 -0.350216 0.054711
v -0.128884 -0.317435 0.054712
v -0.161055 -0.287165 0.054715
v -0.161433 -0.312907 0.054848
v -0.171939 -0.287283 0.054847
v -0.172316 -0.313026 0.054715
v -0.033244 -0.282132 -0.045242
v -0.033144 -0.282048 0.045244
v -0.033244 -0.282132 0.045248
v -0.033144 -0.282048 -0.045238
v -0.171582 -0.282048 -0.045238
v -0.171481 -0.282132 0.045248
v -0.171582 -0.282048 0.045244
v -0.171481 -0.282132 -0.045242
v -0.161055 -0.287165 0.054715
v -0.128884 -0.317435 0.054712
v -0.160939 -0.282011 0.045247
v -0.171582 -0.282048 0.045244
v -0.171939 -0.287283 0.054847
v -0.123399 -0.317327 0.045246
v -0.123454 -0.349500 0.045245
v -0.129025 -0.349863 0.054854
v -0.128885 -0.317435 -0.054706
v -0.123454 -0.349500 -0.045239
v -0.129025 -0.349863 -0.054848
v -0.123399 -0.317327 -0.045240
v -0.160939 -0.282011 -0.045241
v -0.161055 -0.287165 -0.054709
v -0.171582 -0.282048 -0.045238
v -0.171939 -0.287283 -0.054841
v -0.081271 -0.349500 0.045245
v -0.075841 -0.317435 0.054712
v -0.081326 -0.317327 0.045246
v -0.075700 -0.349863 0.054854
v -0.043786 -0.282011 0.045247
v -0.043670 -0.287165 0.054715
v -0.033144 -0.282048 0.045244
v -0.032786 -0.287283 0.054847
v -0.075841 -0.317435 -0.054706
v -0.075700 -0.349863 -0.054848
v -0.081271 -0.349500 -0.045239
v -0.081326 -0.317327 -0.045240
v -0.043786 -0.282011 -0.045241
v -0.043670 -0.287165 -0.054709
v -0.033144 -0.282048 -0.045238
v -0.032786 -0.287283 -0.054841
v 0.009053 -0.267253 -0.059631
v -0.216782 -0.267253 0.059631
v -0.216782 -0.267253 -0.059631
v 0.009054 -0.267253 0.059630
v -0.171582 -0.282048 -0.045238
v -0.171939 -0.287283 -0.054841
v -0.177058 -0.282462 -0.054842
v -0.171939 -0.287283 0.054847
v -0.171582 -0.282048 0.045244
v -0.177058 -0.282462 0.054848
v -0.033144 -0.282048 0.045244
v -0.032786 -0.287283 0.054847
v -0.027667 -0.282462 0.054848
v -0.032786 -0.287283 -0.054841
v -0.033144 -0.282048 -0.045238
v -0.027667 -0.282462 -0.054842
v -0.081730 -0.349673 0.045246
v -0.122995 -0.349673 0.045246
v -0.123318 -0.354917 0.054843
v -0.081407 -0.354917 0.054843
v -0.123318 -0.354917 -0.054837
v -0.081730 -0.349673 -0.045240
v -0.081407 -0.354917 -0.054837
v -0.122995 -0.349673 -0.045240
v -0.033230 -0.263677 0.045246
v -0.033244 -0.282132 0.045248
v -0.027667 -0.282462 0.054848
v -0.027661 -0.263321 0.054850
v -0.027667 -0.282462 -0.054842
v -0.033230 -0.263677 -0.045240
v -0.027661 -0.263321 -0.054844
v -0.033244 -0.282132 -0.045242
v -0.171495 -0.263677 0.045246
v -0.177058 -0.282462 0.054848
v -0.171481 -0.282132 0.045248
v -0.177064 -0.263321 0.054850
v -0.177058 -0.282462 -0.054842
v -0.177064 -0.263321 -0.054844
v -0.171495 -0.263677 -0.045240
v -0.171481 -0.282132 -0.045242
v -0.123454 -0.349500 -0.045239
v -0.123318 -0.354917 -0.054837
v -0.129025 -0.349863 -0.054848
v -0.122995 -0.349673 -0.045240
v -0.081407 -0.354917 0.054843
v -0.081271 -0.349500 0.045245
v -0.081730 -0.349673 0.045246
v -0.075700 -0.349863 0.054854
v -0.075700 -0.349863 -0.054848
v -0.081407 -0.354917 -0.054837
v -0.081271 -0.349500 -0.045239
v -0.081730 -0.349673 -0.045240
v -0.123318 -0.354917 0.054843
v -0.122995 -0.349673 0.045246
v -0.123454 -0.349500 0.045245
v -0.129025 -0.349863 0.054854
v -0.123399 -0.317327 -0.045240
v -0.123399 -0.317327 0.045246
v -0.123454 -0.349500 -0.045239
v -0.123454 -0.349500 0.045245
v -0.160939 -0.282011 -0.045241
v -0.160939 -0.282011 0.045247
v -0.171582 -0.282048 -0.045238
v -0.171582 -0.282048 0.045244
v -0.081271 -0.349500 -0.045239
v -0.081271 -0.349500 0.045245
v -0.081326 -0.317327 -0.045240
v -0.081326 -0.317327 0.045246
v -0.043786 -0.282011 -0.045241
v -0.043786 -0.282011 0.045247
v -0.033144 -0.282048 0.045244
v -0.033144 -0.282048 -0.045238
v -0.122995 -0.349673 -0.045240
v -0.122995 -0.349673 0.045246
v -0.081730 -0.349673 -0.045240
v -0.081730 -0.349673 0.045246
v -0.081730 -0.349673 -0.045240
v -0.081271 -0.349500 0.045245
v -0.081271 -0.349500 -0.045239
v -0.081730 -0.349673 0.045246
v -0.122995 -0.349673 0.045246
v -0.122995 -0.349673 -0.045240
v -0.123454 -0.349500 -0.045239
v -0.123454 -0.349500 0.045245
v -0.171495 -0.263677 -0.045240
v -0.171495 -0.263677 0.045246
v -0.171481 -0.282132 -0.045242
v -0.171481 -0.282132 0.045248
v -0.033244 -0.282132 -0.045242
v -0.033244 -0.282132 0.045248
v -0.033230 -0.263677 -0.045240
v -0.033230 -0.263677 0.045246
vn -0.0000 1.0000 -0.0000
vn 0.8650 -0.0000 0.5017
vn 0.8651 -0.0000 0.5017
vn 0.8650 -0.0000 -0.5017
vn -0.8650 -0.0000 0.5017
vn -0.8651 -0.0000 -0.5017
vn -0.8650 -0.0000 -0.5017
vn -1.0000 -0.0000 -0.0000
vn -0.9731 0.2305 -0.0000
vn -0.9752 0.2212 -0.0000
vn -0.0000 -0.8782 0.4783
vn -0.0000 -0.8782 -0.4783
vn 1.0000 -0.0000 -0.0000
vn 0.9731 0.2305 -0.0000
vn 0.9752 0.2212 -0.0000
vn -1.0000 0.0001 -0.0000
vn -0.0000 -1.0000 -0.0000
vn 0.6316 -0.6785 0.3751
vn 0.6315 -0.6785 0.3753
vn 0.6315 -0.6785 0.3754
vn 0.6315 -0.6785 -0.3752
vn 0.6315 -0.6785 -0.3753
vn 0.6316 -0.6785 -0.3751
vn 0.6315 -0.6785 -0.3754
vn -0.6315 -0.6785 0.3753
vn -0.6315 -0.6785 0.3754
vn -0.6315 -0.6785 -0.3754
vn -0.6315 -0.6785 -0.3753
vn 0.6815 -0.7318 -0.0000
vn -0.6815 -0.7318 -0.0000
vn 0.8102 -0.3365 0.4800
vn 0.8307 -0.2647 0.4898
vn 0.2456 -0.8466 0.4721
vn 0.8648 0.0011 0.5020
vn 0.8648 0.0011 0.5021
vn 0.2998 -0.8321 0.4666
vn -0.0036 -0.8782 0.4782
vn -0.0034 -0.8783 0.4780
vn 0.8648 0.0011 -0.5020
vn 0.8102 -0.3365 -0.4800
vn 0.8308 -0.2647 -0.4896
vn 0.8649 0.0011 -0.5019
vn 0.2456 -0.8466 -0.4721
vn -0.0036 -0.8782 -0.4782
vn 0.2998 -0.8321 -0.4666
vn -0.0034 -0.8783 -0.4780
vn -0.8308 -0.2647 0.4897
vn -0.8648 0.0011 0.5022
vn -0.8649 0.0011 0.5019
vn -0.8102 -0.3365 0.4800
vn -0.2456 -0.8466 0.4721
vn 0.0036 -0.8782 0.4782
vn -0.2998 -0.8321 0.4666
vn 0.0036 -0.8782 0.4783
vn -0.8651 0.0010 -0.5017
vn -0.8307 -0.2647 -0.4898
vn -0.8102 -0.3365 -0.4800
vn -0.8649 0.0011 -0.5019
vn -0.2456 -0.8466 -0.4721
vn 0.0036 -0.8782 -0.4782
vn -0.2998 -0.8321 -0.4666
vn 0.0034 -0.8783 -0.4780
vn 0.6346 -0.6754 0.3756
vn 0.6346 -0.6754 0.3755
vn 0.6346 -0.6754 -0.3756
vn 0.6346 -0.6754 -0.3755
vn -0.6346 -0.6754 0.3756
vn -0.6346 -0.6754 -0.3756
vn 0.4360 0.8999 -0.0000
vn 0.4359 0.9000 -0.0000
vn 1.0000 0.0012 -0.0000
vn -0.9836 -0.1805 -0.0000
vn -0.0035 -1.0000 -0.0000
vn -1.0000 0.0012 -0.0000
vn -0.4357 0.9001 -0.0000
vn 0.9835 -0.1812 -0.0000
vn 0.9835 -0.1811 -0.0000
vn 0.0035 -1.0000 -0.0000
vn 0.6847 -0.7288 -0.0000
vn -0.6848 -0.7288 -0.0000
vn -0.0000 -0.0000 1.0000
vn -0.0000 0.1362 0.9907
vn -0.0000 0.1105 0.9939
vn -0.0000 -0.0000 -1.0000
vn -0.0000 0.1362 -0.9907
vn -0.0000 0.1360 -0.9907
vn -0.0000 0.1105 -0.9939
vn 0.0049 -0.0001 -1.0000
vn 0.0049 -0.0000 -1.0000
vn 0.0049 -0.0000 1.0000
vn 0.0049 -0.0001 1.0000
vn 0.0048 -0.0001 1.0000
vn -0.0049 -0.0001 -1.0000
vn -0.0049 -0.0000 -1.0000
vn -0.0049 -0.0000 1.0000
vn -0.0048 -0.0001 1.0000
vn -0.0049 -0.0001 1.0000
vn -0.0048 -0.0003 1.0000
vn -0.0000 -0.0049 -1.0000
vn -0.0000 -0.0049 1.0000
vn -0.0045 -0.0053 -1.0000
vn -0.0044 -0.0052 -1.0000
vn -0.0048 -0.0053 -1.0000
vn -0.0051 -0.0054 -1.0000
vn -0.0047 -0.0051 -1.0000
vn -0.0048 -0.0051 -1.0000
vn -0.0046 -0.0051 -1.0000
vn 0.0047 -0.0051 1.0000
vn 0.0048 -0.0051 1.0000
vn 0.0046 -0.0051 1.0000
vn 0.0048 -0.0051 -1.0000
vn 0.0047 -0.0051 -1.0000
vn 0.0046 -0.0051 -1.0000
vn -0.0048 -0.0051 1.0000
vn -0.0047 -0.0051 1.0000
vn -0.0046 -0.0051 1.0000
vn 0.0044 -0.0052 1.0000
vn 0.0045 -0.0053 1.0000
vn 0.0051 -0.0054 1.0000
vn 0.0047 -0.0053 1.0000
vn 0.0051 -0.0054 -1.0000
vn 0.0045 -0.0053 -1.0000
vn 0.0044 -0.0052 -1.0000
vn 0.0048 -0.0053 -1.0000
vn -0.0051 -0.0054 1.0000
vn -0.0045 -0.0053 1.0000
vn -0.0044 -0.0052 1.0000
vn -0.0047 -0.0053 1.0000
vn -0.0031 0.0033 -1.0000
vn 0.0001 0.0001 -1.0000
vn -0.0018 0.0020 -1.0000
vn -0.0014 0.0015 -1.0000
vn -0.0030 0.0031 -1.0000
vn 0.0001 0.0001 1.0000
vn -0.0031 0.0033 1.0000
vn -0.0018 0.0020 1.0000
vn -0.0014 0.0015 1.0000
vn -0.0030 0.0031 1.0000
vn 0.0031 0.0033 -1.0000
vn 0.0018 0.0020 -1.0000
vn -0.0001 0.0001 -1.0000
vn 0.0014 0.0015 -1.0000
vn 0.0030 0.0031 -1.0000
vn -0.0001 0.0001 1.0000
vn 0.0031 0.0033 1.0000
vn 0.0018 0.0020 1.0000
vn 0.0014 0.0015 1.0000
vn 0.0030 0.0031 1.0000
vn 0.6418 -0.7669 -0.0000
vn 0.6419 -0.7668 -0.0000
vn 0.6418 -0.7668 -0.0000
vn -0.6419 -0.7668 -0.0000
vn 0.4138 0.7973 0.4394
vn 0.7731 0.4441 0.4530
vn 0.2390 0.8512 0.4672
vn -0.0035 0.8782 0.4783
vn -0.0034 0.8782 0.4782
vn 0.8140 0.3337 0.4755
vn 0.8652 -0.0016 0.5015
vn 0.8651 -0.0016 0.5015
vn 0.7731 0.4441 -0.4530
vn 0.8652 -0.0015 -0.5015
vn 0.8651 -0.0015 -0.5015
vn 0.8140 0.3337 -0.4755
vn 0.2390 0.8515 -0.4667
vn 0.4138 0.7973 -0.4394
vn -0.0035 0.8782 -0.4783
vn -0.0037 0.8781 -0.4785
vn -0.8652 -0.0016 0.5015
vn -0.7731 0.4441 0.4530
vn -0.8140 0.3337 0.4755
vn -0.8651 -0.0016 0.5015
vn -0.2390 0.8515 0.4667
vn -0.4138 0.7973 0.4394
vn 0.0035 0.8782 0.4783
vn 0.0037 0.8781 0.4785
vn -0.7731 0.4441 -0.4530
vn -0.8651 -0.0016 -0.5015
vn -0.8652 -0.0016 -0.5015
vn -0.8140 0.3337 -0.4755
vn -0.2390 0.8512 -0.4672
vn -0.4138 0.7973 -0.4394
vn 0.0035 0.8782 -0.4783
vn 0.0037 0.8781 -0.4785
vn 0.6322 0.6698 -0.3895
vn 0.6322 0.6698 0.3895
vn -0.6323 0.6698 0.3895
vn -0.6323 0.6697 -0.3895
vn -0.0000 0.8775 0.4795
vn -0.0000 0.8775 -0.4795
vn -0.8649 0.0004 0.5019
vn -0.8649 0.0003 0.5020
vn -0.8648 0.0005 0.5021
vn -0.8648 0.0005 0.5022
vn -0.8648 0.0005 -0.5021
vn -0.8649 0.0004 -0.5019
vn -0.8649 0.0004 -0.5020
vn -0.8649 0.0003 -0.5020
vn 0.8649 0.0004 0.5019
vn 0.8648 0.0005 0.5021
vn 0.8649 0.0003 0.5019
vn 0.8648 0.0004 0.5022
vn 0.8648 0.0005 -0.5021
vn 0.8649 0.0004 -0.5020
vn 0.8649 0.0004 -0.5019
vn 0.5962 0.7027 -0.3882
vn -0.5962 0.7027 0.3882
vn -0.5962 0.7027 -0.3882
vn 0.5962 0.7027 0.3882
vn 0.9046 0.4262 -0.0000
vn 1.0000 -0.0017 -0.0000
vn 0.3313 0.9435 -0.0000
vn -0.0035 1.0000 -0.0000
vn -1.0000 -0.0017 -0.0000
vn -0.9046 0.4262 -0.0000
vn -0.3313 0.9435 -0.0000
vn 0.0035 1.0000 -0.0000
vn -0.3527 0.9357 -0.0000
vn -0.3522 0.9359 -0.0000
vn 0.3527 0.9357 -0.0000
vn 1.0000 0.0008 -0.0000
vn -1.0000 0.0008 -0.0000
vt 0.000000 0.000000
s 1
f 1/1/1 2/1/1 3/1/1
f 1/1/1 3/1/1 4/1/1
f 5/1/2 6/1/3 7/1/3
f 6/1/3 5/1/2 8/1/2
f 9/1/4 10/1/4 11/1/4
f 10/1/4 9/1/4 12/1/4
f 13/1/5 14/1/5 15/1/5
f 14/1/5 13/1/5 16/1/5
f 17/1/6 18/1/7 19/1/7
f 18/1/7 17/1/6 20/1/6
f 21/1/8 22/1/9 23/1/9
f 21/1/8 23/1/9 24/1/8
f 25/1/10 23/1/9 22/1/9
f 23/1/9 25/1/10 26/1/10
f 27/1/8 26/1/10 25/1/10
f 26/1/10 27/1/8 28/1/8
f 29/1/11 30/1/11 31/1/11
f 29/1/11 31/1/11 32/1/11
f 33/1/12 34/1/12 35/1/12
f 33/1/12 35/1/12 36/1/12
f 37/1/13 38/1/13 39/1/13
f 38/1/13 37/1/13 40/1/13
f 41/1/14 42/1/13 43/1/13
f 41/1/14 43/1/13 44/1/14
f 44/1/14 45/1/15 41/1/14
f 45/1/15 44/1/14 46/1/15
f 45/1/15 46/1/15 47/1/13
f 47/1/13 48/1/13 45/1/15
f 49/1/16 50/1/16 51/1/16
f 50/1/16 49/1/16 52/1/16
f 53/1/17 54/1/17 55/1/17
f 55/1/17 54/1/17 56/1/17
f 57/1/18 58/1/19 59/1/19
f 58/1/19 57/1/18 60/1/20
f 61/1/21 62/1/22 63/1/23
f 64/1/24 63/1/23 62/1/22
f 65/1/25 66/1/26 67/1/25
f 67/1/25 66/1/26 68/1/26
f 69/1/27 70/1/28 71/1/27
f 70/1/28 69/1/27 72/1/28
f 73/1/29 74/1/29 75/1/29
f 74/1/29 73/1/29 76/1/29
f 77/1/30 78/1/30 79/1/30
f 78/1/30 77/1/30 80/1/30
f 81/1/31 82/1/32 83/1/33
f 84/1/34 82/1/32 81/1/31
f 82/1/32 84/1/34 85/1/35
f 86/1/36 87/1/37 83/1/33
f 88/1/38 87/1/37 86/1/36
f 89/1/39 90/1/40 91/1/41
f 89/1/39 91/1/41 92/1/42
f 91/1/41 90/1/40 93/1/43
f 94/1/44 95/1/45 93/1/43
f 95/1/45 94/1/44 96/1/46
f 97/1/47 98/1/48 99/1/49
f 97/1/47 99/1/49 100/1/50
f 97/1/47 100/1/50 101/1/51
f 102/1/52 103/1/53 101/1/51
f 103/1/53 102/1/52 104/1/54
f 105/1/55 106/1/56 107/1/57
f 106/1/56 105/1/55 108/1/58
f 107/1/57 106/1/56 109/1/59
f 110/1/60 109/1/59 111/1/61
f 110/1/60 111/1/61 112/1/62
f 113/1/63 114/1/64 115/1/63
f 114/1/64 113/1/63 116/1/64
f 117/1/65 118/1/66 119/1/65
f 120/1/66 119/1/65 118/1/66
f 121/1/67 122/1/67 123/1/67
f 123/1/67 122/1/67 124/1/67
f 125/1/68 126/1/68 127/1/68
f 126/1/68 125/1/68 128/1/68
f 129/1/69 130/1/70 131/1/71
f 131/1/71 130/1/70 132/1/71
f 130/1/70 129/1/69 133/1/72
f 133/1/72 134/1/72 130/1/70
f 133/1/72 135/1/73 134/1/72
f 136/1/73 135/1/73 133/1/72
f 137/1/74 138/1/74 139/1/75
f 139/1/75 138/1/74 140/1/75
f 141/1/76 139/1/75 140/1/75
f 139/1/75 141/1/76 142/1/77
f 142/1/77 141/1/76 143/1/78
f 143/1/78 141/1/76 144/1/78
f 145/1/79 146/1/79 147/1/79
f 146/1/79 145/1/79 148/1/79
f 149/1/80 150/1/80 151/1/80
f 150/1/80 149/1/80 152/1/80
f 153/1/81 154/1/82 155/1/82
f 155/1/82 156/1/81 153/1/81
f 154/1/82 157/1/83 155/1/82
f 157/1/83 154/1/82 158/1/83
f 159/1/81 157/1/83 158/1/83
f 159/1/81 160/1/81 157/1/83
f 161/1/84 162/1/85 163/1/84
f 162/1/85 161/1/84 164/1/86
f 162/1/85 164/1/86 165/1/87
f 162/1/85 165/1/87 166/1/87
f 167/1/84 166/1/87 165/1/87
f 166/1/87 167/1/84 168/1/84
f 169/1/88 170/1/89 171/1/89
f 169/1/88 171/1/89 172/1/88
f 173/1/90 174/1/91 175/1/92
f 174/1/91 173/1/90 176/1/90
f 177/1/93 178/1/94 179/1/94
f 178/1/94 177/1/93 180/1/93
f 181/1/95 182/1/96 183/1/97
f 181/1/95 183/1/97 184/1/98
f 185/1/99 186/1/99 187/1/99
f 186/1/99 185/1/99 188/1/99
f 189/1/100 190/1/100 191/1/100
f 190/1/100 192/1/100 191/1/100
f 193/1/101 194/1/102 195/1/103
f 194/1/102 193/1/101 196/1/104
f 197/1/105 198/1/105 199/1/106
f 198/1/105 197/1/105 200/1/107
f 201/1/108 202/1/108 203/1/109
f 202/1/108 201/1/108 204/1/110
f 205/1/111 206/1/112 207/1/112
f 207/1/112 206/1/112 208/1/113
f 209/1/114 210/1/115 211/1/115
f 211/1/115 210/1/115 212/1/116
f 213/1/117 214/1/118 215/1/119
f 214/1/118 213/1/117 216/1/120
f 217/1/121 218/1/122 219/1/123
f 218/1/122 220/1/124 219/1/123
f 221/1/125 222/1/126 223/1/127
f 223/1/127 222/1/126 224/1/128
f 225/1/129 226/1/130 227/1/131
f 226/1/130 225/1/129 228/1/130
f 229/1/132 225/1/129 227/1/131
f 225/1/129 229/1/132 230/1/133
f 231/1/84 230/1/133 229/1/132
f 230/1/133 231/1/84 232/1/84
f 233/1/134 234/1/134 235/1/135
f 233/1/134 235/1/135 236/1/136
f 235/1/135 237/1/137 236/1/136
f 237/1/137 235/1/135 238/1/138
f 238/1/138 239/1/81 237/1/137
f 239/1/81 238/1/138 240/1/81
f 241/1/139 242/1/140 243/1/141
f 241/1/139 243/1/141 244/1/141
f 241/1/139 245/1/142 242/1/140
f 245/1/142 241/1/139 246/1/143
f 246/1/143 247/1/84 245/1/142
f 247/1/84 246/1/143 248/1/84
f 249/1/144 250/1/145 251/1/144
f 250/1/145 249/1/144 252/1/146
f 252/1/146 253/1/147 250/1/145
f 250/1/145 253/1/147 254/1/148
f 254/1/148 253/1/147 255/1/81
f 255/1/81 256/1/81 254/1/148
f 257/1/149 258/1/149 259/1/150
f 258/1/149 257/1/149 260/1/151
f 261/1/152 262/1/152 263/1/152
f 262/1/152 261/1/152 264/1/152
f 265/1/153 266/1/154 267/1/155
f 268/1/156 265/1/153 267/1/155
f 265/1/153 268/1/156 269/1/157
f 270/1/158 267/1/155 266/1/154
f 271/1/159 270/1/158 266/1/154
f 271/1/159 266/1/154 272/1/160
f 273/1/161 274/1/162 275/1/163
f 274/1/162 273/1/161 276/1/164
f 273/1/161 277/1/165 276/1/164
f 277/1/165 273/1/161 278/1/166
f 278/1/166 279/1/167 277/1/165
f 278/1/166 280/1/168 279/1/167
f 281/1/169 282/1/170 283/1/171
f 282/1/170 281/1/169 284/1/172
f 282/1/170 285/1/173 283/1/171
f 285/1/173 282/1/170 286/1/174
f 285/1/173 286/1/174 287/1/175
f 287/1/175 286/1/174 288/1/176
f 289/1/177 290/1/178 291/1/179
f 289/1/177 291/1/179 292/1/180
f 293/1/181 289/1/177 292/1/180
f 289/1/177 293/1/181 294/1/182
f 295/1/183 294/1/182 293/1/181
f 294/1/182 295/1/183 296/1/184
f 297/1/17 298/1/17 299/1/17
f 298/1/17 297/1/17 300/1/17
f 301/1/185 302/1/185 303/1/185
f 304/1/186 305/1/186 306/1/186
f 307/1/187 308/1/187 309/1/187
f 310/1/188 311/1/188 312/1/188
f 313/1/189 314/1/189 315/1/189
f 313/1/189 315/1/189 316/1/189
f 317/1/190 318/1/190 319/1/190
f 318/1/190 317/1/190 320/1/190
f 321/1/191 322/1/192 323/1/193
f 321/1/191 323/1/193 324/1/194
f 325/1/195 326/1/196 327/1/197
f 326/1/196 325/1/195 328/1/198
f 329/1/199 330/1/200 331/1/201
f 330/1/200 329/1/199 332/1/202
f 333/1/203 334/1/204 335/1/205
f 333/1/203 335/1/205 336/1/204
f 337/1/206 338/1/206 339/1/206
f 338/1/206 337/1/206 340/1/206
f 341/1/207 342/1/207 343/1/207
f 342/1/207 341/1/207 344/1/207
f 345/1/208 346/1/208 347/1/208
f 347/1/208 346/1/208 348/1/208
f 349/1/209 350/1/209 351/1/209
f 351/1/209 352/1/209 349/1/209
f 353/1/210 354/1/210 355/1/211
f 355/1/211 354/1/210 356/1/211
f 354/1/210 353/1/210 357/1/212
f 357/1/212 358/1/212 354/1/210
f 359/1/213 358/1/212 357/1/212
f 358/1/212 359/1/213 360/1/213
f 361/1/214 362/1/214 363/1/215
f 363/1/215 362/1/214 364/1/215
f 364/1/215 365/1/216 363/1/215
f 365/1/216 364/1/215 366/1/216
f 367/1/217 365/1/216 366/1/216
f 365/1/216 367/1/217 368/1/217
f 369/1/1 370/1/1 371/1/1
f 371/1/1 370/1/1 372/1/1
f 373/1/218 374/1/218 375/1/218
f 374/1/218 373/1/218 376/1/219
f 377/1/220 378/1/220 379/1/220
f 379/1/220 380/1/220 377/1/220
f 381/1/221 382/1/221 383/1/221
f 383/1/221 382/1/221 384/1/221
f 385/1/222 386/1/222 387/1/222
f 387/1/222 386/1/222 388/1/222
