# Blender 5.1.2
# www.blender.org
mtllib BarrelPT1.mtl
o RenderMesh_122411806441327
v -0.096213 0.017669 0.004734
v -0.096213 -0.015841 0.009146
v -0.096213 -0.004734 0.017669
v -0.096213 0.009147 0.015842
v -0.096213 -0.017668 -0.004734
v -0.096213 -0.009146 -0.015841
v -0.096213 0.015842 -0.009146
v -0.096213 0.004735 -0.017669
v 0.066852 -0.004325 0.016141
v 0.058871 0.008126 0.014075
v 0.058871 -0.004206 0.015698
v 0.058871 -0.014074 0.008126
v 0.066852 0.008356 0.014471
v 0.066852 0.016141 0.004325
v 0.058871 0.015699 0.004206
v 0.058871 0.014075 -0.008126
v 0.074832 0.007719 0.013369
v 0.066852 0.014472 -0.008355
v 0.066852 -0.014471 0.008355
v 0.066852 0.004325 -0.016140
v 0.058871 0.004207 -0.015698
v 0.074832 0.013369 -0.007718
v 0.058871 -0.008126 -0.014075
v 0.074832 0.014911 0.003995
v 0.066852 -0.008355 -0.014471
v 0.066852 -0.016140 -0.004325
v 0.058871 -0.015698 -0.004206
v 0.074832 -0.007718 -0.013369
v 0.074832 -0.013368 0.007719
v 0.074832 -0.014911 -0.003995
v 0.074832 0.003996 -0.014911
v 0.083565 -0.006209 -0.010755
v 0.074832 -0.003995 0.014911
v 0.083565 -0.010755 0.006210
v 0.083565 -0.011997 -0.003214
v 0.083565 0.006210 0.010756
v 0.083565 -0.003214 0.011996
v 0.091545 -0.006791 0.003921
v 0.091545 -0.007574 -0.002029
v 0.091545 -0.002029 0.007575
v 0.091545 -0.003920 -0.006791
v 0.096213 0.000000 0.000000
v 0.091545 0.003921 0.006791
v 0.091545 0.002030 -0.007575
v 0.083565 0.003215 -0.011996
v 0.083565 0.011996 0.003215
v 0.091545 0.007575 0.002030
v 0.091545 0.006792 -0.003921
v 0.083565 0.010756 -0.006210
v 0.058871 0.008126 0.014075
v 0.051042 -0.004734 0.017669
v 0.058871 -0.004206 0.015698
v 0.058871 -0.014074 0.008126
v 0.051042 0.009147 0.015842
v 0.051042 -0.015841 0.009146
v 0.051042 0.017669 0.004734
v 0.051042 -0.017668 -0.004734
v 0.058871 0.015699 0.004206
v 0.058871 -0.015698 -0.004206
v 0.058871 0.014075 -0.008126
v 0.058871 -0.008126 -0.014075
v 0.051042 0.015842 -0.009146
v 0.051042 -0.009146 -0.015841
v 0.051042 0.004735 -0.017669
v 0.058871 0.004207 -0.015698
v 0.051042 -0.017668 -0.004734
v -0.096213 -0.015841 0.009146
v -0.096213 -0.017668 -0.004734
v 0.051042 -0.015841 0.009146
v 0.051042 -0.009146 -0.015841
v -0.096213 -0.004734 0.017669
v -0.096213 -0.009146 -0.015841
v 0.051042 -0.004734 0.017669
v 0.051042 0.004735 -0.017669
v -0.096213 0.009147 0.015842
v -0.096213 0.004735 -0.017669
v 0.051042 0.009147 0.015842
v 0.051042 0.015842 -0.009146
v -0.096213 0.017669 0.004734
v -0.096213 0.015842 -0.009146
v 0.051042 0.017669 0.004734
vn -1.0000 0.0002 0.0002
vn -1.0000 0.0003 0.0003
vn 0.0491 -0.2585 0.9648
vn -0.0573 0.4992 0.8646
vn -0.0574 -0.2584 0.9643
vn -0.0572 -0.8644 0.4996
vn 0.0494 0.4996 0.8649
vn 0.0492 0.9648 0.2585
vn -0.0573 0.9643 0.2584
vn -0.0571 0.8648 -0.4988
vn 0.2378 0.4857 0.8412
vn 0.0494 0.8652 -0.4989
vn 0.0491 -0.8650 0.4994
vn 0.0491 0.2585 -0.9648
vn -0.0572 0.2584 -0.9643
vn 0.2380 0.8413 -0.4854
vn -0.0572 -0.4992 -0.8646
vn 0.2381 0.9381 0.2513
vn 0.0493 -0.4990 -0.8652
vn 0.0491 -0.9648 -0.2585
vn -0.0573 -0.9644 -0.2583
vn 0.2381 -0.4856 -0.8411
vn 0.2381 -0.8411 0.4856
vn 0.2381 -0.9382 -0.2513
vn 0.2381 0.2514 -0.9381
vn 0.4058 -0.4566 -0.7917
vn 0.2378 -0.2517 0.9381
vn 0.4058 -0.7918 0.4565
vn 0.4059 -0.8827 -0.2370
vn 0.4059 0.4566 0.7917
vn 0.4059 -0.2370 0.8827
vn 0.6717 -0.6415 0.3706
vn 0.6715 -0.7157 -0.1918
vn 0.6717 -0.1922 0.7154
vn 0.6716 -0.3708 -0.6414
vn 1.0000 0.0002 0.0002
vn 0.6717 0.3707 0.6414
vn 0.6715 0.1917 -0.7158
vn 0.4055 0.2366 -0.8830
vn 0.4059 0.8827 0.2368
vn 0.6717 0.7155 0.1919
vn 0.6717 0.6414 -0.3708
vn 0.4055 0.7916 -0.4570
vn 0.2525 0.4840 0.8379
vn 0.2526 -0.2508 0.9345
vn 0.2525 -0.2507 0.9346
vn 0.2525 -0.8379 0.4839
vn 0.2522 0.4839 0.8380
vn 0.2522 -0.8380 0.4838
vn 0.2527 0.9345 0.2505
vn 0.2525 -0.9346 -0.2507
vn 0.2524 0.9346 0.2505
vn 0.2524 -0.9346 -0.2506
vn 0.2526 0.8377 -0.4843
vn 0.2524 -0.4840 -0.8379
vn 0.2525 0.8377 -0.4842
vn 0.2525 -0.4842 -0.8377
vn 0.2525 0.2505 -0.9346
vn 0.2522 0.2505 -0.9347
vn 0.0004 -0.9660 -0.2586
vn 0.0004 -0.8662 0.4997
vn 0.0003 -0.9660 -0.2587
vn 0.0005 -0.8662 0.4996
vn 0.0004 -0.4998 -0.8661
vn 0.0004 -0.2587 0.9660
vn -0.0000 -0.2588 0.9659
vn 0.0004 0.2591 -0.9658
vn 0.0004 0.4998 0.8662
vn 0.0005 0.8661 -0.4999
vn 0.0004 0.9658 0.2592
vn 0.0003 0.8661 -0.4999
vn 0.0005 0.9658 0.2593
vt 0.000000 0.000000
s 1
f 1/1/1 2/1/2 3/1/2
f 1/1/1 3/1/2 4/1/2
f 1/1/1 5/1/2 2/1/2
f 5/1/2 1/1/1 6/1/2
f 7/1/2 6/1/2 1/1/1
f 6/1/2 7/1/2 8/1/2
f 9/1/3 10/1/4 11/1/5
f 12/1/6 9/1/3 11/1/5
f 10/1/4 9/1/3 13/1/7
f 14/1/8 10/1/4 13/1/7
f 14/1/8 15/1/9 10/1/4
f 14/1/8 16/1/10 15/1/9
f 17/1/11 14/1/8 13/1/7
f 9/1/3 17/1/11 13/1/7
f 16/1/10 14/1/8 18/1/12
f 19/1/13 9/1/3 12/1/6
f 18/1/12 20/1/14 16/1/10
f 16/1/10 20/1/14 21/1/15
f 22/1/16 18/1/12 14/1/8
f 22/1/16 20/1/14 18/1/12
f 20/1/14 23/1/17 21/1/15
f 22/1/16 14/1/8 24/1/18
f 14/1/8 17/1/11 24/1/18
f 23/1/17 20/1/14 25/1/19
f 25/1/19 26/1/20 23/1/17
f 23/1/17 26/1/20 27/1/21
f 26/1/20 12/1/6 27/1/21
f 12/1/6 26/1/20 19/1/13
f 28/1/22 26/1/20 25/1/19
f 20/1/14 28/1/22 25/1/19
f 26/1/20 29/1/23 19/1/13
f 29/1/23 9/1/3 19/1/13
f 26/1/20 28/1/22 30/1/24
f 29/1/23 26/1/20 30/1/24
f 28/1/22 20/1/14 31/1/25
f 20/1/14 22/1/16 31/1/25
f 32/1/26 30/1/24 28/1/22
f 31/1/25 32/1/26 28/1/22
f 9/1/3 29/1/23 33/1/27
f 17/1/11 9/1/3 33/1/27
f 30/1/24 34/1/28 29/1/23
f 34/1/28 33/1/27 29/1/23
f 30/1/24 32/1/26 35/1/29
f 34/1/28 30/1/24 35/1/29
f 33/1/27 36/1/30 17/1/11
f 36/1/30 24/1/18 17/1/11
f 33/1/27 34/1/28 37/1/31
f 36/1/30 33/1/27 37/1/31
f 35/1/29 38/1/32 34/1/28
f 38/1/32 37/1/31 34/1/28
f 38/1/32 35/1/29 39/1/33
f 37/1/31 38/1/32 40/1/34
f 35/1/29 41/1/35 39/1/33
f 41/1/35 35/1/29 32/1/26
f 39/1/33 42/1/36 38/1/32
f 41/1/35 42/1/36 39/1/33
f 38/1/32 42/1/36 40/1/34
f 43/1/37 37/1/31 40/1/34
f 37/1/31 43/1/37 36/1/30
f 40/1/34 42/1/36 43/1/37
f 44/1/38 42/1/36 41/1/35
f 45/1/39 41/1/35 32/1/26
f 41/1/35 45/1/39 44/1/38
f 32/1/26 31/1/25 45/1/39
f 43/1/37 46/1/40 36/1/30
f 24/1/18 36/1/30 46/1/40
f 43/1/37 42/1/36 47/1/41
f 46/1/40 43/1/37 47/1/41
f 47/1/41 42/1/36 48/1/42
f 48/1/42 46/1/40 47/1/41
f 48/1/42 42/1/36 44/1/38
f 45/1/39 48/1/42 44/1/38
f 48/1/42 49/1/43 46/1/40
f 48/1/42 45/1/39 49/1/43
f 49/1/43 24/1/18 46/1/40
f 31/1/25 49/1/43 45/1/39
f 49/1/43 22/1/16 24/1/18
f 49/1/43 31/1/25 22/1/16
f 50/1/44 51/1/45 52/1/46
f 51/1/45 53/1/47 52/1/46
f 51/1/45 50/1/44 54/1/48
f 53/1/47 51/1/45 55/1/49
f 50/1/44 56/1/50 54/1/48
f 57/1/51 53/1/47 55/1/49
f 56/1/50 50/1/44 58/1/52
f 53/1/47 57/1/51 59/1/53
f 60/1/54 56/1/50 58/1/52
f 57/1/51 61/1/55 59/1/53
f 60/1/54 62/1/56 56/1/50
f 61/1/55 57/1/51 63/1/57
f 60/1/54 64/1/58 62/1/56
f 64/1/58 61/1/55 63/1/57
f 64/1/58 60/1/54 65/1/59
f 61/1/55 64/1/58 65/1/59
f 66/1/60 67/1/61 68/1/62
f 67/1/61 66/1/60 69/1/63
f 68/1/62 70/1/64 66/1/60
f 69/1/63 71/1/65 67/1/61
f 70/1/64 68/1/62 72/1/64
f 71/1/65 69/1/63 73/1/66
f 72/1/64 74/1/67 70/1/64
f 73/1/66 75/1/68 71/1/65
f 74/1/67 72/1/64 76/1/67
f 75/1/68 73/1/66 77/1/68
f 76/1/67 78/1/69 74/1/67
f 75/1/68 77/1/68 79/1/70
f 78/1/69 76/1/67 80/1/71
f 81/1/72 79/1/70 77/1/68
f 78/1/69 80/1/71 81/1/72
f 79/1/70 81/1/72 80/1/71
o RenderMesh_12613248825
v 0.013183 -0.013182 0.045552
v -0.013182 -0.013182 0.045552
v 0.000000 -0.018643 0.045552
v -0.018642 0.000000 0.045552
v 0.018643 0.000000 0.045552
v 0.013183 0.013182 0.045552
v -0.013182 0.013182 0.045552
v 0.000000 0.018643 0.045552
v 0.000000 -0.018643 -0.045552
v -0.013182 -0.013182 -0.045552
v 0.013182 -0.013182 -0.045552
v 0.013182 0.013182 -0.045552
v 0.018643 -0.000000 -0.045552
v -0.013182 0.013182 -0.045552
v 0.000000 0.018643 -0.045552
v -0.018643 -0.000000 -0.045552
v 0.013182 0.013182 -0.021241
v 0.013182 0.013182 -0.045552
v 0.000000 0.018643 -0.045552
v 0.018643 -0.000000 -0.021241
v 0.000000 0.018643 -0.021241
v 0.018643 -0.000000 -0.045552
v -0.013182 0.013182 -0.045552
v 0.013182 -0.013182 -0.021241
v -0.013182 0.013182 -0.021241
v 0.013182 -0.013182 -0.045552
v -0.018643 -0.000000 -0.045552
v 0.000000 -0.018643 -0.021241
v -0.018643 -0.000000 -0.021241
v 0.000000 -0.018643 -0.045552
v -0.013182 -0.013182 -0.045552
v -0.013182 -0.013182 -0.021241
v 0.000000 0.018643 0.045552
v 0.000000 0.018643 0.021241
v -0.013182 0.013182 0.021241
v 0.013183 0.013182 0.045552
v -0.013182 0.013182 0.045552
v 0.013183 0.013182 0.021241
v -0.018642 0.000000 0.021241
v 0.018643 0.000000 0.045552
v -0.018642 0.000000 0.045552
v 0.018643 0.000000 0.021241
v -0.013182 -0.013182 0.021241
v 0.013183 -0.013182 0.045552
v -0.013182 -0.013182 0.045552
v 0.013183 -0.013182 0.021241
v 0.000000 -0.018643 0.021241
v 0.000000 -0.018643 0.045552
v 0.000000 -0.018643 0.021241
v -0.013182 -0.013182 0.021241
v 0.013183 -0.013182 0.021241
v -0.018642 0.000000 0.021241
v 0.018643 0.000000 0.021241
v 0.013183 0.013182 0.021241
v -0.013182 0.013182 0.021241
v 0.000000 0.018643 0.021241
v 0.013182 -0.013182 -0.021241
v -0.013182 -0.013182 -0.021241
v 0.000000 -0.018643 -0.021241
v 0.013182 0.013182 -0.021241
v 0.018643 -0.000000 -0.021241
v -0.013182 0.013182 -0.021241
v 0.000000 0.018643 -0.021241
v -0.018643 -0.000000 -0.021241
vn -0.0000 -0.0000 1.0000
vn -0.0000 -0.0000 -1.0000
vn 0.7071 0.7071 -0.0000
vn -0.0000 1.0000 -0.0000
vn 1.0000 -0.0000 -0.0000
vn -0.7071 0.7071 -0.0000
vn 0.7071 -0.7071 -0.0000
vn -1.0000 -0.0000 -0.0000
vn -0.0000 -1.0000 -0.0000
vn -0.7071 -0.7071 -0.0000
vt 0.000000 0.000000
s 1
f 82/2/73 83/2/73 84/2/73
f 82/2/73 85/2/73 83/2/73
f 86/2/73 85/2/73 82/2/73
f 85/2/73 86/2/73 87/2/73
f 85/2/73 87/2/73 88/2/73
f 88/2/73 87/2/73 89/2/73
f 90/2/74 91/2/74 92/2/74
f 93/2/74 92/2/74 91/2/74
f 92/2/74 93/2/74 94/2/74
f 91/2/74 95/2/74 93/2/74
f 93/2/74 95/2/74 96/2/74
f 95/2/74 91/2/74 97/2/74
f 98/2/75 99/2/75 100/2/76
f 99/2/75 98/2/75 101/2/77
f 100/2/76 102/2/76 98/2/75
f 101/2/77 103/2/77 99/2/75
f 102/2/76 100/2/76 104/2/78
f 103/2/77 101/2/77 105/2/79
f 104/2/78 106/2/78 102/2/76
f 105/2/79 107/2/79 103/2/77
f 106/2/78 104/2/78 108/2/80
f 107/2/79 105/2/79 109/2/81
f 108/2/80 110/2/80 106/2/78
f 109/2/81 111/2/81 107/2/79
f 110/2/80 108/2/80 112/2/82
f 111/2/81 109/2/81 113/2/82
f 112/2/82 113/2/82 110/2/80
f 113/2/82 112/2/82 111/2/81
f 114/2/76 115/2/76 116/2/78
f 115/2/76 114/2/76 117/2/75
f 116/2/78 118/2/78 114/2/76
f 117/2/75 119/2/75 115/2/76
f 118/2/78 116/2/78 120/2/80
f 119/2/75 117/2/75 121/2/77
f 120/2/80 122/2/80 118/2/78
f 121/2/77 123/2/77 119/2/75
f 122/2/80 120/2/80 124/2/82
f 123/2/77 121/2/77 125/2/79
f 124/2/82 126/2/82 122/2/80
f 125/2/79 127/2/79 123/2/77
f 126/2/82 124/2/82 128/2/81
f 127/2/79 125/2/79 129/2/81
f 128/2/81 129/2/81 126/2/82
f 129/2/81 128/2/81 127/2/79
f 130/2/74 131/2/74 132/2/74
f 133/2/74 132/2/74 131/2/74
f 132/2/74 133/2/74 134/2/74
f 134/2/74 133/2/74 135/2/74
f 136/2/74 135/2/74 133/2/74
f 135/2/74 136/2/74 137/2/74
f 138/2/73 139/2/73 140/2/73
f 139/2/73 138/2/73 141/2/73
f 141/2/73 138/2/73 142/2/73
f 139/2/73 141/2/73 143/2/73
f 143/2/73 141/2/73 144/2/73
f 139/2/73 143/2/73 145/2/73
o RenderMesh_78829838791634
v -0.118480 -0.042774 -0.050280
v -0.118480 -0.042774 0.050280
v -0.118480 0.041343 -0.035153
v -0.118480 0.028689 -0.050280
v -0.118480 0.041343 0.035153
v -0.118480 0.028689 0.050280
v 1.146902 -0.007987 0.047076
v 1.130132 -0.054111 0.046123
v 1.146902 -0.041275 0.033287
v 1.130132 -0.007987 0.065228
v 1.130132 -0.073215 0.000000
v 1.130132 0.038136 0.046123
v 1.146902 -0.055063 0.000000
v 1.146902 -0.027960 0.019973
v 1.146902 -0.007987 0.028245
v 1.146902 -0.036233 0.000000
v 1.146902 0.011985 0.019973
v 1.146902 -0.027960 -0.019973
v 1.146902 0.025300 0.033287
v 1.146902 0.039088 -0.000000
v 1.146902 0.020258 -0.000000
v 1.130132 0.057240 -0.000000
v 1.146902 0.011985 -0.019973
v 1.130132 0.038136 -0.046123
v 1.146902 0.025300 -0.033287
v 1.146902 -0.007987 -0.047076
v 1.146902 -0.007987 -0.028245
v 1.130132 -0.007987 -0.065228
v 1.130132 -0.054111 -0.046123
v 1.146902 -0.041275 -0.033287
v 1.146902 -0.007987 -0.028245
v 1.075105 -0.007987 -0.028245
v 1.146902 -0.027960 -0.019973
v 1.075105 -0.027960 -0.019973
v 1.146902 -0.036233 0.000000
v 1.075105 0.011985 -0.019973
v 1.146902 0.011985 -0.019973
v 1.075105 -0.036233 0.000000
v 1.075105 0.020258 -0.000000
v 1.146902 -0.027960 0.019973
v 1.146902 0.020258 -0.000000
v 1.075105 -0.027960 0.019973
v 1.146902 -0.007987 0.028245
v 1.075105 0.011985 0.019973
v 1.146902 0.011985 0.019973
v 1.075105 -0.007987 0.028245
v 0.458386 -0.054111 0.046123
v 0.458386 -0.043210 0.000000
v 0.458386 -0.073215 0.000000
v 0.458386 -0.054111 -0.046123
v 0.458386 -0.032894 0.024906
v 0.458386 -0.032894 -0.024906
v 0.458386 -0.007987 0.035223
v 0.458386 -0.007987 -0.035223
v 0.458386 -0.007987 0.065228
v 0.458386 -0.007987 -0.065228
v 0.458386 0.038136 0.046123
v 0.458386 0.038136 -0.046123
v 0.458386 0.016919 0.024906
v 0.458386 0.016919 -0.024906
v 0.458386 0.027236 -0.000000
v 0.458386 0.057240 -0.000000
v 0.450546 0.021904 0.029907
v 0.138501 -0.008004 0.042295
v 0.450546 -0.008003 0.042295
v 0.450546 -0.037911 0.029907
v 0.138500 0.021904 0.029907
v 0.138501 -0.037911 0.029907
v 0.450546 0.034292 -0.000000
v 0.138501 -0.050299 0.000000
v 0.138500 0.034292 -0.000000
v 0.450546 -0.050299 0.000000
v 0.450546 0.021904 -0.029908
v 0.450546 -0.037911 -0.029908
v 0.138500 0.021904 -0.029908
v 0.138500 -0.037911 -0.029908
v 0.450546 -0.008003 -0.042296
v 0.138500 -0.008004 -0.042295
v 0.116394 0.028689 -0.050280
v -0.118480 -0.042774 -0.050280
v -0.118480 0.028689 -0.050280
v 0.116394 -0.042774 -0.050280
v -0.118480 0.041343 -0.035153
v 0.116394 0.041343 -0.035153
v 0.116394 0.041343 0.035153
v -0.118480 0.041343 0.035153
v -0.118480 0.028689 0.050280
v 0.116394 0.028689 0.050280
v 0.116394 -0.042774 0.050280
v -0.118480 -0.042774 0.050280
v 0.116394 0.041343 -0.035153
v -0.118480 0.041343 -0.035153
v -0.118480 0.041343 0.035153
v 0.116394 0.041343 0.035153
v 0.458386 -0.007987 0.065228
v 1.130132 -0.007987 0.065228
v 1.130132 0.038136 0.046123
v 0.458386 -0.054111 0.046123
v 0.458386 0.038136 0.046123
v 1.130132 -0.054111 0.046123
v 1.130132 0.057240 -0.000000
v 0.458386 -0.073215 0.000000
v 0.458386 0.057240 -0.000000
v 1.130132 -0.073215 0.000000
v 1.130132 0.038136 -0.046123
v 0.458386 -0.054111 -0.046123
v 0.458386 0.038136 -0.046123
v 1.130132 -0.054111 -0.046123
v 1.130132 -0.007987 -0.065228
v 0.458386 -0.007987 -0.065228
v 0.422148 -0.007987 -0.035223
v 0.458386 -0.007987 -0.035223
v 0.422148 -0.032894 -0.024906
v 0.458386 -0.032894 -0.024906
v 0.458386 0.016919 -0.024906
v 0.422148 -0.043210 0.000000
v 0.422148 0.016919 -0.024906
v 0.458386 -0.043210 0.000000
v 0.458386 0.027236 -0.000000
v 0.422148 -0.032894 0.024906
v 0.422148 0.027236 -0.000000
v 0.458386 -0.032894 0.024906
v 0.458386 0.016919 0.024906
v 0.422148 -0.007987 0.035223
v 0.422148 0.016919 0.024906
v 0.458386 -0.007987 0.035223
v 0.450546 0.021904 -0.029908
v 0.450546 -0.008003 -0.029607
v 0.450546 -0.008003 -0.042296
v 0.450546 -0.037911 -0.029908
v 0.450546 0.012932 -0.020935
v 0.450546 0.034292 -0.000000
v 0.450546 -0.028939 -0.020935
v 0.450546 0.021604 -0.000000
v 0.450546 0.012932 0.020935
v 0.450546 0.021904 0.029907
v 0.450546 -0.008003 0.029606
v 0.450546 -0.008003 0.042295
v 0.450546 -0.037911 0.029907
v 0.450546 -0.028939 0.020935
v 0.450546 -0.037610 0.000000
v 0.450546 -0.050299 0.000000
v 0.116394 -0.042774 -0.050280
v 0.116394 0.041343 -0.035153
v 0.116394 -0.042774 0.050280
v 0.116394 0.028689 -0.050280
v 0.116394 0.041343 0.035153
v 0.116394 0.028689 0.050280
vn -1.0000 0.0005 0.0005
vn 0.8767 0.0005 0.4811
vn 0.7335 -0.5136 0.4452
vn 0.8684 -0.3357 0.3650
vn 0.7344 0.0005 0.6787
vn 0.7344 -0.6787 0.0005
vn 0.7335 0.5136 0.4452
vn 0.8571 -0.5152 0.0005
vn 1.0000 0.0005 0.0005
vn 0.8684 0.3357 0.3650
vn 0.8571 0.5152 0.0005
vn 0.7344 0.6787 0.0005
vn 0.7335 0.5136 -0.4452
vn 0.8684 0.3357 -0.3650
vn 0.8767 0.0005 -0.4811
vn 0.7344 0.0005 -0.6787
vn 0.7335 -0.5136 -0.4452
vn 0.8684 -0.3357 -0.3650
vn 0.0005 0.0005 1.0000
vn 0.1763 0.0005 0.9843
vn -0.0000 0.7316 0.6818
vn 0.1530 0.7228 0.6739
vn 0.0005 1.0000 0.0005
vn 0.1530 -0.7228 0.6739
vn 0.0005 -0.7316 0.6817
vn 0.1295 0.9916 0.0005
vn 0.1295 -0.9916 0.0005
vn 0.0005 0.7316 -0.6817
vn 0.0005 -1.0000 0.0005
vn 0.1530 0.7228 -0.6739
vn 0.0005 0.0005 -1.0000
vn 0.1530 -0.7228 -0.6739
vn -0.0000 -0.7316 -0.6818
vn 0.1763 0.0005 -0.9843
vn -0.0000 0.7316 0.6817
vn 0.0005 -0.7316 0.6818
vn 0.0005 0.7316 0.6817
vn -0.0000 -0.7316 0.6818
vn -0.0000 0.7316 -0.6818
vn 0.0005 -0.7316 -0.6818
vn 0.0005 0.4501 -0.8930
vn 0.0005 0.4502 -0.8930
vn 0.0005 0.7673 -0.6413
vn 0.0005 0.7673 0.6413
vn 0.0005 0.4501 0.8930
vn 0.0005 0.4502 0.8930
vn -0.0000 -0.7316 0.6817
vn 0.0005 -0.7316 -0.6817
vn -0.0000 0.7316 -0.6817
vn -0.0000 -0.7316 -0.6817
vn 0.0005 0.7316 -0.6818
vn 0.0005 0.7316 0.6818
vn 1.0000 0.0003 0.0003
vn 1.0000 0.0004 0.0004
vt 0.000000 0.000000
s 1
f 146/3/83 147/3/83 148/3/83
f 146/3/83 148/3/83 149/3/83
f 147/3/83 150/3/83 148/3/83
f 150/3/83 147/3/83 151/3/83
f 152/3/84 153/3/85 154/3/86
f 153/3/85 152/3/84 155/3/87
f 156/3/88 154/3/86 153/3/85
f 152/3/84 157/3/89 155/3/87
f 154/3/86 156/3/88 158/3/90
f 152/3/84 154/3/86 159/3/91
f 158/3/90 159/3/91 154/3/86
f 159/3/91 160/3/91 152/3/84
f 159/3/91 158/3/90 161/3/91
f 162/3/91 152/3/84 160/3/91
f 158/3/90 163/3/91 161/3/91
f 152/3/84 162/3/91 164/3/92
f 157/3/89 152/3/84 164/3/92
f 165/3/93 164/3/92 162/3/91
f 165/3/93 157/3/89 164/3/92
f 165/3/93 162/3/91 166/3/91
f 157/3/89 165/3/93 167/3/94
f 168/3/91 165/3/93 166/3/91
f 169/3/95 167/3/94 165/3/93
f 165/3/93 168/3/91 170/3/96
f 169/3/95 165/3/93 170/3/96
f 168/3/91 171/3/97 170/3/96
f 171/3/97 169/3/95 170/3/96
f 171/3/97 168/3/91 172/3/91
f 163/3/91 171/3/97 172/3/91
f 169/3/95 171/3/97 173/3/98
f 174/3/99 173/3/98 171/3/97
f 171/3/97 163/3/91 175/3/100
f 171/3/97 175/3/100 174/3/99
f 158/3/90 175/3/100 163/3/91
f 156/3/88 174/3/99 175/3/100
f 156/3/88 175/3/100 158/3/90
f 176/3/101 177/3/102 178/3/103
f 179/3/104 178/3/103 177/3/102
f 179/3/104 180/3/105 178/3/103
f 177/3/102 176/3/101 181/3/106
f 182/3/107 181/3/106 176/3/101
f 177/3/102 183/3/108 179/3/104
f 180/3/105 179/3/104 183/3/108
f 184/3/109 177/3/102 181/3/106
f 181/3/106 182/3/107 184/3/109
f 184/3/109 183/3/108 177/3/102
f 183/3/108 185/3/110 180/3/105
f 186/3/111 184/3/109 182/3/107
f 185/3/110 183/3/108 187/3/112
f 185/3/110 187/3/112 188/3/113
f 184/3/109 186/3/111 189/3/114
f 190/3/115 189/3/114 186/3/111
f 183/3/108 184/3/109 191/3/116
f 183/3/108 191/3/116 187/3/112
f 191/3/116 184/3/109 189/3/114
f 191/3/116 188/3/113 187/3/112
f 189/3/114 190/3/115 191/3/116
f 188/3/113 191/3/116 190/3/115
f 192/3/83 193/3/83 194/3/83
f 195/3/83 194/3/83 193/3/83
f 193/3/83 192/3/83 196/3/83
f 195/3/83 193/3/83 197/3/83
f 192/3/83 198/3/83 196/3/83
f 199/3/83 195/3/83 197/3/83
f 198/3/83 192/3/83 200/3/83
f 195/3/83 199/3/83 201/3/83
f 202/3/83 198/3/83 200/3/83
f 203/3/83 201/3/83 199/3/83
f 198/3/83 202/3/83 204/3/83
f 205/3/83 203/3/83 199/3/83
f 202/3/83 206/3/83 204/3/83
f 206/3/83 203/3/83 205/3/83
f 206/3/83 202/3/83 207/3/83
f 203/3/83 206/3/83 207/3/83
f 208/3/117 209/3/101 210/3/101
f 209/3/101 211/3/118 210/3/101
f 209/3/101 208/3/117 212/3/119
f 211/3/118 209/3/101 213/3/120
f 214/3/105 212/3/119 208/3/117
f 215/3/111 211/3/118 213/3/120
f 214/3/105 216/3/105 212/3/119
f 215/3/111 217/3/111 211/3/118
f 218/3/110 216/3/105 214/3/105
f 215/3/111 219/3/115 217/3/111
f 218/3/110 220/3/121 216/3/105
f 219/3/115 215/3/111 221/3/122
f 220/3/121 218/3/110 222/3/113
f 223/3/113 219/3/115 221/3/122
f 220/3/121 222/3/113 223/3/113
f 223/3/113 222/3/113 219/3/115
f 224/3/123 225/3/113 226/3/124
f 225/3/113 224/3/123 227/3/113
f 224/3/123 226/3/124 228/3/125
f 224/3/123 228/3/125 229/3/125
f 230/3/126 231/3/126 232/3/127
f 230/3/126 232/3/127 233/3/128
f 233/3/128 232/3/127 234/3/101
f 235/3/101 234/3/101 232/3/127
f 236/3/105 237/3/105 238/3/105
f 236/3/105 238/3/105 239/3/105
f 240/3/101 241/3/101 242/3/117
f 243/3/129 241/3/101 240/3/101
f 240/3/101 242/3/117 244/3/119
f 243/3/129 245/3/107 241/3/101
f 246/3/105 244/3/119 242/3/117
f 247/3/111 245/3/107 243/3/129
f 244/3/119 246/3/105 248/3/105
f 247/3/111 249/3/111 245/3/107
f 250/3/110 248/3/105 246/3/105
f 251/3/130 249/3/111 247/3/111
f 248/3/105 250/3/110 252/3/131
f 251/3/130 253/3/132 249/3/111
f 252/3/131 250/3/110 254/3/113
f 255/3/113 253/3/132 251/3/130
f 252/3/131 254/3/113 255/3/113
f 255/3/113 254/3/113 253/3/132
f 256/3/113 257/3/113 258/3/122
f 257/3/113 259/3/132 258/3/122
f 260/3/133 257/3/113 256/3/113
f 258/3/122 259/3/132 261/3/111
f 262/3/131 260/3/133 256/3/113
f 259/3/132 263/3/111 261/3/111
f 262/3/131 264/3/105 260/3/133
f 261/3/111 263/3/111 265/3/129
f 264/3/105 262/3/131 266/3/105
f 263/3/111 267/3/118 265/3/129
f 266/3/105 268/3/117 264/3/105
f 265/3/129 267/3/118 269/3/101
f 268/3/117 266/3/105 270/3/134
f 267/3/118 271/3/101 269/3/101
f 271/3/101 268/3/117 270/3/134
f 269/3/101 271/3/101 270/3/134
f 272/3/91 273/3/135 274/3/91
f 275/3/91 274/3/91 273/3/135
f 273/3/135 272/3/91 276/3/135
f 277/3/91 276/3/135 272/3/91
f 275/3/91 273/3/135 278/3/136
f 276/3/135 277/3/91 279/3/91
f 277/3/91 280/3/136 279/3/91
f 280/3/136 276/3/135 279/3/91
f 277/3/91 281/3/91 280/3/136
f 276/3/135 282/3/135 273/3/135
f 282/3/135 276/3/135 280/3/136
f 281/3/91 282/3/135 280/3/136
f 282/3/135 278/3/136 273/3/135
f 282/3/135 281/3/91 283/3/91
f 284/3/91 282/3/135 283/3/91
f 278/3/136 282/3/135 285/3/91
f 282/3/135 284/3/91 285/3/91
f 278/3/136 285/3/91 286/3/136
f 284/3/91 286/3/136 285/3/91
f 286/3/136 275/3/91 278/3/136
f 286/3/136 284/3/91 287/3/91
f 275/3/91 286/3/136 287/3/91
f 288/3/91 289/3/91 290/3/91
f 289/3/91 288/3/91 291/3/91
f 290/3/91 289/3/91 292/3/91
f 290/3/91 292/3/91 293/3/91
