# Blender 5.1.2
# www.blender.org
mtllib bullet.mtl
o RenderMesh_122411806441327
v -0.584646 0.017669 0.004734
v -0.584646 -0.015841 0.009146
v -0.584646 -0.004734 0.017669
v -0.584646 0.009147 0.015842
v -0.584646 -0.017668 -0.004734
v -0.584646 -0.009146 -0.015841
v -0.584646 0.015842 -0.009146
v -0.584646 0.004735 -0.017669
v -0.421581 -0.004325 0.016141
v -0.429562 0.008126 0.014075
v -0.429562 -0.004206 0.015698
v -0.429562 -0.014074 0.008126
v -0.421581 0.008356 0.014471
v -0.421581 0.016141 0.004325
v -0.429562 0.015699 0.004206
v -0.429562 0.014075 -0.008126
v -0.413601 0.007719 0.013369
v -0.421581 0.014472 -0.008355
v -0.421581 -0.014471 0.008355
v -0.421581 0.004325 -0.016140
v -0.429562 0.004207 -0.015698
v -0.413601 0.013369 -0.007718
v -0.429562 -0.008126 -0.014075
v -0.413601 0.014911 0.003995
v -0.421581 -0.008355 -0.014471
v -0.421581 -0.016140 -0.004325
v -0.429562 -0.015698 -0.004206
v -0.413601 -0.007718 -0.013369
v -0.413601 -0.013368 0.007719
v -0.413601 -0.014911 -0.003995
v -0.413601 0.003996 -0.014911
v -0.404868 -0.006209 -0.010755
v -0.413601 -0.003995 0.014911
v -0.404868 -0.010755 0.006210
v -0.404868 -0.011997 -0.003214
v -0.404868 0.006210 0.010756
v -0.404868 -0.003214 0.011996
v -0.396888 -0.006791 0.003921
v -0.396888 -0.007574 -0.002029
v -0.396888 -0.002029 0.007575
v -0.396888 -0.003920 -0.006791
v -0.392220 0.000000 0.000000
v -0.396888 0.003921 0.006791
v -0.396888 0.002030 -0.007575
v -0.404868 0.003215 -0.011996
v -0.404868 0.011996 0.003215
v -0.396888 0.007575 0.002030
v -0.396888 0.006792 -0.003921
v -0.404868 0.010756 -0.006210
v -0.429562 0.008126 0.014075
v -0.437391 -0.004734 0.017669
v -0.429562 -0.004206 0.015698
v -0.429562 -0.014074 0.008126
v -0.437391 0.009147 0.015842
v -0.437391 -0.015841 0.009146
v -0.437391 0.017669 0.004734
v -0.437391 -0.017668 -0.004734
v -0.429562 0.015699 0.004206
v -0.429562 -0.015698 -0.004206
v -0.429562 0.014075 -0.008126
v -0.429562 -0.008126 -0.014075
v -0.437391 0.015842 -0.009146
v -0.437391 -0.009146 -0.015841
v -0.437391 0.004735 -0.017669
v -0.429562 0.004207 -0.015698
v -0.437391 -0.017668 -0.004734
v -0.584646 -0.015841 0.009146
v -0.584646 -0.017668 -0.004734
v -0.437391 -0.015841 0.009146
v -0.437391 -0.009146 -0.015841
v -0.584646 -0.004734 0.017669
v -0.584646 -0.009146 -0.015841
v -0.437391 -0.004734 0.017669
v -0.437391 0.004735 -0.017669
v -0.584646 0.009147 0.015842
v -0.584646 0.004735 -0.017669
v -0.437391 0.009147 0.015842
v -0.437391 0.015842 -0.009146
v -0.584646 0.017669 0.004734
v -0.584646 0.015842 -0.009146
v -0.437391 0.017669 0.004734
vn -1.0000 0.0002 0.0002
vn -1.0000 0.0003 0.0003
vn 0.0491 -0.2585 0.9648
vn -0.0573 0.4992 0.8646
vn -0.0574 -0.2584 0.9643
vn -0.0572 -0.8644 0.4996
vn 0.0494 0.4996 0.8649
vn 0.0492 0.9648 0.2585
vn -0.0573 0.9643 0.2584
vn -0.0571 0.8648 -0.4988
vn 0.2378 0.4857 0.8412
vn 0.0494 0.8652 -0.4989
vn 0.0491 -0.8650 0.4994
vn 0.0491 0.2585 -0.9648
vn -0.0572 0.2584 -0.9643
vn 0.2380 0.8413 -0.4854
vn -0.0572 -0.4992 -0.8646
vn 0.2381 0.9381 0.2513
vn 0.0493 -0.4990 -0.8652
vn 0.0491 -0.9648 -0.2585
vn -0.0573 -0.9644 -0.2583
vn 0.2381 -0.4856 -0.8411
vn 0.2381 -0.8411 0.4856
vn 0.2381 -0.9382 -0.2513
vn 0.2381 0.2514 -0.9381
vn 0.4058 -0.4566 -0.7917
vn 0.2378 -0.2517 0.9381
vn 0.4058 -0.7918 0.4565
vn 0.4059 -0.8827 -0.2370
vn 0.4059 0.4566 0.7917
vn 0.4059 -0.2370 0.8827
vn 0.6717 -0.6415 0.3706
vn 0.6715 -0.7157 -0.1918
vn 0.6717 -0.1922 0.7154
vn 0.6716 -0.3708 -0.6414
vn 1.0000 0.0002 0.0002
vn 0.6717 0.3707 0.6414
vn 0.6715 0.1917 -0.7158
vn 0.4055 0.2366 -0.8830
vn 0.4059 0.8827 0.2368
vn 0.6717 0.7155 0.1919
vn 0.6717 0.6414 -0.3708
vn 0.4055 0.7916 -0.4570
vn 0.2525 0.4840 0.8379
vn 0.2526 -0.2508 0.9345
vn 0.2525 -0.2507 0.9346
vn 0.2525 -0.8379 0.4839
vn 0.2522 0.4839 0.8380
vn 0.2522 -0.8380 0.4838
vn 0.2527 0.9345 0.2505
vn 0.2525 -0.9346 -0.2507
vn 0.2524 0.9346 0.2505
vn 0.2524 -0.9346 -0.2506
vn 0.2526 0.8377 -0.4843
vn 0.2524 -0.4840 -0.8379
vn 0.2525 0.8377 -0.4842
vn 0.2525 -0.4842 -0.8377
vn 0.2525 0.2505 -0.9346
vn 0.2522 0.2505 -0.9347
vn 0.0004 -0.9660 -0.2586
vn 0.0004 -0.8662 0.4997
vn 0.0003 -0.9660 -0.2587
vn 0.0005 -0.8662 0.4996
vn 0.0004 -0.4998 -0.8661
vn 0.0004 -0.2587 0.9660
vn -0.0000 -0.2588 0.9659
vn 0.0004 0.2591 -0.9658
vn 0.0004 0.4998 0.8662
vn 0.0005 0.8661 -0.4999
vn 0.0004 0.9658 0.2592
vn 0.0003 0.8661 -0.4999
vn 0.0005 0.9658 0.2593
vt 0.000000 0.000000
s 1
f 1/1/1 2/1/2 3/1/2
f 1/1/1 3/1/2 4/1/2
f 1/1/1 5/1/2 2/1/2
f 5/1/2 1/1/1 6/1/2
f 7/1/2 6/1/2 1/1/1
f 6/1/2 7/1/2 8/1/2
f 9/1/3 10/1/4 11/1/5
f 12/1/6 9/1/3 11/1/5
f 10/1/4 9/1/3 13/1/7
f 14/1/8 10/1/4 13/1/7
f 14/1/8 15/1/9 10/1/4
f 14/1/8 16/1/10 15/1/9
f 17/1/11 14/1/8 13/1/7
f 9/1/3 17/1/11 13/1/7
f 16/1/10 14/1/8 18/1/12
f 19/1/13 9/1/3 12/1/6
f 18/1/12 20/1/14 16/1/10
f 16/1/10 20/1/14 21/1/15
f 22/1/16 18/1/12 14/1/8
f 22/1/16 20/1/14 18/1/12
f 20/1/14 23/1/17 21/1/15
f 22/1/16 14/1/8 24/1/18
f 14/1/8 17/1/11 24/1/18
f 23/1/17 20/1/14 25/1/19
f 25/1/19 26/1/20 23/1/17
f 23/1/17 26/1/20 27/1/21
f 26/1/20 12/1/6 27/1/21
f 12/1/6 26/1/20 19/1/13
f 28/1/22 26/1/20 25/1/19
f 20/1/14 28/1/22 25/1/19
f 26/1/20 29/1/23 19/1/13
f 29/1/23 9/1/3 19/1/13
f 26/1/20 28/1/22 30/1/24
f 29/1/23 26/1/20 30/1/24
f 28/1/22 20/1/14 31/1/25
f 20/1/14 22/1/16 31/1/25
f 32/1/26 30/1/24 28/1/22
f 31/1/25 32/1/26 28/1/22
f 9/1/3 29/1/23 33/1/27
f 17/1/11 9/1/3 33/1/27
f 30/1/24 34/1/28 29/1/23
f 34/1/28 33/1/27 29/1/23
f 30/1/24 32/1/26 35/1/29
f 34/1/28 30/1/24 35/1/29
f 33/1/27 36/1/30 17/1/11
f 36/1/30 24/1/18 17/1/11
f 33/1/27 34/1/28 37/1/31
f 36/1/30 33/1/27 37/1/31
f 35/1/29 38/1/32 34/1/28
f 38/1/32 37/1/31 34/1/28
f 38/1/32 35/1/29 39/1/33
f 37/1/31 38/1/32 40/1/34
f 35/1/29 41/1/35 39/1/33
f 41/1/35 35/1/29 32/1/26
f 39/1/33 42/1/36 38/1/32
f 41/1/35 42/1/36 39/1/33
f 38/1/32 42/1/36 40/1/34
f 43/1/37 37/1/31 40/1/34
f 37/1/31 43/1/37 36/1/30
f 40/1/34 42/1/36 43/1/37
f 44/1/38 42/1/36 41/1/35
f 45/1/39 41/1/35 32/1/26
f 41/1/35 45/1/39 44/1/38
f 32/1/26 31/1/25 45/1/39
f 43/1/37 46/1/40 36/1/30
f 24/1/18 36/1/30 46/1/40
f 43/1/37 42/1/36 47/1/41
f 46/1/40 43/1/37 47/1/41
f 47/1/41 42/1/36 48/1/42
f 48/1/42 46/1/40 47/1/41
f 48/1/42 42/1/36 44/1/38
f 45/1/39 48/1/42 44/1/38
f 48/1/42 49/1/43 46/1/40
f 48/1/42 45/1/39 49/1/43
f 49/1/43 24/1/18 46/1/40
f 31/1/25 49/1/43 45/1/39
f 49/1/43 22/1/16 24/1/18
f 49/1/43 31/1/25 22/1/16
f 50/1/44 51/1/45 52/1/46
f 51/1/45 53/1/47 52/1/46
f 51/1/45 50/1/44 54/1/48
f 53/1/47 51/1/45 55/1/49
f 50/1/44 56/1/50 54/1/48
f 57/1/51 53/1/47 55/1/49
f 56/1/50 50/1/44 58/1/52
f 53/1/47 57/1/51 59/1/53
f 60/1/54 56/1/50 58/1/52
f 57/1/51 61/1/55 59/1/53
f 60/1/54 62/1/56 56/1/50
f 61/1/55 57/1/51 63/1/57
f 60/1/54 64/1/58 62/1/56
f 64/1/58 61/1/55 63/1/57
f 64/1/58 60/1/54 65/1/59
f 61/1/55 64/1/58 65/1/59
f 66/1/60 67/1/61 68/1/62
f 67/1/61 66/1/60 69/1/63
f 68/1/62 70/1/64 66/1/60
f 69/1/63 71/1/65 67/1/61
f 70/1/64 68/1/62 72/1/64
f 71/1/65 69/1/63 73/1/66
f 72/1/64 74/1/67 70/1/64
f 73/1/66 75/1/68 71/1/65
f 74/1/67 72/1/64 76/1/67
f 75/1/68 73/1/66 77/1/68
f 76/1/67 78/1/69 74/1/67
f 75/1/68 77/1/68 79/1/70
f 78/1/69 76/1/67 80/1/71
f 81/1/72 79/1/70 77/1/68
f 78/1/69 80/1/71 81/1/72
f 79/1/70 81/1/72 80/1/71
