# Blender 5.1.2
# www.blender.org
mtllib hammer3.mtl
o RenderMesh_72365787510539
v -0.079659 -0.169543 0.028718
v -0.084837 -0.088049 0.028760
v -0.095822 -0.132836 0.028711
v 0.062007 -0.025916 0.028705
v -0.042693 -0.005534 0.028756
v 0.062619 -0.009366 0.028690
v -0.081364 -0.041394 0.028753
v -0.094923 -0.003286 0.028753
v -0.083970 0.009485 0.028754
v -0.126370 0.028299 0.028753
v -0.123688 0.045170 0.028730
v -0.153910 0.038357 0.028688
v -0.148219 0.053993 0.028688
v -0.155111 0.047648 0.028694
v 0.062007 -0.025916 -0.028705
v -0.042693 -0.005534 -0.028755
v 0.062619 -0.009366 -0.028690
v -0.084837 -0.088049 -0.028760
v -0.079659 -0.169543 -0.028718
v -0.095822 -0.132836 -0.028710
v -0.081364 -0.041394 -0.028753
v -0.094923 -0.003286 -0.028753
v -0.083970 0.009485 -0.028754
v -0.126370 0.028299 -0.028753
v -0.123688 0.045170 -0.028730
v -0.153910 0.038357 -0.028688
v -0.148219 0.053993 -0.028688
v -0.155111 0.047648 -0.028693
v -0.163374 0.050655 0.016323
v -0.155111 0.047648 0.028694
v -0.150055 0.063043 0.016323
v -0.148219 0.053993 0.028688
v -0.153910 0.038357 0.028688
v -0.123688 0.045170 0.028730
v -0.161134 0.032604 0.016323
v -0.119617 0.051964 0.016323
v -0.130695 0.021526 0.016323
v -0.083970 0.009485 0.028754
v -0.126370 0.028299 0.028753
v -0.079866 0.016333 0.016323
v -0.094923 -0.003286 0.028753
v -0.042693 -0.005534 0.028756
v -0.101723 -0.007573 0.016323
v -0.041185 0.002255 0.016323
v -0.081364 -0.041394 0.028753
v 0.062619 -0.009366 0.028690
v -0.089307 -0.042464 0.016323
v 0.071199 -0.001532 0.016322
v -0.092602 -0.086822 0.016323
v 0.069612 -0.029279 0.016322
v -0.084837 -0.088049 0.028760
v 0.062007 -0.025916 0.028705
v -0.103985 -0.133493 0.016323
v -0.079659 -0.169543 0.028718
v -0.095822 -0.132836 0.028711
v -0.082482 -0.184393 0.016323
v -0.153910 0.038357 -0.028688
v -0.163374 0.050655 -0.016322
v -0.155111 0.047648 -0.028693
v -0.161134 0.032604 -0.016322
v -0.150055 0.063043 -0.016322
v -0.130695 0.021526 -0.016322
v -0.148219 0.053993 -0.028688
v -0.126370 0.028299 -0.028753
v -0.123688 0.045170 -0.028730
v -0.094923 -0.003286 -0.028753
v -0.119617 0.051964 -0.016322
v -0.101723 -0.007573 -0.016322
v -0.083970 0.009485 -0.028754
v -0.081364 -0.041394 -0.028753
v -0.079866 0.016333 -0.016322
v -0.089307 -0.042464 -0.016322
v -0.042693 -0.005534 -0.028755
v -0.092602 -0.086822 -0.016322
v -0.041185 0.002255 -0.016322
v -0.084837 -0.088049 -0.028760
v 0.062619 -0.009366 -0.028690
v -0.103985 -0.133493 -0.016322
v 0.071199 -0.001532 -0.016322
v -0.095822 -0.132836 -0.028710
v 0.069612 -0.029279 -0.016322
v -0.079659 -0.169543 -0.028718
v 0.062007 -0.025916 -0.028705
v -0.082482 -0.184393 -0.016322
v -0.150055 0.063043 -0.016322
v -0.150055 0.063043 0.016323
v -0.119617 0.051964 -0.016322
v -0.119617 0.051964 0.016323
v -0.163374 0.050655 0.016323
v -0.079866 0.016333 0.016323
v -0.163374 0.050655 -0.016322
v -0.079866 0.016333 -0.016322
v -0.161134 0.032604 0.016323
v -0.041185 0.002255 0.016323
v -0.161134 0.032604 -0.016322
v -0.041185 0.002255 -0.016322
v -0.130695 0.021526 0.016323
v 0.071199 -0.001532 0.016322
v -0.130695 0.021526 -0.016322
v 0.071199 -0.001532 -0.016322
v -0.101723 -0.007573 -0.016322
v 0.069612 -0.029279 0.016322
v -0.101723 -0.007573 0.016323
v 0.069612 -0.029279 -0.016322
v -0.089307 -0.042464 -0.016322
v -0.082482 -0.184393 -0.016322
v -0.089307 -0.042464 0.016323
v -0.082482 -0.184393 0.016323
v -0.092602 -0.086822 -0.016322
v -0.103985 -0.133493 0.016323
v -0.092602 -0.086822 0.016323
v -0.103985 -0.133493 -0.016322
vn 0.0008 -0.0005 1.0000
vn 0.0002 -0.0004 1.0000
vn 0.0008 -0.0003 1.0000
vn 0.0007 -0.0004 1.0000
vn 0.0005 -0.0004 1.0000
vn 0.0006 -0.0004 1.0000
vn 0.0013 -0.0005 1.0000
vn 0.0007 -0.0003 -1.0000
vn 0.0007 -0.0004 -1.0000
vn 0.0008 -0.0003 -1.0000
vn 0.0002 -0.0004 -1.0000
vn 0.0007 -0.0005 -1.0000
vn 0.0005 -0.0004 -1.0000
vn 0.0005 -0.0003 -1.0000
vn 0.0008 -0.0005 -1.0000
vn 0.0011 -0.0004 -1.0000
vn -0.7652 0.2780 0.5807
vn -0.7653 0.2778 0.5807
vn -0.1595 0.7872 0.5957
vn -0.6273 -0.5007 0.5965
vn 0.4318 0.7218 0.5409
vn -0.6276 -0.4999 0.5968
vn 0.4315 0.7222 0.5406
vn -0.4525 -0.7070 0.5434
vn 0.4326 0.7218 0.5402
vn -0.4526 -0.7069 0.5435
vn 0.4325 0.7218 0.5404
vn -0.7103 -0.4478 0.5430
vn 0.1610 0.8250 0.5417
vn -0.8329 -0.1117 0.5420
vn 0.5420 0.4998 0.6756
vn -0.8329 -0.1122 0.5419
vn 0.5430 0.4987 0.6756
vn -0.8349 0.1320 0.5344
vn 0.7524 -0.3298 0.5702
vn -0.8350 0.1320 0.5342
vn 0.7528 -0.3296 0.5698
vn -0.8256 -0.0679 0.5602
vn -0.1184 -0.6384 0.7605
vn -0.8255 -0.0688 0.5602
vn -0.1194 -0.6377 0.7609
vn -0.6273 -0.5007 -0.5965
vn -0.7652 0.2780 -0.5807
vn -0.7652 0.2778 -0.5807
vn -0.6277 -0.4999 -0.5968
vn -0.1595 0.7872 -0.5957
vn -0.4526 -0.7067 -0.5438
vn -0.4525 -0.7068 -0.5437
vn 0.4318 0.7218 -0.5409
vn -0.7103 -0.4478 -0.5430
vn 0.4315 0.7222 -0.5406
vn -0.7103 -0.4479 -0.5430
vn 0.4326 0.7219 -0.5402
vn -0.8330 -0.1121 -0.5418
vn 0.4325 0.7218 -0.5403
vn -0.8329 -0.1122 -0.5419
vn 0.1610 0.8250 -0.5417
vn -0.8349 0.1325 -0.5342
vn -0.8350 0.1320 -0.5341
vn 0.5420 0.4998 -0.6756
vn -0.8256 -0.0679 -0.5602
vn 0.5430 0.4987 -0.6756
vn -0.8255 -0.0688 -0.5602
vn 0.7524 -0.3298 -0.5702
vn -0.1184 -0.6384 -0.7605
vn 0.7528 -0.3296 -0.5698
vn -0.1194 -0.6377 -0.7609
vn -0.1985 0.9801 0.0004
vn -0.1987 0.9801 -0.0000
vn 0.5140 0.8578 0.0007
vn 0.5140 0.8578 0.0004
vn -0.9396 0.3423 0.0006
vn 0.5140 0.8578 0.0003
vn 0.5141 0.8578 -0.0000
vn -0.7822 -0.6230 -0.0000
vn 0.1902 0.9817 -0.0000
vn -0.5386 -0.8426 0.0006
vn 0.7385 0.6743 -0.0000
vn -0.5384 -0.8427 0.0004
vn 0.7382 0.6746 0.0006
vn -0.8461 -0.5330 0.0003
vn 0.9147 -0.4041 0.0007
vn 0.9147 -0.4042 0.0004
vn -0.9911 -0.1335 -0.0000
vn -0.1868 -0.9824 0.0006
vn -0.1868 -0.9824 0.0007
vn -0.9877 0.1560 -0.0000
vn -0.9968 -0.0806 0.0005
vn -0.9878 0.1559 0.0003
vn -0.9968 -0.0805 0.0005
vt 0.000000 0.000000
s 1
f 1/1/1 2/1/2 3/1/1
f 4/1/3 2/1/2 1/1/1
f 2/1/2 4/1/3 5/1/4
f 6/1/3 5/1/4 4/1/3
f 5/1/4 7/1/4 2/1/2
f 5/1/4 8/1/5 7/1/4
f 8/1/5 5/1/4 9/1/6
f 9/1/6 10/1/4 8/1/5
f 9/1/6 11/1/4 10/1/4
f 11/1/4 12/1/1 10/1/4
f 12/1/1 11/1/4 13/1/1
f 12/1/1 13/1/1 14/1/7
f 15/1/8 16/1/9 17/1/10
f 16/1/9 15/1/8 18/1/11
f 15/1/8 19/1/12 18/1/11
f 20/1/12 18/1/11 19/1/12
f 16/1/9 18/1/11 21/1/12
f 16/1/9 21/1/12 22/1/13
f 16/1/9 22/1/13 23/1/14
f 24/1/9 23/1/14 22/1/13
f 23/1/14 24/1/9 25/1/9
f 26/1/15 25/1/9 24/1/9
f 25/1/9 26/1/15 27/1/12
f 27/1/12 26/1/15 28/1/16
f 29/1/17 30/1/18 31/1/19
f 31/1/19 30/1/18 32/1/19
f 29/1/17 33/1/20 30/1/18
f 34/1/21 31/1/19 32/1/19
f 29/1/17 35/1/22 33/1/20
f 31/1/19 34/1/21 36/1/23
f 37/1/24 33/1/20 35/1/22
f 38/1/25 36/1/23 34/1/21
f 33/1/20 37/1/24 39/1/26
f 36/1/23 38/1/25 40/1/27
f 41/1/28 39/1/26 37/1/24
f 42/1/29 40/1/27 38/1/25
f 37/1/24 43/1/28 41/1/28
f 40/1/27 42/1/29 44/1/29
f 43/1/28 45/1/30 41/1/28
f 46/1/31 44/1/29 42/1/29
f 43/1/28 47/1/32 45/1/30
f 44/1/29 46/1/31 48/1/33
f 49/1/34 45/1/30 47/1/32
f 46/1/31 50/1/35 48/1/33
f 45/1/30 49/1/34 51/1/36
f 50/1/35 46/1/31 52/1/37
f 53/1/38 51/1/36 49/1/34
f 54/1/39 50/1/35 52/1/37
f 51/1/36 53/1/38 55/1/40
f 53/1/38 54/1/39 55/1/40
f 50/1/35 54/1/39 56/1/41
f 53/1/38 56/1/41 54/1/39
f 57/1/42 58/1/43 59/1/44
f 58/1/43 57/1/42 60/1/45
f 61/1/46 59/1/44 58/1/43
f 62/1/47 60/1/45 57/1/42
f 59/1/44 61/1/46 63/1/46
f 57/1/42 64/1/48 62/1/47
f 65/1/49 63/1/46 61/1/46
f 66/1/50 62/1/47 64/1/48
f 61/1/46 67/1/51 65/1/49
f 62/1/47 66/1/50 68/1/52
f 69/1/53 65/1/49 67/1/51
f 70/1/54 68/1/52 66/1/50
f 69/1/53 67/1/51 71/1/55
f 68/1/52 70/1/54 72/1/56
f 73/1/57 69/1/53 71/1/55
f 70/1/54 74/1/58 72/1/56
f 73/1/57 71/1/55 75/1/57
f 70/1/54 76/1/59 74/1/58
f 77/1/60 73/1/57 75/1/57
f 76/1/59 78/1/61 74/1/58
f 77/1/60 75/1/57 79/1/62
f 76/1/59 80/1/63 78/1/61
f 81/1/64 77/1/60 79/1/62
f 82/1/65 78/1/61 80/1/63
f 77/1/60 81/1/64 83/1/66
f 82/1/65 83/1/66 81/1/64
f 78/1/61 82/1/65 84/1/67
f 81/1/64 84/1/67 82/1/65
f 85/1/68 86/1/69 87/1/70
f 87/1/70 86/1/69 88/1/71
f 85/1/68 89/1/72 86/1/69
f 87/1/70 88/1/71 90/1/73
f 91/1/72 89/1/72 85/1/68
f 92/1/74 87/1/70 90/1/73
f 91/1/72 93/1/75 89/1/72
f 92/1/74 90/1/73 94/1/76
f 95/1/75 93/1/75 91/1/72
f 96/1/76 92/1/74 94/1/76
f 95/1/75 97/1/77 93/1/75
f 94/1/76 98/1/78 96/1/76
f 97/1/77 95/1/75 99/1/79
f 100/1/80 96/1/76 98/1/78
f 101/1/81 97/1/77 99/1/79
f 100/1/80 98/1/78 102/1/82
f 97/1/77 101/1/81 103/1/81
f 104/1/83 100/1/80 102/1/82
f 105/1/84 103/1/81 101/1/81
f 106/1/85 104/1/83 102/1/82
f 103/1/81 105/1/84 107/1/84
f 106/1/85 102/1/82 108/1/86
f 109/1/87 107/1/84 105/1/84
f 110/1/88 106/1/85 108/1/86
f 107/1/84 109/1/87 111/1/89
f 106/1/85 110/1/88 112/1/90
f 112/1/90 111/1/89 109/1/87
f 111/1/89 112/1/90 110/1/88
