# Blender 5.1.2
# www.blender.org
mtllib hammer.mtl
o RenderMesh_72365787510539
v -0.757902 -0.124449 0.020791
v -0.763080 -0.042955 0.020833
v -0.774065 -0.087742 0.020784
v -0.616236 0.019178 0.020778
v -0.720936 0.039560 0.020829
v -0.615624 0.035728 0.020763
v -0.759607 0.003700 0.020826
v -0.773166 0.041808 0.020826
v -0.762213 0.054579 0.020827
v -0.804613 0.073393 0.020826
v -0.801931 0.090264 0.020803
v -0.832153 0.083451 0.020761
v -0.826462 0.099087 0.020761
v -0.833354 0.092742 0.020767
v -0.616236 0.019178 -0.036632
v -0.720936 0.039560 -0.036682
v -0.615624 0.035728 -0.036617
v -0.763080 -0.042955 -0.036687
v -0.757902 -0.124449 -0.036645
v -0.774065 -0.087742 -0.036637
v -0.759607 0.003700 -0.036680
v -0.773166 0.041808 -0.036680
v -0.762213 0.054579 -0.036681
v -0.804613 0.073393 -0.036680
v -0.801931 0.090264 -0.036657
v -0.832153 0.083451 -0.036615
v -0.826462 0.099087 -0.036615
v -0.833354 0.092742 -0.036620
v -0.841617 0.095749 0.008396
v -0.833354 0.092742 0.020767
v -0.828298 0.108137 0.008396
v -0.826462 0.099087 0.020761
v -0.832153 0.083451 0.020761
v -0.801931 0.090264 0.020803
v -0.839377 0.077698 0.008396
v -0.797860 0.097058 0.008396
v -0.808938 0.066620 0.008396
v -0.762213 0.054579 0.020827
v -0.804613 0.073393 0.020826
v -0.758109 0.061427 0.008396
v -0.773166 0.041808 0.020826
v -0.720936 0.039560 0.020829
v -0.779966 0.037521 0.008396
v -0.719428 0.047349 0.008396
v -0.759607 0.003700 0.020826
v -0.615624 0.035728 0.020763
v -0.767550 0.002630 0.008396
v -0.607044 0.043562 0.008395
v -0.770845 -0.041728 0.008396
v -0.608631 0.015815 0.008395
v -0.763080 -0.042955 0.020833
v -0.616236 0.019178 0.020778
v -0.782228 -0.088399 0.008396
v -0.757902 -0.124449 0.020791
v -0.774065 -0.087742 0.020784
v -0.760725 -0.139299 0.008396
v -0.832153 0.083451 -0.036615
v -0.841617 0.095749 -0.024249
v -0.833354 0.092742 -0.036620
v -0.839377 0.077698 -0.024249
v -0.828298 0.108137 -0.024249
v -0.808938 0.066620 -0.024249
v -0.826462 0.099087 -0.036615
v -0.804613 0.073393 -0.036680
v -0.801931 0.090264 -0.036657
v -0.773166 0.041808 -0.036680
v -0.797860 0.097058 -0.024249
v -0.779966 0.037521 -0.024249
v -0.762213 0.054579 -0.036681
v -0.759607 0.003700 -0.036680
v -0.758109 0.061427 -0.024249
v -0.767550 0.002630 -0.024249
v -0.720936 0.039560 -0.036682
v -0.770845 -0.041728 -0.024249
v -0.719428 0.047349 -0.024249
v -0.763080 -0.042955 -0.036687
v -0.615624 0.035728 -0.036617
v -0.782228 -0.088399 -0.024249
v -0.607044 0.043562 -0.024249
v -0.774065 -0.087742 -0.036637
v -0.608631 0.015815 -0.024249
v -0.757902 -0.124449 -0.036645
v -0.616236 0.019178 -0.036632
v -0.760725 -0.139299 -0.024249
v -0.828298 0.108137 -0.024249
v -0.828298 0.108137 0.008396
v -0.797860 0.097058 -0.024249
v -0.797860 0.097058 0.008396
v -0.841617 0.095749 0.008396
v -0.758109 0.061427 0.008396
v -0.841617 0.095749 -0.024249
v -0.758109 0.061427 -0.024249
v -0.839377 0.077698 0.008396
v -0.719428 0.047349 0.008396
v -0.839377 0.077698 -0.024249
v -0.719428 0.047349 -0.024249
v -0.808938 0.066620 0.008396
v -0.607044 0.043562 0.008395
v -0.808938 0.066620 -0.024249
v -0.607044 0.043562 -0.024249
v -0.779966 0.037521 -0.024249
v -0.608631 0.015815 0.008395
v -0.779966 0.037521 0.008396
v -0.608631 0.015815 -0.024249
v -0.767550 0.002630 -0.024249
v -0.760725 -0.139299 -0.024249
v -0.767550 0.002630 0.008396
v -0.760725 -0.139299 0.008396
v -0.770845 -0.041728 -0.024249
v -0.782228 -0.088399 0.008396
v -0.770845 -0.041728 0.008396
v -0.782228 -0.088399 -0.024249
vn 0.0008 -0.0005 1.0000
vn 0.0006 -0.0004 1.0000
vn 0.0008 -0.0004 1.0000
vn 0.0007 -0.0004 1.0000
vn 0.0013 -0.0005 1.0000
vn 0.0007 -0.0003 -1.0000
vn 0.0008 -0.0005 -1.0000
vn 0.0008 -0.0004 -1.0000
vn 0.0006 -0.0004 -1.0000
vn 0.0007 -0.0005 -1.0000
vn 0.0007 -0.0004 -1.0000
vn -0.7652 0.2780 0.5807
vn -0.7652 0.2778 0.5807
vn -0.1595 0.7872 0.5957
vn -0.6273 -0.5007 0.5965
vn 0.4318 0.7218 0.5409
vn -0.6276 -0.4999 0.5968
vn 0.4315 0.7222 0.5406
vn -0.4525 -0.7070 0.5434
vn 0.4326 0.7218 0.5402
vn -0.4526 -0.7069 0.5436
vn 0.4327 0.7218 0.5401
vn -0.7103 -0.4478 0.5430
vn 0.1610 0.8250 0.5417
vn -0.8329 -0.1117 0.5420
vn 0.5420 0.4998 0.6756
vn -0.8329 -0.1122 0.5419
vn 0.5430 0.4987 0.6756
vn -0.8349 0.1323 0.5342
vn 0.7523 -0.3298 0.5702
vn -0.8350 0.1320 0.5342
vn 0.7528 -0.3296 0.5698
vn -0.8256 -0.0679 0.5602
vn -0.1184 -0.6384 0.7605
vn -0.8255 -0.0688 0.5602
vn -0.1194 -0.6377 0.7609
vn -0.6273 -0.5007 -0.5965
vn -0.7652 0.2780 -0.5807
vn -0.7652 0.2779 -0.5808
vn -0.6277 -0.4999 -0.5967
vn -0.1595 0.7872 -0.5957
vn -0.4526 -0.7068 -0.5438
vn -0.4525 -0.7068 -0.5437
vn 0.4318 0.7218 -0.5409
vn -0.7103 -0.4478 -0.5430
vn 0.4315 0.7222 -0.5406
vn -0.7103 -0.4479 -0.5430
vn 0.4326 0.7219 -0.5402
vn -0.8330 -0.1121 -0.5418
vn 0.4325 0.7218 -0.5403
vn -0.8329 -0.1122 -0.5419
vn 0.1610 0.8250 -0.5417
vn -0.8349 0.1325 -0.5342
vn -0.8350 0.1320 -0.5341
vn 0.5420 0.4998 -0.6756
vn -0.8256 -0.0679 -0.5602
vn 0.5430 0.4987 -0.6756
vn -0.8255 -0.0688 -0.5602
vn 0.7523 -0.3298 -0.5702
vn -0.1184 -0.6384 -0.7605
vn 0.7528 -0.3296 -0.5698
vn -0.1194 -0.6377 -0.7609
vn -0.1985 0.9801 0.0004
vn -0.1986 0.9801 0.0003
vn 0.5140 0.8578 0.0006
vn 0.5140 0.8578 0.0005
vn -0.9396 0.3423 0.0006
vn 0.5140 0.8578 0.0003
vn -0.7822 -0.6230 -0.0000
vn 0.1903 0.9817 0.0003
vn -0.7821 -0.6231 0.0005
vn 0.1902 0.9817 -0.0000
vn -0.5386 -0.8426 0.0006
vn 0.7382 0.6745 0.0005
vn -0.5385 -0.8426 0.0005
vn 0.7382 0.6746 0.0006
vn -0.8462 -0.5329 0.0005
vn 0.9147 -0.4041 0.0006
vn 0.9147 -0.4041 0.0005
vn -0.9911 -0.1334 0.0003
vn -0.1868 -0.9824 0.0005
vn -0.1868 -0.9824 0.0007
vn -0.9878 0.1559 0.0003
vn -0.9968 -0.0806 0.0005
vn -0.9878 0.1558 0.0005
vn -0.9968 -0.0805 0.0004
vt 0.000000 0.000000
s 1
f 1/1/1 2/1/2 3/1/1
f 4/1/3 2/1/2 1/1/1
f 2/1/2 4/1/3 5/1/1
f 6/1/3 5/1/1 4/1/3
f 5/1/1 7/1/4 2/1/2
f 5/1/1 8/1/2 7/1/4
f 8/1/2 5/1/1 9/1/4
f 9/1/4 10/1/4 8/1/2
f 9/1/4 11/1/4 10/1/4
f 11/1/4 12/1/1 10/1/4
f 12/1/1 11/1/4 13/1/1
f 12/1/1 13/1/1 14/1/5
f 15/1/6 16/1/7 17/1/8
f 16/1/7 15/1/6 18/1/9
f 15/1/6 19/1/10 18/1/9
f 20/1/10 18/1/9 19/1/10
f 16/1/7 18/1/9 21/1/10
f 16/1/7 21/1/10 22/1/9
f 16/1/7 22/1/9 23/1/9
f 24/1/11 23/1/9 22/1/9
f 23/1/9 24/1/11 25/1/11
f 26/1/7 25/1/11 24/1/11
f 25/1/11 26/1/7 27/1/10
f 27/1/10 26/1/7 28/1/7
f 29/1/12 30/1/13 31/1/14
f 31/1/14 30/1/13 32/1/14
f 29/1/12 33/1/15 30/1/13
f 34/1/16 31/1/14 32/1/14
f 29/1/12 35/1/17 33/1/15
f 31/1/14 34/1/16 36/1/18
f 37/1/19 33/1/15 35/1/17
f 38/1/20 36/1/18 34/1/16
f 33/1/15 37/1/19 39/1/21
f 36/1/18 38/1/20 40/1/22
f 41/1/23 39/1/21 37/1/19
f 42/1/24 40/1/22 38/1/20
f 37/1/19 43/1/23 41/1/23
f 40/1/22 42/1/24 44/1/24
f 43/1/23 45/1/25 41/1/23
f 46/1/26 44/1/24 42/1/24
f 43/1/23 47/1/27 45/1/25
f 44/1/24 46/1/26 48/1/28
f 49/1/29 45/1/25 47/1/27
f 46/1/26 50/1/30 48/1/28
f 45/1/25 49/1/29 51/1/31
f 50/1/30 46/1/26 52/1/32
f 53/1/33 51/1/31 49/1/29
f 54/1/34 50/1/30 52/1/32
f 51/1/31 53/1/33 55/1/35
f 53/1/33 54/1/34 55/1/35
f 50/1/30 54/1/34 56/1/36
f 53/1/33 56/1/36 54/1/34
f 57/1/37 58/1/38 59/1/39
f 58/1/38 57/1/37 60/1/40
f 61/1/41 59/1/39 58/1/38
f 62/1/42 60/1/40 57/1/37
f 59/1/39 61/1/41 63/1/41
f 57/1/37 64/1/43 62/1/42
f 65/1/44 63/1/41 61/1/41
f 66/1/45 62/1/42 64/1/43
f 61/1/41 67/1/46 65/1/44
f 62/1/42 66/1/45 68/1/47
f 69/1/48 65/1/44 67/1/46
f 70/1/49 68/1/47 66/1/45
f 69/1/48 67/1/46 71/1/50
f 68/1/47 70/1/49 72/1/51
f 73/1/52 69/1/48 71/1/50
f 70/1/49 74/1/53 72/1/51
f 73/1/52 71/1/50 75/1/52
f 70/1/49 76/1/54 74/1/53
f 77/1/55 73/1/52 75/1/52
f 76/1/54 78/1/56 74/1/53
f 77/1/55 75/1/52 79/1/57
f 76/1/54 80/1/58 78/1/56
f 81/1/59 77/1/55 79/1/57
f 82/1/60 78/1/56 80/1/58
f 77/1/55 81/1/59 83/1/61
f 82/1/60 83/1/61 81/1/59
f 78/1/56 82/1/60 84/1/62
f 81/1/59 84/1/62 82/1/60
f 85/1/63 86/1/64 87/1/65
f 87/1/65 86/1/64 88/1/66
f 85/1/63 89/1/67 86/1/64
f 87/1/65 88/1/66 90/1/66
f 91/1/67 89/1/67 85/1/63
f 92/1/68 87/1/65 90/1/66
f 91/1/67 93/1/69 89/1/67
f 92/1/68 90/1/66 94/1/70
f 95/1/71 93/1/69 91/1/67
f 96/1/72 92/1/68 94/1/70
f 95/1/71 97/1/73 93/1/69
f 94/1/70 98/1/74 96/1/72
f 97/1/73 95/1/71 99/1/75
f 100/1/76 96/1/72 98/1/74
f 101/1/77 97/1/73 99/1/75
f 100/1/76 98/1/74 102/1/78
f 97/1/73 101/1/77 103/1/77
f 104/1/79 100/1/76 102/1/78
f 105/1/80 103/1/77 101/1/77
f 106/1/81 104/1/79 102/1/78
f 103/1/77 105/1/80 107/1/80
f 106/1/81 102/1/78 108/1/82
f 109/1/83 107/1/80 105/1/80
f 110/1/84 106/1/81 108/1/82
f 107/1/80 109/1/83 111/1/85
f 106/1/81 110/1/84 112/1/86
f 112/1/86 111/1/85 109/1/83
f 111/1/85 112/1/86 110/1/84
