# Blender 5.1.2
# www.blender.org
mtllib lesgingerbreadsniperbolt.mtl
o RenderMesh_90430151499408
v -0.751481 -0.069875 0.114464
v -0.751481 -0.069875 0.235641
v -0.751481 -0.009288 0.089368
v -0.751481 -0.094973 0.175053
v -0.751481 0.051300 0.235641
v -0.751481 -0.009288 0.260738
v -0.751481 0.051300 0.114464
v -0.751481 0.076398 0.175053
v 0.052739 -0.109949 0.175053
v 0.052739 0.097341 0.175053
v 0.052739 -0.079592 0.248341
v 0.052739 -0.006304 0.278698
v 0.052739 0.066985 0.248341
v 0.052739 -0.079592 0.101765
v 0.052739 -0.006304 0.071408
v 0.052739 0.066985 0.101765
v 0.029026 0.005454 -0.080740
v 0.036569 -0.002769 -0.075080
v 0.036163 -0.001764 -0.080230
v 0.041222 -0.010668 -0.079678
v 0.036776 -0.003280 -0.085232
v 0.030207 0.002537 -0.090358
v 0.020267 0.010579 -0.081177
v 0.021933 0.006462 -0.094755
v 0.010480 0.013267 -0.081513
v 0.038246 -0.006914 -0.088746
v 0.033032 -0.004446 -0.097114
v 0.012518 0.008230 -0.098126
v 0.002603 0.007721 -0.100244
v 0.025921 -0.003397 -0.104292
v 0.040178 -0.011687 -0.089830
v 0.036746 -0.013625 -0.099198
v 0.042054 -0.016325 -0.088194
v 0.043371 -0.019582 -0.084275
v 0.043778 -0.020587 -0.079125
v 0.040353 -0.022542 -0.096051
v 0.031164 -0.016356 -0.107234
v 0.042887 -0.028804 -0.088518
v 0.043668 -0.030736 -0.078616
v 0.036256 -0.028942 -0.102793
v 0.023814 -0.019691 -0.113397
v 0.039833 -0.037784 -0.092158
v 0.040937 -0.040511 -0.078178
v 0.034422 -0.045911 -0.094948
v 0.030045 -0.035092 -0.107962
v -0.085349 -0.079592 0.101765
v -0.085349 0.097341 0.175053
v -0.085349 -0.006304 0.071408
v -0.085349 0.066985 0.101765
v -0.085349 -0.109949 0.175053
v -0.085349 -0.079592 0.248341
v -0.085349 -0.006304 0.278698
v -0.085349 0.066985 0.248341
v 0.022142 -0.040575 -0.111209
v 0.017399 -0.003835 -0.109796
v 0.015196 -0.023404 -0.117268
v 0.008044 -0.005728 -0.113255
v -0.001510 -0.008948 -0.114434
v 0.005893 -0.027247 -0.118588
v -0.010616 -0.013276 -0.113255
v 0.013083 -0.045018 -0.112317
v -0.003464 -0.030954 -0.117268
v 0.003482 -0.048123 -0.111209
v 0.008362 -0.060185 -0.096702
v -0.018656 -0.018422 -0.109796
v -0.001633 -0.060498 -0.094948
v -0.006010 -0.049679 -0.107962
v -0.000283 -0.063834 -0.077843
v -0.012241 -0.034278 -0.113397
v -0.014750 -0.049578 -0.102793
v -0.011173 -0.058419 -0.092158
v -0.025085 -0.024033 -0.104292
v -0.029074 -0.014174 -0.094755
v -0.019842 -0.036992 -0.107234
v -0.032291 -0.022747 -0.090358
v -0.033471 -0.019830 -0.080740
v -0.029466 -0.029732 -0.097114
v -0.025752 -0.038911 -0.099198
v -0.022145 -0.047827 -0.096051
v -0.031498 -0.035129 -0.088746
v -0.029566 -0.039904 -0.089830
v -0.032967 -0.031498 -0.085232
v -0.031025 -0.039899 -0.079678
v -0.027690 -0.044540 -0.088194
v -0.033581 -0.029980 -0.080230
v -0.032689 -0.021763 -0.070838
v -0.033174 -0.030986 -0.075080
v -0.030156 -0.028026 -0.063304
v -0.031856 -0.034243 -0.071162
v -0.026549 -0.036942 -0.060158
v -0.029980 -0.038880 -0.069526
v -0.022835 -0.046120 -0.062242
v -0.015724 -0.047171 -0.055063
v -0.028049 -0.043653 -0.070610
v -0.011736 -0.057030 -0.064601
v -0.002321 -0.058796 -0.061230
v -0.020009 -0.053105 -0.068998
v -0.010070 -0.061147 -0.078178
v -0.026580 -0.047286 -0.074123
v -0.018829 -0.056022 -0.078616
v -0.025966 -0.048802 -0.079125
v -0.026372 -0.047799 -0.084275
v -0.019611 -0.054089 -0.088518
v -0.085349 -0.006304 0.278698
v 0.052739 -0.006304 0.278698
v 0.052739 0.066985 0.248341
v -0.085349 -0.079592 0.248341
v -0.085349 0.066985 0.248341
v 0.052739 -0.079592 0.248341
v 0.052739 0.097341 0.175053
v -0.085349 -0.109949 0.175053
v -0.085349 0.097341 0.175053
v 0.052739 -0.109949 0.175053
v 0.052739 0.066985 0.101765
v -0.085349 -0.079592 0.101765
v -0.085349 0.066985 0.101765
v 0.052739 -0.079592 0.101765
v 0.052739 -0.006304 0.071408
v -0.085349 -0.006304 0.071408
v 0.001836 0.009618 -0.062654
v 0.006715 -0.002443 -0.048146
v 0.011830 0.009931 -0.064407
v 0.016207 -0.000889 -0.051394
v 0.024947 -0.000990 -0.056563
v 0.013661 -0.019613 -0.042087
v 0.022438 -0.016289 -0.045959
v 0.004304 -0.023321 -0.040767
v 0.028853 -0.032146 -0.049559
v -0.002886 -0.005549 -0.047039
v 0.020813 -0.037290 -0.046101
v -0.007937 0.006936 -0.062056
v 0.033734 -0.044209 -0.061230
v -0.016824 0.002068 -0.062654
v 0.000330 0.013338 -0.081723
v -0.011945 -0.009992 -0.048146
v -0.009495 0.010787 -0.081795
v -0.024225 -0.004656 -0.064407
v -0.018329 0.005789 -0.081723
v -0.007143 0.004973 -0.100967
v -0.016057 0.000171 -0.100244
v -0.023537 -0.006358 -0.098126
v -0.025575 -0.001320 -0.081513
v -0.030740 -0.010056 -0.081177
v -0.029636 -0.012784 -0.067198
v -0.019848 -0.015476 -0.051394
v -0.004998 -0.027161 -0.042087
v -0.026059 -0.021626 -0.056563
v -0.013617 -0.030876 -0.045959
v 0.002153 -0.044839 -0.046101
v -0.007202 -0.046733 -0.049559
v -0.020967 -0.034211 -0.052121
v 0.011708 -0.041619 -0.044922
v 0.007594 -0.058289 -0.059111
v 0.026254 -0.050739 -0.059111
v 0.017340 -0.055540 -0.058389
v 0.009867 -0.063904 -0.077632
v 0.019692 -0.061354 -0.077561
v 0.028527 -0.056356 -0.077632
v 0.018134 -0.057503 -0.097300
v 0.035772 -0.049247 -0.077843
v 0.027021 -0.052635 -0.096702
v 0.039271 -0.036394 -0.064601
v 0.035282 -0.026535 -0.055063
v 0.030040 -0.013575 -0.052121
v 0.042488 -0.027820 -0.068998
v 0.039663 -0.020836 -0.062242
v 0.035949 -0.011657 -0.060158
v 0.043164 -0.019070 -0.074123
v 0.041695 -0.015438 -0.070610
v 0.039763 -0.010663 -0.069526
v 0.032342 -0.002741 -0.063304
v 0.037887 -0.006027 -0.071162
v 0.021370 0.007853 -0.067198
v 0.029808 0.003522 -0.070838
v -0.003464 0.028638 -0.001362
v 0.013885 0.062335 0.116989
v 0.033400 0.042221 0.116764
v -0.014736 0.039133 -0.007069
v -0.003799 0.013073 0.004577
v 0.033141 0.014312 0.116919
v -0.014200 0.062805 0.117516
v 0.013355 -0.005361 0.117404
v 0.013869 -0.016785 -0.067546
v 0.005957 -0.009771 -0.073951
v 0.013038 -0.027366 -0.061262
v -0.006060 -0.010460 -0.076710
v -0.016018 0.001697 0.007292
v 0.004005 -0.035345 -0.058759
v -0.014773 -0.005316 0.118037
v -0.008012 -0.036097 -0.061504
v -0.030975 0.038719 -0.009317
v -0.042873 0.027702 -0.006710
v -0.015148 -0.018446 -0.074231
v -0.034398 0.043191 0.118092
v -0.043576 0.012441 -0.000731
v -0.015981 -0.029088 -0.067932
v -0.034711 0.014874 0.118354
v -0.032607 0.001628 0.005077
v -0.751481 -0.069875 0.235641
v -0.073591 -0.069875 0.235641
v -0.073591 -0.009288 0.260738
v -0.751481 -0.094973 0.175053
v -0.751481 -0.009288 0.260738
v -0.073591 -0.094973 0.175053
v -0.073591 0.051300 0.235641
v -0.751481 -0.069875 0.114464
v -0.751481 0.051300 0.235641
v -0.073591 -0.069875 0.114464
v -0.073591 0.076398 0.175053
v -0.751481 -0.009288 0.089368
v -0.751481 0.076398 0.175053
v -0.073591 -0.009288 0.089368
v -0.073591 0.051300 0.114464
v -0.751481 0.051300 0.114464
vn -1.0000 0.0005 0.0005
vn 1.0000 0.0005 0.0005
vn 1.0000 0.0003 0.0003
vn 0.6012 0.7986 -0.0278
vn 0.7966 0.5915 0.1245
vn 0.7865 0.6174 -0.0152
vn 0.9271 0.3749 0.0004
vn 0.8019 0.5781 -0.1510
vn 0.6307 0.7227 -0.2827
vn 0.3778 0.9250 -0.0396
vn 0.4196 0.8172 -0.3952
vn 0.1295 0.9904 -0.0484
vn 0.8405 0.4800 -0.2515
vn 0.7029 0.5387 -0.4645
vn 0.1821 0.8570 -0.4820
vn -0.0669 0.8405 -0.5377
vn 0.5206 0.5597 -0.6447
vn 0.8943 0.3453 -0.2847
vn 0.8011 0.2937 -0.5215
vn 0.9479 0.2154 -0.2349
vn 0.9838 0.1285 -0.1247
vn 0.9946 0.1031 0.0152
vn 0.8985 0.0572 -0.4353
vn 0.6552 0.2233 -0.7217
vn 0.9667 -0.1060 -0.2330
vn 0.9874 -0.1558 0.0278
vn 0.7893 -0.1021 -0.6055
vn 0.4675 0.1392 -0.8730
vn 0.8846 -0.3317 -0.3278
vn 0.9148 -0.4020 0.0396
vn 0.7449 -0.5339 -0.4001
vn 0.6287 -0.2535 -0.7352
vn -1.0000 0.0003 0.0003
vn 0.4275 -0.3864 -0.8173
vn 0.3054 0.5429 -0.7823
vn 0.2507 0.0464 -0.9670
vn 0.0718 0.4910 -0.8682
vn -0.1655 0.4097 -0.8971
vn 0.0200 -0.0484 -0.9986
vn -0.3932 0.3034 -0.8680
vn 0.2007 -0.4967 -0.8444
vn -0.2126 -0.1412 -0.9669
vn -0.0386 -0.5756 -0.8168
vn 0.0875 -0.8907 -0.4461
vn -0.5974 0.1773 -0.7821
vn -0.1637 -0.9017 -0.4003
vn -0.2752 -0.6192 -0.7355
vn -0.1295 -0.9904 0.0484
vn -0.4324 -0.2252 -0.8731
vn -0.4961 -0.6222 -0.6056
vn -0.4050 -0.8535 -0.3278
vn -0.7636 0.0405 -0.6444
vn -0.8698 0.2955 -0.3951
vn -0.6259 -0.2956 -0.7217
vn -0.9558 0.0809 -0.2827
vn -0.9874 0.1559 -0.0279
vn -0.8797 -0.1021 -0.4645
vn -0.7800 -0.3463 -0.5212
vn -0.6854 -0.5838 -0.4352
vn -0.9378 -0.2390 -0.2517
vn -0.8827 -0.3737 -0.2848
vn -0.9783 -0.1421 -0.1510
vn -0.9271 -0.3748 0.0006
vn -0.8308 -0.5045 -0.2349
vn -0.9946 -0.1031 -0.0152
vn -0.9667 0.1060 0.2331
vn -0.9838 -0.1285 0.1246
vn -0.8985 -0.0572 0.4353
vn -0.9479 -0.2154 0.2349
vn -0.8011 -0.2937 0.5215
vn -0.8943 -0.3453 0.2847
vn -0.7028 -0.5387 0.4645
vn -0.5206 -0.5597 0.6447
vn -0.8404 -0.4800 0.2515
vn -0.4196 -0.8172 0.3952
vn -0.1822 -0.8570 0.4820
vn -0.6307 -0.7227 0.2827
vn -0.3777 -0.9251 0.0396
vn -0.8019 -0.5781 0.1510
vn -0.6012 -0.7986 0.0278
vn -0.7865 -0.6174 0.0152
vn -0.7966 -0.5915 -0.1246
vn -0.6210 -0.7483 -0.2332
vn 0.0005 0.0005 1.0000
vn 0.0005 0.6913 0.7226
vn 0.0005 -0.6913 0.7226
vn 0.0005 1.0000 0.0005
vn 0.0005 -1.0000 0.0005
vn 0.0005 0.6913 -0.7226
vn 0.0005 -0.6913 -0.7226
vn 0.0005 0.0005 -1.0000
vn -0.0875 0.8907 0.4461
vn 0.0386 0.5756 0.8168
vn 0.1637 0.9017 0.4002
vn 0.2751 0.6192 0.7355
vn 0.4961 0.6222 0.6056
vn 0.2126 0.1412 0.9669
vn 0.4324 0.2252 0.8731
vn -0.0200 0.0484 0.9986
vn 0.5974 -0.1773 0.7821
vn -0.2007 0.4967 0.8444
vn 0.3932 -0.3033 0.8680
vn -0.3327 0.8223 0.4617
vn 0.7267 -0.4892 0.4823
vn -0.5564 0.7010 0.4460
vn -0.1267 0.9905 -0.0532
vn -0.4274 0.3864 0.8173
vn -0.3746 0.9256 -0.0550
vn -0.7449 0.5339 0.4000
vn -0.5976 0.8000 -0.0532
vn -0.3121 0.7702 -0.5563
vn -0.5358 0.6510 -0.5377
vn -0.7267 0.4892 -0.4823
vn -0.7814 0.6221 -0.0483
vn -0.9148 0.4020 -0.0396
vn -0.8846 0.3317 0.3278
vn -0.6287 0.2535 0.7351
vn -0.2507 -0.0464 0.9670
vn -0.7893 0.1021 0.6055
vn -0.4675 -0.1392 0.8730
vn -0.0718 -0.4910 0.8682
vn -0.3054 -0.5429 0.7823
vn -0.6552 -0.2233 0.7217
vn 0.1655 -0.4097 0.8971
vn 0.0669 -0.8405 0.5377
vn 0.5358 -0.6510 0.5377
vn 0.3121 -0.7702 0.5563
vn 0.1266 -0.9905 0.0533
vn 0.3746 -0.9255 0.0561
vn 0.5976 -0.8000 0.0532
vn 0.3327 -0.8223 -0.4617
vn 0.7814 -0.6222 0.0483
vn 0.5564 -0.7010 -0.4460
vn 0.8698 -0.2955 0.3951
vn 0.7636 -0.0405 0.6444
vn 0.6259 0.2956 0.7217
vn 0.9558 -0.0805 0.2828
vn 0.8797 0.1021 0.4645
vn 0.7800 0.3463 0.5212
vn 0.9783 0.1421 0.1509
vn 0.9378 0.2390 0.2517
vn 0.8827 0.3737 0.2848
vn 0.6854 0.5838 0.4352
vn 0.8308 0.5045 0.2349
vn 0.4050 0.8535 0.3278
vn 0.6211 0.7483 0.2332
vn 0.8940 0.4101 -0.1804
vn 0.4078 0.8749 -0.2613
vn 0.8922 0.3209 -0.3179
vn 0.3492 0.8680 -0.3532
vn 0.9369 -0.3475 0.0396
vn 0.8780 -0.3875 -0.2810
vn -0.3365 0.9325 -0.1314
vn 0.3970 -0.9038 -0.1597
vn 0.9181 0.3953 -0.0288
vn 0.4169 0.7902 -0.4491
vn 0.8834 -0.2623 0.3883
vn -0.2858 0.7197 -0.6327
vn 0.3375 -0.9216 0.1918
vn 0.3268 -0.7784 0.5360
vn -0.3581 -0.9337 -0.0024
vn -0.4267 -0.8451 0.3221
vn -0.3681 0.8373 -0.4042
vn -0.8948 0.3563 -0.2693
vn -0.8234 0.2497 -0.5096
vn -0.9031 0.4293 0.0093
vn -0.9444 -0.3278 -0.0249
vn -0.9076 -0.4008 -0.1245
vn -0.9288 -0.3630 0.0748
vn -0.4674 -0.8689 0.1626
vt 0.000000 0.000000
s 1
f 1/1/1 2/1/1 3/1/1
f 2/1/1 1/1/1 4/1/1
f 2/1/1 5/1/1 3/1/1
f 5/1/1 2/1/1 6/1/1
f 5/1/1 7/1/1 3/1/1
f 7/1/1 5/1/1 8/1/1
f 9/1/2 10/1/3 11/1/2
f 11/1/2 10/1/3 12/1/2
f 12/1/2 10/1/3 13/1/2
f 10/1/3 9/1/2 14/1/2
f 15/1/2 10/1/3 14/1/2
f 10/1/3 15/1/2 16/1/2
f 17/1/4 18/1/5 19/1/6
f 18/1/5 20/1/7 19/1/6
f 21/1/8 17/1/4 19/1/6
f 19/1/6 20/1/7 21/1/8
f 22/1/9 23/1/10 17/1/4
f 17/1/4 21/1/8 22/1/9
f 23/1/10 22/1/9 24/1/11
f 24/1/11 25/1/12 23/1/10
f 26/1/13 22/1/9 21/1/8
f 21/1/8 20/1/7 26/1/13
f 27/1/14 24/1/11 22/1/9
f 22/1/9 26/1/13 27/1/14
f 25/1/12 24/1/11 28/1/15
f 29/1/16 25/1/12 28/1/15
f 24/1/11 27/1/14 30/1/17
f 30/1/17 28/1/15 24/1/11
f 27/1/14 26/1/13 31/1/18
f 26/1/13 20/1/7 31/1/18
f 32/1/19 27/1/14 31/1/18
f 27/1/14 32/1/19 30/1/17
f 31/1/18 20/1/7 33/1/20
f 32/1/19 31/1/18 33/1/20
f 33/1/20 20/1/7 34/1/21
f 34/1/21 20/1/7 35/1/22
f 33/1/20 36/1/23 32/1/19
f 34/1/21 36/1/23 33/1/20
f 37/1/24 30/1/17 32/1/19
f 37/1/24 32/1/19 36/1/23
f 35/1/22 38/1/25 34/1/21
f 36/1/23 34/1/21 38/1/25
f 38/1/25 35/1/22 39/1/26
f 40/1/27 37/1/24 36/1/23
f 38/1/25 40/1/27 36/1/23
f 41/1/28 30/1/17 37/1/24
f 37/1/24 40/1/27 41/1/28
f 39/1/26 42/1/29 38/1/25
f 40/1/27 38/1/25 42/1/29
f 42/1/29 39/1/26 43/1/30
f 43/1/30 44/1/31 42/1/29
f 42/1/29 45/1/32 40/1/27
f 45/1/32 42/1/29 44/1/31
f 45/1/32 41/1/28 40/1/27
f 46/1/1 47/1/33 48/1/1
f 48/1/1 47/1/33 49/1/1
f 50/1/1 47/1/33 46/1/1
f 47/1/33 50/1/1 51/1/1
f 52/1/1 47/1/33 51/1/1
f 47/1/33 52/1/1 53/1/1
f 54/1/34 45/1/32 44/1/31
f 30/1/17 41/1/28 55/1/35
f 28/1/15 30/1/17 55/1/35
f 41/1/28 45/1/32 56/1/36
f 54/1/34 56/1/36 45/1/32
f 56/1/36 55/1/35 41/1/28
f 57/1/37 28/1/15 55/1/35
f 55/1/35 56/1/36 57/1/37
f 28/1/15 57/1/37 29/1/16
f 58/1/38 29/1/16 57/1/37
f 59/1/39 57/1/37 56/1/36
f 57/1/37 59/1/39 58/1/38
f 56/1/36 54/1/34 59/1/39
f 58/1/38 59/1/39 60/1/40
f 61/1/41 59/1/39 54/1/34
f 62/1/42 60/1/40 59/1/39
f 63/1/43 59/1/39 61/1/41
f 59/1/39 63/1/43 62/1/42
f 61/1/41 64/1/44 63/1/43
f 60/1/40 62/1/42 65/1/45
f 66/1/46 63/1/43 64/1/44
f 67/1/47 62/1/42 63/1/43
f 63/1/43 66/1/46 67/1/47
f 64/1/44 68/1/48 66/1/46
f 62/1/42 67/1/47 69/1/49
f 69/1/49 65/1/45 62/1/42
f 67/1/47 66/1/46 70/1/50
f 70/1/50 69/1/49 67/1/47
f 66/1/46 68/1/48 71/1/51
f 70/1/50 66/1/46 71/1/51
f 65/1/45 69/1/49 72/1/52
f 73/1/53 65/1/45 72/1/52
f 69/1/49 70/1/50 74/1/54
f 74/1/54 72/1/52 69/1/49
f 73/1/53 72/1/52 75/1/55
f 75/1/55 76/1/56 73/1/53
f 72/1/52 74/1/54 77/1/57
f 75/1/55 72/1/52 77/1/57
f 70/1/50 78/1/58 74/1/54
f 77/1/57 74/1/54 78/1/58
f 78/1/58 70/1/50 79/1/59
f 79/1/59 70/1/50 71/1/51
f 77/1/57 78/1/58 80/1/60
f 79/1/59 81/1/61 78/1/58
f 80/1/60 78/1/58 81/1/61
f 82/1/62 77/1/57 80/1/60
f 82/1/62 75/1/55 77/1/57
f 83/1/63 80/1/60 81/1/61
f 83/1/63 82/1/62 80/1/60
f 81/1/61 79/1/59 84/1/64
f 83/1/63 81/1/61 84/1/64
f 75/1/55 82/1/62 85/1/65
f 85/1/65 76/1/56 75/1/55
f 83/1/63 85/1/65 82/1/62
f 85/1/65 86/1/66 76/1/56
f 86/1/66 85/1/65 87/1/67
f 83/1/63 87/1/67 85/1/65
f 87/1/67 88/1/68 86/1/66
f 88/1/68 87/1/67 89/1/69
f 83/1/63 89/1/69 87/1/67
f 89/1/69 90/1/70 88/1/68
f 90/1/70 89/1/69 91/1/71
f 83/1/63 91/1/71 89/1/69
f 91/1/71 92/1/72 90/1/70
f 93/1/73 90/1/70 92/1/72
f 92/1/72 91/1/71 94/1/74
f 83/1/63 94/1/74 91/1/71
f 92/1/72 95/1/75 93/1/73
f 96/1/76 93/1/73 95/1/75
f 95/1/75 68/1/48 96/1/76
f 95/1/75 92/1/72 97/1/77
f 94/1/74 97/1/77 92/1/72
f 68/1/48 95/1/75 98/1/78
f 97/1/77 98/1/78 95/1/75
f 71/1/51 68/1/48 98/1/78
f 97/1/77 94/1/74 99/1/79
f 83/1/63 99/1/79 94/1/74
f 98/1/78 97/1/77 100/1/80
f 99/1/79 100/1/80 97/1/77
f 83/1/63 101/1/81 99/1/79
f 100/1/80 99/1/79 101/1/81
f 83/1/63 102/1/82 101/1/81
f 102/1/82 100/1/80 101/1/81
f 83/1/63 84/1/64 102/1/82
f 103/1/83 98/1/78 100/1/80
f 71/1/51 98/1/78 103/1/83
f 103/1/83 100/1/80 102/1/82
f 103/1/83 102/1/82 84/1/64
f 103/1/83 79/1/59 71/1/51
f 84/1/64 79/1/59 103/1/83
f 104/1/84 105/1/84 106/1/85
f 107/1/86 105/1/84 104/1/84
f 104/1/84 106/1/85 108/1/85
f 107/1/86 109/1/86 105/1/84
f 110/1/87 108/1/85 106/1/85
f 111/1/88 109/1/86 107/1/86
f 110/1/87 112/1/87 108/1/85
f 111/1/88 113/1/88 109/1/86
f 114/1/89 112/1/87 110/1/87
f 115/1/90 113/1/88 111/1/88
f 114/1/89 116/1/89 112/1/87
f 115/1/90 117/1/90 113/1/88
f 116/1/89 114/1/89 118/1/91
f 119/1/91 117/1/90 115/1/90
f 116/1/89 118/1/91 119/1/91
f 119/1/91 118/1/91 117/1/90
f 120/1/92 121/1/93 122/1/94
f 121/1/93 123/1/95 122/1/94
f 124/1/96 122/1/94 123/1/95
f 125/1/97 123/1/95 121/1/93
f 126/1/98 124/1/96 123/1/95
f 123/1/95 125/1/97 126/1/98
f 121/1/93 127/1/99 125/1/97
f 125/1/97 128/1/100 126/1/98
f 127/1/99 121/1/93 129/1/101
f 129/1/101 121/1/93 120/1/92
f 127/1/99 130/1/102 125/1/97
f 128/1/100 125/1/97 130/1/102
f 131/1/103 129/1/101 120/1/92
f 130/1/102 132/1/104 128/1/100
f 133/1/105 129/1/101 131/1/103
f 134/1/106 131/1/103 120/1/92
f 129/1/101 133/1/105 135/1/107
f 135/1/107 127/1/99 129/1/101
f 136/1/108 133/1/105 131/1/103
f 136/1/108 131/1/103 134/1/106
f 137/1/109 135/1/107 133/1/105
f 138/1/110 133/1/105 136/1/108
f 138/1/110 137/1/109 133/1/105
f 134/1/106 120/1/92 25/1/12
f 25/1/12 120/1/92 122/1/94
f 134/1/106 139/1/111 136/1/108
f 136/1/108 140/1/112 138/1/110
f 140/1/112 136/1/108 139/1/111
f 139/1/111 134/1/106 29/1/16
f 25/1/12 29/1/16 134/1/106
f 139/1/111 58/1/38 140/1/112
f 29/1/16 58/1/38 139/1/111
f 141/1/113 138/1/110 140/1/112
f 60/1/40 140/1/112 58/1/38
f 141/1/113 140/1/112 60/1/40
f 138/1/110 141/1/113 142/1/114
f 142/1/114 137/1/109 138/1/110
f 143/1/115 142/1/114 141/1/113
f 143/1/115 137/1/109 142/1/114
f 65/1/45 141/1/113 60/1/40
f 73/1/53 143/1/115 141/1/113
f 141/1/113 65/1/45 73/1/53
f 76/1/56 143/1/115 73/1/53
f 137/1/109 143/1/115 144/1/116
f 76/1/56 144/1/116 143/1/115
f 144/1/116 145/1/117 137/1/109
f 135/1/107 137/1/109 145/1/117
f 144/1/116 76/1/56 86/1/66
f 145/1/117 146/1/118 135/1/107
f 127/1/99 135/1/107 146/1/118
f 145/1/117 144/1/116 147/1/119
f 86/1/66 147/1/119 144/1/116
f 146/1/118 145/1/117 148/1/120
f 147/1/119 148/1/120 145/1/117
f 149/1/121 127/1/99 146/1/118
f 150/1/122 146/1/118 148/1/120
f 146/1/118 150/1/122 149/1/121
f 150/1/122 148/1/120 93/1/73
f 148/1/120 147/1/119 151/1/123
f 93/1/73 148/1/120 151/1/123
f 88/1/68 151/1/123 147/1/119
f 147/1/119 86/1/66 88/1/68
f 151/1/123 88/1/68 90/1/70
f 90/1/70 93/1/73 151/1/123
f 96/1/76 149/1/121 150/1/122
f 93/1/73 96/1/76 150/1/122
f 127/1/99 149/1/121 152/1/124
f 130/1/102 127/1/99 152/1/124
f 149/1/121 96/1/76 153/1/125
f 153/1/125 152/1/124 149/1/121
f 152/1/124 154/1/126 130/1/102
f 152/1/124 153/1/125 155/1/127
f 154/1/126 152/1/124 155/1/127
f 132/1/104 130/1/102 154/1/126
f 156/1/128 155/1/127 153/1/125
f 68/1/48 153/1/125 96/1/76
f 156/1/128 153/1/125 68/1/48
f 157/1/129 154/1/126 155/1/127
f 157/1/129 155/1/127 156/1/128
f 158/1/130 154/1/126 157/1/129
f 158/1/130 132/1/104 154/1/126
f 156/1/128 159/1/131 157/1/129
f 160/1/132 132/1/104 158/1/130
f 159/1/131 156/1/128 64/1/44
f 68/1/48 64/1/44 156/1/128
f 161/1/133 157/1/129 159/1/131
f 157/1/129 161/1/133 158/1/130
f 158/1/130 44/1/31 160/1/132
f 44/1/31 158/1/130 161/1/133
f 43/1/30 132/1/104 160/1/132
f 44/1/31 43/1/30 160/1/132
f 132/1/104 43/1/30 162/1/134
f 162/1/134 128/1/100 132/1/104
f 159/1/131 61/1/41 161/1/133
f 64/1/44 61/1/41 159/1/131
f 161/1/133 54/1/34 44/1/31
f 61/1/41 54/1/34 161/1/133
f 128/1/100 162/1/134 163/1/135
f 163/1/135 126/1/98 128/1/100
f 126/1/98 163/1/135 164/1/136
f 124/1/96 126/1/98 164/1/136
f 165/1/137 163/1/135 162/1/134
f 166/1/138 164/1/136 163/1/135
f 163/1/135 165/1/137 166/1/138
f 164/1/136 166/1/138 167/1/139
f 167/1/139 124/1/96 164/1/136
f 168/1/140 166/1/138 165/1/137
f 169/1/141 167/1/139 166/1/138
f 166/1/138 168/1/140 169/1/141
f 162/1/134 39/1/26 165/1/137
f 39/1/26 162/1/134 43/1/30
f 165/1/137 35/1/22 168/1/140
f 35/1/22 165/1/137 39/1/26
f 168/1/140 20/1/7 169/1/141
f 35/1/22 20/1/7 168/1/140
f 167/1/139 169/1/141 170/1/142
f 169/1/141 20/1/7 170/1/142
f 170/1/142 171/1/143 167/1/139
f 124/1/96 167/1/139 171/1/143
f 171/1/143 170/1/142 172/1/144
f 170/1/142 20/1/7 172/1/144
f 171/1/143 173/1/145 124/1/96
f 122/1/94 124/1/96 173/1/145
f 173/1/145 25/1/12 122/1/94
f 173/1/145 171/1/143 174/1/146
f 172/1/144 174/1/146 171/1/143
f 25/1/12 173/1/145 23/1/10
f 174/1/146 23/1/10 173/1/145
f 174/1/146 172/1/144 18/1/5
f 172/1/144 20/1/7 18/1/5
f 23/1/10 174/1/146 17/1/4
f 18/1/5 17/1/4 174/1/146
f 175/1/147 176/1/148 177/1/149
f 176/1/148 175/1/147 178/1/150
f 177/1/149 179/1/151 175/1/147
f 179/1/151 177/1/149 180/1/152
f 178/1/150 181/1/153 176/1/148
f 182/1/154 179/1/151 180/1/152
f 179/1/151 183/1/155 175/1/147
f 183/1/155 178/1/150 175/1/147
f 178/1/150 183/1/155 184/1/156
f 183/1/155 179/1/151 185/1/157
f 186/1/158 178/1/150 184/1/156
f 179/1/151 182/1/154 187/1/159
f 187/1/159 185/1/157 179/1/151
f 185/1/157 187/1/159 188/1/160
f 189/1/161 187/1/159 182/1/154
f 188/1/160 187/1/159 190/1/162
f 178/1/150 186/1/158 191/1/163
f 181/1/153 178/1/150 191/1/163
f 191/1/163 186/1/158 192/1/164
f 192/1/164 181/1/153 191/1/163
f 193/1/165 192/1/164 186/1/158
f 181/1/153 192/1/164 194/1/166
f 192/1/164 193/1/165 195/1/167
f 195/1/167 194/1/166 192/1/164
f 196/1/168 195/1/167 193/1/165
f 190/1/162 195/1/167 196/1/168
f 194/1/166 195/1/167 197/1/169
f 195/1/167 190/1/162 198/1/170
f 198/1/170 197/1/169 195/1/167
f 198/1/170 190/1/162 187/1/159
f 197/1/169 198/1/170 189/1/161
f 187/1/159 189/1/161 198/1/170
f 199/1/86 200/1/86 201/1/84
f 202/1/88 200/1/86 199/1/86
f 199/1/86 201/1/84 203/1/84
f 202/1/88 204/1/88 200/1/86
f 203/1/84 201/1/84 205/1/85
f 206/1/90 204/1/88 202/1/88
f 203/1/84 205/1/85 207/1/85
f 206/1/90 208/1/90 204/1/88
f 209/1/87 207/1/85 205/1/85
f 210/1/91 208/1/90 206/1/90
f 207/1/85 209/1/87 211/1/87
f 210/1/91 212/1/91 208/1/90
f 213/1/89 211/1/87 209/1/87
f 214/1/89 212/1/91 210/1/91
f 211/1/87 213/1/89 214/1/89
f 214/1/89 213/1/89 212/1/91
