# Blender 5.1.2
# www.blender.org
mtllib lesgingerbreadsnipermagazine.mtl
o RenderMesh_138632005761997
v 0.187548 -0.183761 -0.110961
v 0.187548 -0.093076 0.110961
v 0.187548 -0.183761 0.110961
v 0.187548 -0.093075 -0.110961
v -0.188014 -0.038202 -0.109452
v -0.188014 -0.038202 0.109451
v -0.188014 0.053240 -0.109452
v -0.188014 0.053240 0.109451
v -0.187268 0.068625 -0.108546
v -0.187268 0.068625 0.108545
v -0.187268 0.159310 -0.108546
v -0.187268 0.159310 0.108545
v 0.186408 0.203658 -0.108546
v 0.186408 0.112973 0.108545
v 0.186408 0.112973 -0.108546
v 0.186408 0.203658 0.108545
v -0.187268 -0.047659 -0.110961
v -0.187268 -0.047659 0.110961
v -0.187268 0.043027 -0.110961
v -0.187268 0.043027 0.110961
v 0.186408 0.086374 -0.109452
v 0.186408 -0.005068 0.109451
v 0.186408 -0.005068 -0.109452
v 0.186408 0.086374 0.109451
v 0.186408 -0.011771 0.108902
v 0.186408 -0.102456 -0.108189
v 0.186408 -0.011771 -0.108189
v 0.186408 -0.102456 0.108902
v -0.187268 -0.112191 0.108902
v -0.187268 -0.112191 -0.108188
v -0.187268 -0.202876 -0.108188
v -0.187268 -0.202876 0.108902
v 0.187548 -0.093075 -0.110961
v -0.187268 -0.047659 -0.110961
v -0.187268 0.043027 -0.110961
v 0.187548 -0.183761 -0.110961
v -0.187268 -0.047659 0.110961
v 0.187548 -0.093076 0.110961
v -0.187268 0.043027 0.110961
v 0.187548 -0.183761 0.110961
v -0.188014 0.053240 -0.109452
v 0.186408 -0.005068 -0.109452
v -0.188014 -0.038202 -0.109452
v 0.186408 0.086374 -0.109452
v 0.186408 -0.005068 0.109451
v -0.188014 0.053240 0.109451
v -0.188014 -0.038202 0.109451
v 0.186408 0.086374 0.109451
v 0.186408 -0.011771 0.108902
v -0.187268 -0.112191 0.108902
v 0.186408 -0.102456 0.108902
v -0.187268 -0.202876 0.108902
v -0.187268 0.159310 -0.108546
v 0.186408 0.112973 -0.108546
v -0.187268 0.068625 -0.108546
v 0.186408 0.203658 -0.108546
v 0.186408 0.112973 0.108545
v -0.187268 0.159310 0.108545
v -0.187268 0.068625 0.108545
v 0.186408 0.203658 0.108545
v 0.186408 -0.102456 -0.108189
v -0.187268 -0.112191 -0.108188
v 0.186408 -0.011771 -0.108189
v -0.187268 -0.202876 -0.108188
vn 1.0000 -0.0000 0.0005
vn -1.0000 -0.0000 0.0005
vn 0.0005 -0.0000 -1.0000
vn 0.0005 -0.0000 1.0000
vt 0.000000 1.000000
vt 1.000000 0.000000
vt 0.000000 0.000000
vt 1.000000 1.000000
s 1
f 1/1/1 2/2/1 3/3/1
f 2/2/1 1/1/1 4/4/1
f 5/1/2 6/3/2 7/4/2
f 7/4/2 6/3/2 8/2/2
f 9/1/2 10/3/2 11/4/2
f 11/4/2 10/3/2 12/2/2
f 13/4/1 14/3/1 15/1/1
f 14/3/1 13/4/1 16/2/1
f 17/1/2 18/3/2 19/4/2
f 19/4/2 18/3/2 20/2/2
f 21/4/1 22/3/1 23/1/1
f 22/3/1 21/4/1 24/2/1
f 25/4/1 26/3/1 27/2/1
f 26/3/1 25/4/1 28/1/1
f 29/4/2 30/2/2 31/3/2
f 31/3/2 32/1/2 29/4/2
f 33/4/3 34/1/3 35/4/3
f 36/1/3 34/1/3 33/4/3
f 37/3/4 38/2/4 39/2/4
f 38/2/4 37/3/4 40/3/4
f 41/4/3 42/1/3 43/1/3
f 42/1/3 41/4/3 44/4/3
f 45/3/4 46/2/4 47/3/4
f 46/2/4 45/3/4 48/2/4
f 49/4/4 50/4/4 51/1/4
f 52/1/4 51/1/4 50/4/4
f 53/4/3 54/1/3 55/1/3
f 54/1/3 53/4/3 56/4/3
f 57/3/4 58/2/4 59/3/4
f 58/2/4 57/3/4 60/2/4
f 61/3/3 62/2/3 63/2/3
f 62/2/3 61/3/3 64/3/3
o RenderMesh_79152384222852.001
v 0.182189 0.275704 0.104107
v 0.182189 -0.167648 -0.104107
v 0.182189 0.275704 -0.104107
v 0.182189 -0.167648 0.104107
v -0.182189 0.275704 0.104107
v 0.229433 -0.210870 0.104107
v -0.182189 0.275704 -0.104107
v 0.229433 -0.210870 -0.104107
v 0.229433 -0.275704 0.104107
v 0.229433 -0.275704 -0.104107
v -0.182189 -0.167648 0.104107
v -0.182189 -0.167648 -0.104107
v -0.229433 -0.210870 -0.104107
v -0.229433 -0.210870 0.104107
v -0.229433 -0.275704 -0.104107
v -0.229433 -0.275704 0.104107
v -0.229433 -0.275704 -0.104107
v 0.229433 -0.275704 -0.104107
v 0.229433 -0.275704 0.104107
v -0.229433 -0.275704 0.104107
v -0.229433 -0.275704 0.104107
v 0.229433 -0.275704 0.104107
v 0.182189 -0.167648 0.104107
v 0.229433 -0.210870 0.104107
v -0.182189 -0.167648 0.104107
v -0.229433 -0.210870 0.104107
v -0.182189 0.275704 0.104107
v 0.182189 0.275704 0.104107
v 0.182189 0.275704 -0.104107
v -0.182189 -0.167648 -0.104107
v -0.182189 0.275704 -0.104107
v 0.182189 -0.167648 -0.104107
v 0.229433 -0.275704 -0.104107
v 0.229433 -0.210870 -0.104107
v -0.229433 -0.275704 -0.104107
v -0.229433 -0.210870 -0.104107
vn 0.7071 0.7071 0.0003
vn 0.9152 0.4031 0.0005
vn 0.7071 0.7071 -0.0000
vn -0.7071 0.7071 -0.0000
vn -0.7071 0.7071 0.0003
vn 0.9151 0.4031 -0.0000
vn 1.0000 0.0005 0.0005
vn -0.9152 0.4031 0.0005
vn -0.9151 0.4031 -0.0000
vn -1.0000 0.0005 0.0005
vn 0.0005 -1.0000 0.0005
vn 0.0005 0.0005 1.0000
vn 0.0004 0.0004 1.0000
vn 0.0005 0.0005 -1.0000
vn 0.0004 0.0004 -1.0000
vt 0.000000 0.000000
s 1
f 65/5/5 66/5/6 67/5/7
f 66/5/6 65/5/5 68/5/6
f 67/5/7 69/5/8 65/5/5
f 66/5/6 68/5/6 70/5/6
f 67/5/7 71/5/9 69/5/8
f 70/5/6 72/5/10 66/5/6
f 72/5/10 70/5/6 73/5/11
f 73/5/11 74/5/11 72/5/10
f 71/5/9 75/5/12 69/5/8
f 71/5/9 76/5/12 75/5/12
f 77/5/12 75/5/12 76/5/12
f 75/5/12 77/5/12 78/5/13
f 79/5/14 78/5/13 77/5/12
f 78/5/13 79/5/14 80/5/14
f 81/5/15 82/5/15 83/5/15
f 81/5/15 83/5/15 84/5/15
f 85/5/16 86/5/16 87/5/17
f 88/5/16 87/5/17 86/5/16
f 85/5/16 87/5/17 89/5/16
f 89/5/16 90/5/16 85/5/16
f 87/5/17 91/5/16 89/5/16
f 91/5/16 87/5/17 92/5/16
f 93/5/18 94/5/19 95/5/18
f 94/5/19 93/5/18 96/5/18
f 97/5/18 94/5/19 96/5/18
f 96/5/18 98/5/18 97/5/18
f 94/5/19 97/5/18 99/5/18
f 100/5/18 94/5/19 99/5/18
