# Blender 5.1.2
# www.blender.org
mtllib machete_improvised.mtl
o RenderMesh_81995385239515
v 0.258449 1.566083 0.062865
v 0.244865 0.611417 0.062865
v 0.258449 1.566083 -0.000424
v 0.244865 0.611417 -0.000424
v 0.269771 2.571374 0.062865
v 0.258449 1.566083 -0.063714
v 0.244865 0.611417 -0.063713
v 0.269771 2.571374 -0.000424
v 0.281092 3.126093 0.062865
v 0.269771 2.571374 -0.063714
v 0.281092 3.126093 -0.000424
v 0.296941 3.646850 0.062865
v 0.281092 3.126093 -0.063714
v 0.296941 3.646850 -0.000424
v 0.317319 3.995533 0.062865
v 0.296941 3.646850 -0.063714
v 0.317319 3.995533 -0.000424
v 0.337695 4.244590 0.062865
v 0.317319 3.995533 -0.063714
v 0.337695 4.244590 -0.000424
v 0.378452 4.588744 0.062865
v 0.337695 4.244590 -0.063714
v 0.378452 4.588744 -0.000425
v 0.430527 4.935163 0.062865
v 0.378452 4.588744 -0.063714
v 0.430527 4.935163 -0.000425
v 0.461911 5.073979 -0.000455
v 0.430527 4.935163 -0.063714
v 0.194765 4.979076 -0.000425
v 0.430527 4.935163 -0.063714
v 0.248880 4.905897 -0.063714
v 0.461911 5.073979 -0.000455
v 0.098197 4.768312 -0.063714
v 0.028496 4.826847 -0.000425
v -0.080200 4.656874 -0.000425
v -0.000074 4.613701 -0.063714
v -0.166103 4.465964 -0.000425
v -0.081312 4.432882 -0.063714
v -0.135033 4.271719 -0.063714
v -0.223651 4.292477 -0.000424
v -0.262143 4.018730 -0.000424
v -0.171720 4.008352 -0.063714
v -0.191376 3.790846 -0.063714
v -0.282227 3.796309 -0.000424
v -0.294174 3.399127 -0.000424
v -0.203168 3.397761 -0.063714
v -0.203168 3.079363 -0.063714
v -0.294164 3.077437 -0.000424
v -0.270526 2.518865 -0.000424
v -0.179581 2.522493 -0.063714
v -0.146563 1.640675 -0.063714
v -0.237478 1.636366 -0.000424
v -0.207298 1.110121 -0.000424
v -0.116426 1.115251 -0.063713
v -0.190324 0.933668 -0.000424
v -0.104634 0.902985 -0.063713
v -0.149183 0.854505 -0.063713
v -0.234078 0.887325 -0.000424
v -0.147874 0.611417 -0.000424
v -0.147874 0.611417 -0.063713
v -0.234078 0.887325 -0.000424
v -0.147874 0.611417 -0.000424
v -0.149183 0.854505 0.062865
v -0.147874 0.611417 0.062865
v -0.190324 0.933668 -0.000424
v -0.104634 0.902985 0.062865
v -0.116426 1.115251 0.062865
v -0.207298 1.110121 -0.000424
v -0.146563 1.640675 0.062865
v -0.237478 1.636366 -0.000424
v -0.270526 2.518865 -0.000424
v -0.179581 2.522493 0.062865
v -0.203168 3.079363 0.062865
v -0.294164 3.077437 -0.000424
v -0.294174 3.399127 -0.000424
v -0.203168 3.397761 0.062865
v -0.191376 3.790846 0.062865
v -0.282227 3.796309 -0.000424
v -0.262143 4.018730 -0.000424
v -0.171720 4.008352 0.062865
v -0.135033 4.271719 0.062865
v -0.223651 4.292477 -0.000424
v -0.166103 4.465964 -0.000425
v -0.081312 4.432882 0.062865
v -0.000074 4.613701 0.062865
v -0.080200 4.656874 -0.000425
v 0.098197 4.768312 0.062865
v 0.028496 4.826847 -0.000425
v 0.194765 4.979076 -0.000425
v 0.248880 4.905897 0.062865
v 0.430527 4.935163 0.062865
v 0.461911 5.073979 -0.000455
v -0.191376 3.790846 -0.063714
v 0.317319 3.995533 -0.063714
v 0.296941 3.646850 -0.063714
v -0.171720 4.008352 -0.063714
v -0.203168 3.397761 -0.063714
v -0.135033 4.271719 -0.063714
v 0.281092 3.126093 -0.063714
v 0.337695 4.244590 -0.063714
v -0.203168 3.079363 -0.063714
v -0.081312 4.432882 -0.063714
v 0.269771 2.571374 -0.063714
v -0.000074 4.613701 -0.063714
v -0.179581 2.522493 -0.063714
v 0.378452 4.588744 -0.063714
v -0.146563 1.640675 -0.063714
v 0.098197 4.768312 -0.063714
v 0.248880 4.905897 -0.063714
v 0.430527 4.935163 -0.063714
v 0.258449 1.566083 -0.063714
v -0.116426 1.115251 -0.063713
v 0.244865 0.611417 -0.063713
v -0.104634 0.902985 -0.063713
v -0.147874 0.611417 -0.063713
v -0.149183 0.854505 -0.063713
v 0.337695 4.244590 0.062865
v -0.135033 4.271719 0.062865
v 0.317319 3.995533 0.062865
v -0.171720 4.008352 0.062865
v -0.081312 4.432882 0.062865
v -0.191376 3.790846 0.062865
v -0.000074 4.613701 0.062865
v 0.296941 3.646850 0.062865
v 0.378452 4.588744 0.062865
v -0.203168 3.397761 0.062865
v 0.098197 4.768312 0.062865
v 0.248880 4.905897 0.062865
v 0.430527 4.935163 0.062865
v 0.281092 3.126093 0.062865
v -0.203168 3.079363 0.062865
v 0.269771 2.571374 0.062865
v -0.179581 2.522493 0.062865
v -0.146563 1.640675 0.062865
v 0.258449 1.566083 0.062865
v -0.116426 1.115251 0.062865
v 0.244865 0.611417 0.062865
v -0.104634 0.902985 0.062865
v -0.147874 0.611417 0.062865
v -0.149183 0.854505 0.062865
vn 0.9999 -0.0127 -0.0000
vn 0.9999 -0.0142 -0.0000
vn 0.9999 -0.0158 -0.0000
vn 0.9997 -0.0254 -0.0000
vn 0.9990 -0.0444 -0.0000
vn 0.9976 -0.0699 -0.0000
vn 0.9950 -0.0996 -0.0000
vn 0.9911 -0.1331 -0.0000
vn 0.9837 -0.1798 -0.0000
vn 0.9828 -0.1847 -0.0000
vn 0.9754 -0.2205 -0.0000
vn -0.2722 0.4618 -0.8442
vn -0.1375 0.4968 -0.8569
vn -0.2541 0.4671 -0.8469
vn -0.4363 0.3667 -0.8217
vn -0.4364 0.3667 -0.8216
vn -0.5027 0.2713 -0.8208
vn -0.5027 0.2715 -0.8207
vn -0.5321 0.2075 -0.8208
vn -0.5323 0.2075 -0.8207
vn -0.5555 0.1301 -0.8213
vn -0.5555 0.1300 -0.8213
vn -0.5674 0.0652 -0.8209
vn -0.5672 0.0651 -0.8210
vn -0.5699 0.0343 -0.8210
vn -0.5709 0.0086 -0.8210
vn -0.5708 0.0086 -0.8210
vn -0.5708 -0.0121 -0.8210
vn -0.5705 -0.0228 -0.8210
vn -0.5704 -0.0228 -0.8210
vn -0.5703 -0.0270 -0.8210
vn -0.5781 -0.0380 -0.8151
vn -0.5288 0.1876 -0.8278
vn -0.5283 0.1889 -0.8278
vn -0.6916 0.1383 -0.7089
vn -0.6694 0.1685 -0.7236
vn -0.8387 -0.1414 -0.5258
vn -0.8387 -0.1414 -0.5259
vn -0.6694 0.1685 0.7235
vn -0.8387 -0.1414 0.5258
vn -0.6916 0.1383 0.7089
vn -0.8387 -0.1414 0.5259
vn -0.5288 0.1876 0.8278
vn -0.5283 0.1889 0.8278
vn -0.5781 -0.0380 0.8151
vn -0.5703 -0.0270 0.8210
vn -0.5705 -0.0228 0.8210
vn -0.5704 -0.0228 0.8210
vn -0.5708 -0.0121 0.8210
vn -0.5709 0.0086 0.8210
vn -0.5708 0.0086 0.8210
vn -0.5699 0.0343 0.8210
vn -0.5674 0.0652 0.8209
vn -0.5672 0.0651 0.8210
vn -0.5555 0.1301 0.8213
vn -0.5554 0.1300 0.8214
vn -0.5321 0.2075 0.8208
vn -0.5324 0.2075 0.8207
vn -0.5027 0.2716 0.8207
vn -0.5027 0.2717 0.8206
vn -0.4366 0.3670 0.8214
vn -0.4364 0.3667 0.8216
vn -0.2722 0.4619 0.8441
vn -0.2541 0.4673 0.8468
vn -0.1374 0.4970 0.8568
vn -0.0000 -0.0000 -1.0000
vn -0.0000 -0.0000 1.0000
vt 0.000000 0.000000
s 1
f 1/1/1 2/1/2 3/1/1
f 4/1/2 3/1/1 2/1/2
f 3/1/1 5/1/3 1/1/1
f 3/1/1 4/1/2 6/1/1
f 7/1/2 6/1/1 4/1/2
f 3/1/1 8/1/3 5/1/3
f 6/1/1 8/1/3 3/1/1
f 8/1/3 9/1/4 5/1/3
f 6/1/1 10/1/3 8/1/3
f 8/1/3 11/1/4 9/1/4
f 10/1/3 11/1/4 8/1/3
f 11/1/4 12/1/5 9/1/4
f 10/1/3 13/1/4 11/1/4
f 11/1/4 14/1/5 12/1/5
f 13/1/4 14/1/5 11/1/4
f 14/1/5 15/1/6 12/1/5
f 13/1/4 16/1/5 14/1/5
f 15/1/6 14/1/5 17/1/6
f 16/1/5 17/1/6 14/1/5
f 17/1/6 18/1/7 15/1/6
f 17/1/6 16/1/5 19/1/6
f 18/1/7 17/1/6 20/1/7
f 19/1/6 20/1/7 17/1/6
f 20/1/7 21/1/8 18/1/7
f 19/1/6 22/1/7 20/1/7
f 21/1/8 20/1/7 23/1/8
f 22/1/7 23/1/8 20/1/7
f 23/1/8 24/1/9 21/1/8
f 23/1/8 22/1/7 25/1/8
f 23/1/8 26/1/10 24/1/9
f 25/1/8 26/1/10 23/1/8
f 26/1/10 27/1/11 24/1/9
f 25/1/8 28/1/9 26/1/10
f 28/1/9 27/1/11 26/1/10
f 29/1/12 30/1/13 31/1/14
f 30/1/13 29/1/12 32/1/13
f 33/1/15 29/1/12 31/1/14
f 29/1/12 33/1/15 34/1/16
f 33/1/15 35/1/17 34/1/16
f 35/1/17 33/1/15 36/1/18
f 36/1/18 37/1/19 35/1/17
f 37/1/19 36/1/18 38/1/20
f 39/1/21 37/1/19 38/1/20
f 37/1/19 39/1/21 40/1/22
f 39/1/21 41/1/23 40/1/22
f 41/1/23 39/1/21 42/1/24
f 43/1/25 41/1/23 42/1/24
f 41/1/23 43/1/25 44/1/25
f 43/1/25 45/1/26 44/1/25
f 45/1/26 43/1/25 46/1/27
f 47/1/28 45/1/26 46/1/27
f 45/1/26 47/1/28 48/1/28
f 47/1/28 49/1/29 48/1/28
f 49/1/29 47/1/28 50/1/30
f 50/1/30 51/1/31 49/1/29
f 49/1/29 51/1/31 52/1/31
f 51/1/31 53/1/32 52/1/31
f 53/1/32 51/1/31 54/1/32
f 54/1/32 55/1/33 53/1/32
f 55/1/33 54/1/32 56/1/34
f 57/1/35 55/1/33 56/1/34
f 55/1/33 57/1/35 58/1/36
f 57/1/35 59/1/37 58/1/36
f 59/1/37 57/1/35 60/1/38
f 61/1/39 62/1/40 63/1/41
f 63/1/41 62/1/40 64/1/42
f 63/1/41 65/1/43 61/1/39
f 65/1/43 63/1/41 66/1/44
f 66/1/44 67/1/45 65/1/43
f 67/1/45 68/1/45 65/1/43
f 67/1/45 69/1/46 68/1/45
f 69/1/46 70/1/46 68/1/45
f 69/1/46 71/1/47 70/1/46
f 71/1/47 69/1/46 72/1/48
f 72/1/48 73/1/49 71/1/47
f 73/1/49 74/1/49 71/1/47
f 73/1/49 75/1/50 74/1/49
f 75/1/50 73/1/49 76/1/51
f 76/1/51 77/1/52 75/1/50
f 75/1/50 77/1/52 78/1/52
f 77/1/52 79/1/53 78/1/52
f 79/1/53 77/1/52 80/1/54
f 80/1/54 81/1/55 79/1/53
f 79/1/53 81/1/55 82/1/56
f 81/1/55 83/1/57 82/1/56
f 83/1/57 81/1/55 84/1/58
f 85/1/59 83/1/57 84/1/58
f 83/1/57 85/1/59 86/1/60
f 87/1/61 86/1/60 85/1/59
f 86/1/60 87/1/61 88/1/62
f 87/1/61 89/1/63 88/1/62
f 89/1/63 87/1/61 90/1/64
f 91/1/65 89/1/63 90/1/64
f 92/1/65 89/1/63 91/1/65
f 93/1/66 94/1/66 95/1/66
f 94/1/66 93/1/66 96/1/66
f 93/1/66 95/1/66 97/1/66
f 98/1/66 94/1/66 96/1/66
f 99/1/66 97/1/66 95/1/66
f 94/1/66 98/1/66 100/1/66
f 97/1/66 99/1/66 101/1/66
f 102/1/66 100/1/66 98/1/66
f 103/1/66 101/1/66 99/1/66
f 104/1/66 100/1/66 102/1/66
f 101/1/66 103/1/66 105/1/66
f 100/1/66 104/1/66 106/1/66
f 105/1/66 103/1/66 107/1/66
f 108/1/66 106/1/66 104/1/66
f 109/1/66 106/1/66 108/1/66
f 106/1/66 109/1/66 110/1/66
f 111/1/66 107/1/66 103/1/66
f 111/1/66 112/1/66 107/1/66
f 112/1/66 111/1/66 113/1/66
f 113/1/66 114/1/66 112/1/66
f 115/1/66 114/1/66 113/1/66
f 114/1/66 115/1/66 116/1/66
f 117/1/67 118/1/67 119/1/67
f 120/1/67 119/1/67 118/1/67
f 118/1/67 117/1/67 121/1/67
f 122/1/67 119/1/67 120/1/67
f 121/1/67 117/1/67 123/1/67
f 119/1/67 122/1/67 124/1/67
f 123/1/67 117/1/67 125/1/67
f 124/1/67 122/1/67 126/1/67
f 125/1/67 127/1/67 123/1/67
f 127/1/67 125/1/67 128/1/67
f 128/1/67 125/1/67 129/1/67
f 126/1/67 130/1/67 124/1/67
f 131/1/67 130/1/67 126/1/67
f 130/1/67 131/1/67 132/1/67
f 133/1/67 132/1/67 131/1/67
f 134/1/67 132/1/67 133/1/67
f 132/1/67 134/1/67 135/1/67
f 135/1/67 134/1/67 136/1/67
f 136/1/67 137/1/67 135/1/67
f 137/1/67 136/1/67 138/1/67
f 137/1/67 138/1/67 139/1/67
f 139/1/67 138/1/67 140/1/67
o RenderMesh_110177237959021
v 0.288627 0.647219 -0.039933
v -0.226522 0.606345 -0.108233
v -0.266957 0.647155 -0.039867
v 0.248284 0.606345 -0.108233
v -0.266957 0.647155 0.039018
v 0.288627 0.647219 0.039084
v -0.226522 0.606345 0.107384
v 0.248284 0.606345 0.107384
v 0.248284 0.606345 0.107384
v -0.226522 0.606345 0.107384
v 0.248284 0.414893 0.107384
v -0.226522 0.414893 0.107384
v -0.133405 0.317894 0.107384
v 0.248284 0.317894 0.107384
v -0.133405 -0.322287 0.107384
v 0.248284 -0.322287 0.107384
v 0.248284 -0.500762 0.107385
v -0.226522 -0.500762 0.107385
v -0.101269 -0.772359 0.107385
v -0.226522 -0.647101 0.107385
v 0.123032 -0.772359 0.107385
v 0.248284 -0.647101 0.107385
v 0.248284 0.606345 -0.108233
v -0.226522 0.414893 -0.108233
v -0.226522 0.606345 -0.108233
v 0.248284 0.414893 -0.108233
v -0.133405 0.317894 -0.108233
v 0.248284 0.317894 -0.108233
v 0.248284 -0.322287 -0.108233
v -0.133405 -0.322287 -0.108233
v 0.248284 -0.500762 -0.108233
v -0.226522 -0.500762 -0.108233
v 0.123032 -0.772359 -0.108233
v 0.248284 -0.647101 -0.108233
v -0.101269 -0.772359 -0.108233
v -0.226522 -0.647101 -0.108233
v 0.248284 0.606345 0.107384
v 0.305750 0.415217 0.038963
v 0.288627 0.647219 0.039084
v 0.288627 0.647219 -0.039933
v 0.248284 0.414893 0.107384
v 0.305750 0.415217 -0.039812
v 0.248284 0.606345 -0.108233
v 0.248284 0.414893 -0.108233
v 0.305691 0.317894 0.039188
v 0.248284 0.317894 0.107384
v 0.248284 -0.322287 0.107384
v 0.305691 0.317894 -0.040037
v 0.248284 0.317894 -0.108233
v 0.305691 -0.322287 0.039188
v 0.248284 -0.500762 0.107385
v 0.305691 -0.322287 -0.040037
v 0.248284 -0.322287 -0.108233
v 0.248284 -0.500762 -0.108233
v 0.305708 -0.500877 0.039128
v 0.248284 -0.647101 0.107385
v 0.305708 -0.500877 -0.039976
v 0.248284 -0.647101 -0.108233
v 0.301316 -0.669198 0.039040
v 0.123032 -0.772359 0.107385
v 0.301316 -0.669198 -0.039889
v 0.123032 -0.772359 -0.108233
v 0.145020 -0.825444 0.038983
v 0.145020 -0.825444 -0.039831
v -0.101269 -0.772359 -0.108233
v -0.123258 -0.825444 0.038983
v -0.101269 -0.772359 0.107385
v -0.123258 -0.825444 -0.039831
v -0.279575 -0.669156 0.039018
v -0.226522 -0.647101 0.107385
v -0.279575 -0.669156 -0.039867
v -0.226522 -0.647101 -0.108233
v -0.282338 -0.487151 0.039021
v -0.226522 -0.500762 0.107385
v -0.282338 -0.487151 -0.039870
v -0.226522 -0.500762 -0.108233
v -0.189128 -0.308612 0.039297
v -0.133405 -0.322287 0.107384
v -0.189128 -0.308612 -0.040146
v -0.133405 -0.322287 -0.108233
v -0.186594 0.296511 -0.040313
v -0.133405 0.317894 -0.108233
v -0.186594 0.296511 0.039464
v -0.133405 0.317894 0.107384
v -0.226522 0.414893 -0.108233
v -0.226522 0.414893 0.107384
v -0.279960 0.393664 -0.039675
v -0.226522 0.606345 -0.108233
v -0.266957 0.647155 -0.039867
v -0.279960 0.393664 0.038826
v -0.266957 0.647155 0.039018
v -0.226522 0.606345 0.107384
vn -0.0001 0.9774 -0.2113
vn -0.0001 0.8584 -0.5130
vn -0.0001 0.9775 -0.2109
vn -0.0001 0.8583 -0.5131
vn -0.0001 0.9775 0.2109
vn -0.0001 0.9774 0.2113
vn -0.0001 0.8584 0.5130
vn -0.0001 0.8584 0.5131
vn -0.0000 -0.0000 1.0000
vn -0.0000 -0.0000 -1.0000
vn 0.8082 0.0325 0.5880
vn 0.9484 0.0283 0.3159
vn 0.9668 0.0599 0.2486
vn 0.9668 0.0599 -0.2486
vn 0.7874 0.0165 0.6162
vn 0.9484 0.0283 -0.3158
vn 0.8082 0.0325 -0.5880
vn 0.7874 0.0165 -0.6162
vn 0.9424 -0.0000 0.3345
vn 0.7653 0.0003 0.6437
vn 0.7650 -0.0000 0.6440
vn 0.9424 -0.0000 -0.3345
vn 0.7650 -0.0000 -0.6440
vn 0.9424 -0.0000 0.3344
vn 0.7709 -0.0055 0.6369
vn 0.9424 -0.0000 -0.3344
vn 0.7710 -0.0056 -0.6369
vn 0.9441 -0.0099 0.3294
vn 0.6985 -0.2981 0.6505
vn 0.9441 -0.0099 -0.3294
vn 0.6985 -0.2981 -0.6505
vn 0.8733 -0.3735 0.3127
vn 0.2929 -0.7074 0.6433
vn 0.8733 -0.3735 -0.3127
vn 0.2929 -0.7074 -0.6433
vn 0.3639 -0.8789 0.3083
vn 0.3640 -0.8789 -0.3083
vn -0.2929 -0.7074 -0.6432
vn -0.3640 -0.8789 0.3083
vn -0.2929 -0.7074 0.6432
vn -0.3640 -0.8789 -0.3083
vn -0.8756 -0.3696 0.3109
vn -0.7021 -0.2961 0.6476
vn -0.8756 -0.3696 -0.3109
vn -0.7021 -0.2961 -0.6476
vn -0.9233 0.2201 0.3147
vn -0.7478 0.1788 0.6394
vn -0.9233 0.2201 -0.3147
vn -0.7478 0.1788 -0.6394
vn -0.9092 0.2240 0.3510
vn -0.7464 0.1827 0.6399
vn -0.9092 0.2240 -0.3510
vn -0.7464 0.1827 -0.6399
vn -0.8623 -0.3459 -0.3698
vn -0.7060 -0.2844 -0.6486
vn -0.8623 -0.3459 0.3698
vn -0.7060 -0.2844 0.6486
vn -0.7331 -0.2739 -0.6225
vn -0.7331 -0.2739 0.6225
vn -0.8942 -0.3355 -0.2963
vn -0.8230 0.0238 -0.5676
vn -0.9704 0.0421 -0.2379
vn -0.8942 -0.3355 0.2963
vn -0.9704 0.0421 0.2380
vn -0.8230 0.0238 0.5676
vt 0.000000 0.000000
s 1
f 141/2/68 142/2/69 143/2/70
f 142/2/69 141/2/68 144/2/71
f 141/2/68 143/2/70 145/2/72
f 141/2/68 145/2/72 146/2/73
f 146/2/73 145/2/72 147/2/74
f 146/2/73 147/2/74 148/2/75
f 149/2/76 150/2/76 151/2/76
f 152/2/76 151/2/76 150/2/76
f 151/2/76 152/2/76 153/2/76
f 153/2/76 154/2/76 151/2/76
f 155/2/76 154/2/76 153/2/76
f 155/2/76 156/2/76 154/2/76
f 155/2/76 157/2/76 156/2/76
f 157/2/76 155/2/76 158/2/76
f 159/2/76 157/2/76 158/2/76
f 159/2/76 158/2/76 160/2/76
f 161/2/76 157/2/76 159/2/76
f 157/2/76 161/2/76 162/2/76
f 163/2/77 164/2/77 165/2/77
f 164/2/77 163/2/77 166/2/77
f 166/2/77 167/2/77 164/2/77
f 167/2/77 166/2/77 168/2/77
f 169/2/77 167/2/77 168/2/77
f 167/2/77 169/2/77 170/2/77
f 170/2/77 169/2/77 171/2/77
f 170/2/77 171/2/77 172/2/77
f 173/2/77 172/2/77 171/2/77
f 173/2/77 171/2/77 174/2/77
f 175/2/77 172/2/77 173/2/77
f 172/2/77 175/2/77 176/2/77
f 177/2/78 178/2/79 179/2/80
f 178/2/79 180/2/81 179/2/80
f 178/2/79 177/2/78 181/2/82
f 180/2/81 178/2/79 182/2/83
f 182/2/83 183/2/84 180/2/81
f 183/2/84 182/2/83 184/2/85
f 181/2/82 185/2/86 178/2/79
f 182/2/83 178/2/79 185/2/86
f 185/2/86 181/2/82 186/2/87
f 186/2/87 187/2/88 185/2/86
f 184/2/85 182/2/83 188/2/89
f 188/2/89 182/2/83 185/2/86
f 189/2/90 184/2/85 188/2/89
f 190/2/91 185/2/86 187/2/88
f 185/2/86 190/2/91 188/2/89
f 187/2/88 191/2/92 190/2/91
f 188/2/89 192/2/93 189/2/90
f 192/2/93 188/2/89 190/2/91
f 193/2/90 189/2/90 192/2/93
f 192/2/93 194/2/94 193/2/90
f 195/2/95 190/2/91 191/2/92
f 190/2/91 195/2/95 192/2/93
f 191/2/92 196/2/96 195/2/95
f 194/2/94 192/2/93 197/2/97
f 197/2/97 192/2/93 195/2/95
f 197/2/97 198/2/98 194/2/94
f 199/2/99 195/2/95 196/2/96
f 195/2/95 199/2/99 197/2/97
f 196/2/96 200/2/100 199/2/99
f 198/2/98 197/2/97 201/2/101
f 201/2/101 197/2/97 199/2/99
f 201/2/101 202/2/102 198/2/98
f 203/2/103 199/2/99 200/2/100
f 203/2/103 201/2/101 199/2/99
f 202/2/102 201/2/101 204/2/104
f 201/2/101 203/2/103 204/2/104
f 204/2/104 205/2/105 202/2/102
f 206/2/106 203/2/103 200/2/100
f 206/2/106 200/2/100 207/2/107
f 208/2/108 204/2/104 203/2/103
f 208/2/108 203/2/103 206/2/106
f 204/2/104 208/2/108 205/2/105
f 207/2/107 209/2/109 206/2/106
f 206/2/106 209/2/109 208/2/108
f 209/2/109 207/2/107 210/2/110
f 208/2/108 211/2/111 205/2/105
f 211/2/111 208/2/108 209/2/109
f 205/2/105 211/2/111 212/2/112
f 210/2/110 213/2/113 209/2/109
f 213/2/113 211/2/111 209/2/109
f 213/2/113 210/2/110 214/2/114
f 215/2/115 212/2/112 211/2/111
f 211/2/111 213/2/113 215/2/115
f 212/2/112 215/2/115 216/2/116
f 214/2/114 217/2/117 213/2/113
f 217/2/117 215/2/115 213/2/113
f 217/2/117 214/2/114 218/2/118
f 219/2/119 216/2/116 215/2/115
f 215/2/115 217/2/117 219/2/119
f 216/2/116 219/2/119 220/2/120
f 221/2/121 220/2/120 219/2/119
f 217/2/117 221/2/121 219/2/119
f 220/2/120 221/2/121 222/2/122
f 218/2/118 223/2/123 217/2/117
f 221/2/121 217/2/117 223/2/123
f 223/2/123 218/2/118 224/2/124
f 221/2/121 225/2/125 222/2/122
f 224/2/124 226/2/126 223/2/123
f 225/2/125 221/2/121 227/2/127
f 223/2/123 227/2/127 221/2/121
f 227/2/127 228/2/128 225/2/125
f 227/2/127 229/2/129 228/2/128
f 227/2/127 223/2/123 230/2/130
f 229/2/129 227/2/127 230/2/130
f 230/2/130 223/2/123 226/2/126
f 229/2/129 230/2/130 231/2/131
f 232/2/132 230/2/130 226/2/126
f 230/2/130 232/2/132 231/2/131
o RenderMesh_114847593787755
v 0.089913 -0.509245 -0.115424
v 0.130858 -0.525099 0.114576
v 0.130858 -0.525099 -0.115424
v 0.148602 -0.565265 0.114576
v 0.089913 -0.509245 0.114576
v 0.148602 -0.565265 -0.115424
v 0.049747 -0.526991 -0.115424
v 0.132750 -0.606212 0.114576
v 0.049747 -0.526991 0.114576
v 0.132750 -0.606212 -0.115424
v 0.033896 -0.567939 -0.115424
v 0.092587 -0.623953 0.114576
v 0.033896 -0.567939 0.114576
v 0.092587 -0.623953 -0.115424
v 0.051639 -0.608100 -0.115424
v 0.051639 -0.608100 0.114576
v 0.148602 -0.565265 -0.115424
v 0.089913 -0.509245 -0.115424
v 0.130858 -0.525099 -0.115424
v 0.092587 -0.623953 -0.115424
v 0.132750 -0.606212 -0.115424
v 0.033896 -0.567939 -0.115424
v 0.049747 -0.526991 -0.115424
v 0.051639 -0.608100 -0.115424
v 0.092587 -0.623953 0.114576
v 0.089913 -0.509245 0.114576
v 0.033896 -0.567939 0.114576
v 0.049747 -0.526991 0.114576
v 0.051639 -0.608100 0.114576
v 0.148602 -0.565265 0.114576
v 0.130858 -0.525099 0.114576
v 0.132750 -0.606212 0.114576
v 0.130858 0.429872 -0.115425
v 0.132750 0.348763 -0.115425
v 0.049747 0.427982 -0.115425
v 0.089913 0.445728 -0.115425
v 0.148602 0.389708 -0.115425
v 0.033896 0.387037 -0.115425
v 0.051639 0.346871 -0.115425
v 0.092587 0.331017 -0.115425
v 0.051639 0.346873 0.114576
v 0.049747 0.427982 0.114576
v 0.033896 0.387037 0.114576
v 0.130858 0.429872 0.114576
v 0.089913 0.445728 0.114576
v 0.132750 0.348763 0.114576
v 0.092587 0.331017 0.114576
v 0.148602 0.389708 0.114576
v 0.049747 0.427982 -0.115425
v 0.089913 0.445728 0.114576
v 0.089913 0.445728 -0.115425
v 0.130858 0.429872 0.114576
v 0.049747 0.427982 0.114576
v 0.130858 0.429872 -0.115425
v 0.033896 0.387037 -0.115425
v 0.148602 0.389708 0.114576
v 0.033896 0.387037 0.114576
v 0.148602 0.389708 -0.115425
v 0.051639 0.346873 0.114576
v 0.132750 0.348763 0.114576
v 0.051639 0.346871 -0.115425
v 0.132750 0.348763 -0.115425
v 0.092587 0.331017 -0.115425
v 0.092587 0.331017 0.114576
vn -0.0233 0.9997 -0.0000
vn 0.6905 0.7234 -0.0000
vn 0.9997 0.0233 -0.0000
vn -0.7234 0.6904 -0.0000
vn 0.7234 -0.6904 -0.0000
vn -0.9997 -0.0233 -0.0000
vn 0.0233 -0.9997 -0.0000
vn -0.6904 -0.7234 -0.0000
vn -0.0000 -0.0000 -1.0000
vn -0.0000 -0.0000 1.0000
vn -0.6905 -0.7234 -0.0000
vt 0.000000 0.000000
s 1
f 233/3/133 234/3/134 235/3/134
f 236/3/135 235/3/134 234/3/134
f 234/3/134 233/3/133 237/3/133
f 235/3/134 236/3/135 238/3/135
f 239/3/136 237/3/133 233/3/133
f 240/3/137 238/3/135 236/3/135
f 237/3/133 239/3/136 241/3/136
f 238/3/135 240/3/137 242/3/137
f 243/3/138 241/3/136 239/3/136
f 244/3/139 242/3/137 240/3/137
f 241/3/136 243/3/138 245/3/138
f 242/3/137 244/3/139 246/3/139
f 247/3/140 245/3/138 243/3/138
f 248/3/140 246/3/139 244/3/139
f 245/3/138 247/3/140 248/3/140
f 246/3/139 248/3/140 247/3/140
f 249/3/141 250/3/141 251/3/141
f 250/3/141 249/3/141 252/3/141
f 252/3/141 249/3/141 253/3/141
f 252/3/141 254/3/141 250/3/141
f 250/3/141 254/3/141 255/3/141
f 254/3/141 252/3/141 256/3/141
f 257/3/142 258/3/142 259/3/142
f 259/3/142 258/3/142 260/3/142
f 257/3/142 259/3/142 261/3/142
f 257/3/142 262/3/142 258/3/142
f 258/3/142 262/3/142 263/3/142
f 262/3/142 257/3/142 264/3/142
f 265/3/141 266/3/141 267/3/141
f 265/3/141 267/3/141 268/3/141
f 266/3/141 265/3/141 269/3/141
f 266/3/141 270/3/141 267/3/141
f 270/3/141 266/3/141 271/3/141
f 271/3/141 266/3/141 272/3/141
f 273/3/142 274/3/142 275/3/142
f 273/3/142 276/3/142 274/3/142
f 274/3/142 276/3/142 277/3/142
f 276/3/142 273/3/142 278/3/142
f 278/3/142 273/3/142 279/3/142
f 276/3/142 278/3/142 280/3/142
f 281/3/136 282/3/133 283/3/133
f 284/3/134 283/3/133 282/3/133
f 282/3/133 281/3/136 285/3/136
f 283/3/133 284/3/134 286/3/134
f 287/3/138 285/3/136 281/3/136
f 288/3/135 286/3/134 284/3/134
f 285/3/136 287/3/138 289/3/138
f 286/3/134 288/3/135 290/3/135
f 287/3/138 291/3/143 289/3/138
f 292/3/137 290/3/135 288/3/135
f 291/3/143 287/3/138 293/3/140
f 290/3/135 292/3/137 294/3/137
f 295/3/139 291/3/143 293/3/140
f 296/3/139 294/3/137 292/3/137
f 291/3/143 295/3/139 296/3/139
f 294/3/137 296/3/139 295/3/139
