# Blender 5.1.2
# www.blender.org
mtllib number.mtl
o RenderMesh_133262005396915
v 0.469421 0.021190 -0.858699
v 0.469421 0.121190 -0.858699
v 0.492789 0.121190 -0.773930
v 0.492789 0.021190 -0.773930
v 0.492789 0.121190 -0.586205
v 0.492789 0.021190 -0.586205
v 0.471657 0.121190 -0.518237
v 0.471657 0.021190 -0.518237
v 0.432427 0.021190 -0.908614
v 0.432427 0.121190 -0.908614
v 0.469421 0.121190 -0.858699
v 0.469421 0.021190 -0.858699
v 0.389621 0.021190 -0.939896
v 0.389621 0.121190 -0.939896
v 0.318380 0.021190 -0.961484
v 0.318380 0.121190 -0.961484
v 0.259882 0.021190 -0.965374
v 0.259882 0.121190 -0.965374
v 0.201383 0.121190 -0.961484
v 0.201383 0.021190 -0.961484
v 0.130144 0.121190 -0.939896
v 0.130144 0.021190 -0.939896
v 0.087336 0.121190 -0.908614
v 0.087336 0.021190 -0.908614
v 0.050343 0.121190 -0.858699
v 0.050343 0.021190 -0.858699
v 0.308243 0.121190 -0.808970
v 0.308243 0.021190 -0.808970
v 0.317001 0.021190 -0.781391
v 0.283832 0.121190 -0.830017
v 0.317001 0.121190 -0.781391
v 0.283832 0.021190 -0.830017
v 0.317938 0.021190 -0.602458
v 0.259882 0.121190 -0.835463
v 0.317938 0.121190 -0.602458
v 0.259882 0.021190 -0.835463
v 0.311072 0.021190 -0.566605
v 0.235931 0.021190 -0.830017
v 0.311072 0.121190 -0.566605
v 0.235931 0.121190 -0.830017
v 0.289220 0.021190 -0.543725
v 0.211522 0.021190 -0.808970
v 0.289220 0.121190 -0.543725
v 0.211522 0.121190 -0.808970
v 0.259882 0.021190 -0.535288
v 0.202763 0.021190 -0.781391
v 0.259882 0.121190 -0.535288
v 0.202763 0.121190 -0.781391
v 0.230543 0.121190 -0.543725
v 0.201825 0.021190 -0.602458
v 0.230543 0.021190 -0.543725
v 0.201825 0.121190 -0.602458
v 0.208691 0.121190 -0.566605
v 0.208691 0.021190 -0.566605
v 0.471657 0.021190 -0.518237
v 0.471657 0.121190 -0.518237
v 0.436068 0.121190 -0.467860
v 0.436068 0.021190 -0.467860
v 0.386793 0.121190 -0.432155
v 0.386793 0.021190 -0.432155
v 0.316750 0.121190 -0.411208
v 0.316750 0.021190 -0.411208
v 0.259882 0.121190 -0.407318
v 0.259882 0.021190 -0.407318
v 0.203015 0.021190 -0.411208
v 0.203015 0.121190 -0.411208
v 0.132972 0.021190 -0.432155
v 0.132972 0.121190 -0.432155
v 0.083696 0.021190 -0.467860
v 0.083696 0.121190 -0.467860
v 0.048106 0.021190 -0.518237
v 0.048106 0.121190 -0.518237
v -0.222526 0.121190 -0.407408
v -0.370471 0.121190 -0.410327
v -0.283974 0.121190 -0.400995
v -0.170888 0.121190 -0.424094
v -0.438889 0.121190 -0.440833
v -0.123624 0.121190 -0.454037
v -0.489874 0.121190 -0.494928
v -0.079625 0.121190 -0.507010
v -0.301667 0.121190 -0.536640
v -0.261885 0.121190 -0.538767
v -0.061233 0.121190 -0.563346
v -0.508109 0.121190 -0.582369
v -0.237516 0.121190 -0.563055
v -0.320378 0.121190 -0.546754
v -0.059962 0.121190 -0.596906
v -0.332005 0.121190 -0.578758
v -0.225853 0.121190 -0.595337
v -0.214140 0.121190 -0.606000
v -0.069022 0.121190 -0.606000
v -0.320221 0.121190 -0.616259
v -0.490596 0.121190 -0.645591
v -0.272075 0.121190 -0.668623
v -0.445909 0.121190 -0.707739
v -0.114793 0.121190 -0.788600
v -0.307000 0.121190 -0.821013
v -0.060050 0.121190 -0.839509
v -0.503594 0.121190 -0.821013
v -0.516694 0.121190 -0.831356
v -0.516699 0.121190 -0.950773
v -0.051214 0.121190 -0.858413
v -0.051460 0.121190 -0.950773
v -0.064548 0.121190 -0.960513
v -0.503611 0.121190 -0.960513
v -0.222526 0.021190 -0.407408
v -0.283974 0.021190 -0.400995
v -0.370471 0.021190 -0.410327
v -0.170888 0.021190 -0.424094
v -0.438889 0.021190 -0.440833
v -0.123624 0.021190 -0.454037
v -0.489874 0.021190 -0.494928
v -0.079625 0.021190 -0.507010
v -0.301667 0.021190 -0.536640
v -0.261885 0.021190 -0.538767
v -0.061233 0.021190 -0.563346
v -0.508109 0.021190 -0.582369
v -0.237516 0.021190 -0.563055
v -0.320378 0.021190 -0.546754
v -0.059962 0.021190 -0.596906
v -0.332005 0.021190 -0.578758
v -0.225853 0.021190 -0.595337
v -0.214140 0.021190 -0.606000
v -0.069022 0.021190 -0.606000
v -0.320221 0.021190 -0.616259
v -0.490596 0.021190 -0.645591
v -0.272075 0.021190 -0.668623
v -0.445909 0.021190 -0.707739
v -0.114793 0.021190 -0.788600
v -0.307000 0.021190 -0.821013
v -0.060050 0.021190 -0.839509
v -0.503594 0.021190 -0.821013
v -0.516694 0.021190 -0.831356
v -0.516699 0.021190 -0.950773
v -0.051214 0.021190 -0.858413
v -0.051460 0.021190 -0.950773
v -0.064548 0.021190 -0.960513
v -0.503611 0.021190 -0.960513
v 0.492789 0.121190 -0.773930
v 0.317938 0.121190 -0.602458
v 0.492789 0.121190 -0.586205
v 0.471657 0.121190 -0.518237
v 0.311072 0.121190 -0.566605
v 0.289220 0.121190 -0.543725
v 0.317001 0.121190 -0.781391
v 0.469421 0.121190 -0.858699
v 0.308243 0.121190 -0.808970
v 0.469421 0.121190 -0.858699
v 0.283832 0.121190 -0.830017
v 0.471657 0.121190 -0.518237
v 0.259882 0.121190 -0.535288
v 0.048106 0.121190 -0.518237
v 0.230543 0.121190 -0.543725
v 0.469421 0.121190 -0.858699
v 0.259882 0.121190 -0.835463
v 0.050343 0.121190 -0.858699
v 0.235931 0.121190 -0.830017
v 0.211522 0.121190 -0.808970
v 0.050343 0.121190 -0.858699
v 0.208691 0.121190 -0.566605
v 0.048106 0.121190 -0.518237
v 0.201825 0.121190 -0.602458
v 0.026974 0.121190 -0.586205
v 0.026974 0.121190 -0.773930
v 0.202763 0.121190 -0.781391
v 0.050343 0.121190 -0.858699
v 0.259882 0.121190 -0.835463
v 0.087336 0.121190 -0.908614
v 0.130144 0.121190 -0.939896
v 0.201383 0.121190 -0.961484
v 0.259882 0.121190 -0.965374
v 0.318380 0.121190 -0.961484
v 0.389621 0.121190 -0.939896
v 0.432427 0.121190 -0.908614
v 0.259882 0.121190 -0.535288
v 0.436068 0.121190 -0.467860
v 0.471657 0.121190 -0.518237
v 0.386793 0.121190 -0.432155
v 0.316750 0.121190 -0.411208
v 0.259882 0.121190 -0.407318
v 0.203015 0.121190 -0.411208
v 0.132972 0.121190 -0.432155
v 0.083696 0.121190 -0.467860
v 0.048106 0.121190 -0.518237
v 0.492789 0.021190 -0.773930
v 0.492789 0.021190 -0.586205
v 0.317938 0.021190 -0.602458
v 0.471657 0.021190 -0.518237
v 0.311072 0.021190 -0.566605
v 0.289220 0.021190 -0.543725
v 0.317001 0.021190 -0.781391
v 0.469421 0.021190 -0.858699
v 0.308243 0.021190 -0.808970
v 0.283832 0.021190 -0.830017
v 0.469421 0.021190 -0.858699
v 0.471657 0.021190 -0.518237
v 0.259882 0.021190 -0.535288
v 0.048106 0.021190 -0.518237
v 0.230543 0.021190 -0.543725
v 0.469421 0.021190 -0.858699
v 0.259882 0.021190 -0.835463
v 0.050343 0.021190 -0.858699
v 0.235931 0.021190 -0.830017
v 0.211522 0.021190 -0.808970
v 0.050343 0.021190 -0.858699
v 0.048106 0.021190 -0.518237
v 0.208691 0.021190 -0.566605
v 0.201825 0.021190 -0.602458
v 0.026974 0.021190 -0.586205
v 0.026974 0.021190 -0.773930
v 0.202763 0.021190 -0.781391
v 0.050343 0.021190 -0.858699
v 0.087336 0.021190 -0.908614
v 0.259882 0.021190 -0.835463
v 0.130144 0.021190 -0.939896
v 0.201383 0.021190 -0.961484
v 0.259882 0.021190 -0.965374
v 0.318380 0.021190 -0.961484
v 0.389621 0.021190 -0.939896
v 0.432427 0.021190 -0.908614
v 0.259882 0.021190 -0.535288
v 0.386793 0.021190 -0.432155
v 0.316750 0.021190 -0.411208
v 0.436068 0.021190 -0.467860
v 0.471657 0.021190 -0.518237
v 0.259882 0.021190 -0.407318
v 0.203015 0.021190 -0.411208
v 0.132972 0.021190 -0.432155
v 0.083696 0.021190 -0.467860
v 0.048106 0.021190 -0.518237
v 0.050343 0.021190 -0.858699
v 0.026974 0.121190 -0.773930
v 0.050343 0.121190 -0.858699
v 0.026974 0.021190 -0.773930
v 0.026974 0.121190 -0.586205
v 0.026974 0.021190 -0.586205
v 0.048106 0.121190 -0.518237
v 0.048106 0.021190 -0.518237
v -0.051214 0.021190 -0.858413
v -0.051214 0.121190 -0.858413
v -0.060050 0.121190 -0.839509
v -0.051460 0.021190 -0.950773
v -0.060050 0.021190 -0.839509
v -0.051460 0.121190 -0.950773
v -0.114793 0.121190 -0.788600
v -0.064548 0.021190 -0.960513
v -0.114793 0.021190 -0.788600
v -0.064548 0.121190 -0.960513
v -0.272075 0.121190 -0.668623
v -0.503611 0.021190 -0.960513
v -0.272075 0.021190 -0.668623
v -0.503611 0.121190 -0.960513
v -0.320221 0.121190 -0.616259
v -0.516699 0.021190 -0.950773
v -0.320221 0.021190 -0.616259
v -0.516699 0.121190 -0.950773
v -0.332005 0.121190 -0.578758
v -0.516694 0.021190 -0.831356
v -0.332005 0.021190 -0.578758
v -0.516694 0.121190 -0.831356
v -0.320378 0.121190 -0.546754
v -0.503594 0.021190 -0.821013
v -0.320378 0.021190 -0.546754
v -0.503594 0.121190 -0.821013
v -0.307000 0.021190 -0.821013
v -0.307000 0.121190 -0.821013
v -0.301667 0.121190 -0.536640
v -0.301667 0.021190 -0.536640
v -0.261885 0.121190 -0.538767
v -0.261885 0.021190 -0.538767
v -0.237516 0.121190 -0.563055
v -0.237516 0.021190 -0.563055
v -0.225853 0.121190 -0.595337
v -0.225853 0.021190 -0.595337
v -0.214140 0.121190 -0.606000
v -0.214140 0.021190 -0.606000
v -0.069022 0.121190 -0.606000
v -0.069022 0.021190 -0.606000
v -0.059962 0.121190 -0.596906
v -0.059962 0.021190 -0.596906
v -0.061233 0.121190 -0.563346
v -0.061233 0.021190 -0.563346
v -0.079625 0.121190 -0.507010
v -0.079625 0.021190 -0.507010
v -0.123624 0.121190 -0.454037
v -0.123624 0.021190 -0.454037
v -0.170888 0.121190 -0.424094
v -0.170888 0.021190 -0.424094
v -0.222526 0.121190 -0.407408
v -0.222526 0.021190 -0.407408
v -0.283974 0.121190 -0.400995
v -0.283974 0.021190 -0.400995
v -0.370471 0.121190 -0.410327
v -0.370471 0.021190 -0.410327
v -0.438889 0.121190 -0.440833
v -0.438889 0.021190 -0.440833
v -0.489874 0.121190 -0.494928
v -0.489874 0.021190 -0.494928
v -0.508109 0.121190 -0.582369
v -0.508109 0.021190 -0.582369
v -0.490596 0.121190 -0.645591
v -0.490596 0.021190 -0.645591
v -0.445909 0.121190 -0.707739
v -0.445909 0.021190 -0.707739
v -0.307000 0.121190 -0.821013
v -0.307000 0.021190 -0.821013
vn 0.8989 0.0006 -0.4382
vn 0.9909 0.0006 -0.1343
vn 0.9887 -0.0000 0.1501
vn 0.9887 0.0004 0.1500
vn 0.8970 0.0006 0.4421
vn 0.7045 0.0005 -0.7097
vn 0.4466 0.0005 -0.8947
vn 0.4465 0.0004 -0.8948
vn 0.1789 0.0007 -0.9839
vn 0.1790 0.0006 -0.9839
vn -0.0000 0.0006 -1.0000
vn -0.1797 0.0005 -0.9837
vn -0.4466 0.0007 -0.8947
vn -0.7045 0.0005 -0.7097
vn -0.7044 0.0007 -0.7098
vn -0.8988 0.0006 -0.4383
vn -0.8347 0.0006 0.5508
vn -0.9878 -0.0000 0.1557
vn -0.4506 0.0004 0.8927
vn -0.9878 0.0004 0.1558
vn -0.4507 -0.0000 0.8927
vn -0.9957 0.0006 -0.0923
vn -0.0000 0.0006 1.0000
vn -0.8890 0.0005 -0.4578
vn 0.4507 -0.0000 0.8927
vn 0.4506 0.0004 0.8927
vn -0.5177 -0.0000 -0.8556
vn 0.8347 0.0006 0.5507
vn -0.5178 0.0006 -0.8555
vn 0.8346 -0.0000 0.5508
vn 0.9878 0.0006 0.1558
vn 0.9878 0.0004 0.1558
vn 0.5179 0.0008 -0.8554
vn 0.9957 0.0005 -0.0922
vn 0.5179 0.0007 -0.8554
vn 0.9957 0.0005 -0.0923
vn 0.8891 0.0005 -0.4578
vn 0.8889 -0.0000 -0.4581
vn 0.8969 0.0006 0.4422
vn 0.7113 0.0004 0.7029
vn 0.4427 0.0007 0.8967
vn 0.1788 0.0007 0.9839
vn 0.1787 0.0004 0.9839
vn -0.1786 0.0004 0.9839
vn -0.1787 0.0006 0.9839
vn -0.4427 0.0006 0.8967
vn -0.7113 0.0004 0.7029
vn -0.8969 0.0006 0.4422
vn -0.0000 1.0000 0.0004
vn -0.0000 1.0000 0.0003
vn -0.0000 -1.0000 0.0004
vn -0.0000 -1.0000 0.0003
vn -0.8989 0.0006 -0.4382
vn -0.9909 0.0007 -0.1344
vn -0.9887 -0.0000 0.1501
vn -0.9887 0.0004 0.1500
vn -0.8970 0.0006 0.4421
vn 0.9765 0.0005 0.2155
vn 0.9765 -0.0000 0.2156
vn 0.8083 0.0006 0.5888
vn 0.8930 0.0004 -0.4500
vn 0.8930 -0.0000 -0.4501
vn 0.6447 0.0004 0.7645
vn 0.3146 0.0006 -0.9492
vn 0.6445 -0.0000 0.7646
vn 0.6739 0.0004 0.7388
vn -0.3145 0.0004 -0.9492
vn 0.8656 0.0006 0.5007
vn -0.8936 0.0008 -0.4488
vn 0.8656 0.0007 0.5007
vn -0.8936 0.0007 -0.4488
vn 0.9998 0.0006 -0.0220
vn -0.8999 0.0004 0.4362
vn 0.9998 0.0004 -0.0220
vn 0.7571 -0.0000 -0.6533
vn -0.3283 0.0005 0.9446
vn 0.7571 -0.0000 -0.6532
vn 0.2190 0.0005 -0.9757
vn -0.4064 0.0004 -0.9137
vn -0.4063 0.0004 -0.9137
vn -0.8435 0.0006 -0.5371
vn -0.8435 0.0009 -0.5372
vn -0.8311 0.0005 -0.5561
vn -0.3606 0.0005 -0.9327
vn -0.3607 0.0003 -0.9327
vn 0.3832 0.0004 -0.9237
vn 0.9314 0.0006 -0.3641
vn 0.9845 0.0006 0.1753
vn 0.8755 0.0006 0.4832
vn 0.8755 0.0005 0.4832
vn 0.6603 -0.0000 0.7510
vn 0.6605 0.0006 0.7509
vn 0.4250 0.0005 0.9052
vn 0.4250 0.0006 0.9052
vn 0.2071 0.0005 0.9783
vn 0.2071 0.0006 0.9783
vn -0.0019 0.0006 1.0000
vn -0.2607 0.0005 0.9654
vn -0.5788 -0.0000 0.8155
vn -0.5786 0.0005 0.8156
vn -0.8867 -0.0000 0.4624
vn -0.9995 0.0005 -0.0326
vn -0.9017 0.0006 -0.4323
vn -0.9017 0.0007 -0.4323
vn -0.7282 -0.0000 -0.6853
vn -0.7281 0.0005 -0.6855
vn -0.6319 0.0006 -0.7750
vn -0.6319 0.0007 -0.7750
vt 0.921038 0.000000
vt 0.111095 0.000000
vt 0.199601 0.000000
vt 0.785283 0.000000
vt 0.000000 0.000000
vt 0.078500 0.000000
vt 0.974101 0.000000
vt 0.955917 0.000000
vt 0.917157 0.000000
vt 0.860339 0.000000
vt 0.816017 0.000000
vt 0.838611 0.000000
vt 0.823920 0.000000
vt 0.809683 0.000000
vt 0.225330 0.000000
vt 0.641872 0.000000
vt 0.686442 0.000000
vt 0.662663 0.000000
vt 0.621307 0.000000
vt 0.709431 0.000000
vt 0.598560 0.000000
vt 0.735060 0.000000
vt 0.569169 0.000000
vt 0.289475 0.000000
vt 0.324025 0.000000
vt 0.543929 0.000000
vt 0.766331 0.000000
vt 0.363348 0.000000
vt 0.270725 0.000000
vt 0.517331 0.000000
vt 0.238928 0.000000
vt 0.409291 0.000000
vt 0.437633 0.000000
vt 0.484644 0.000000
vt 0.212956 0.000000
vt 0.792878 0.000000
vt 0.184269 0.000000
vt 0.822216 0.000000
vt 0.136551 0.000000
vt 0.863486 0.000000
vt 0.120954 0.000000
vt 0.877604 0.000000
vt 0.911127 0.000000
vt 0.955028 0.000000
vt 0.093320 0.000000
vt 0.044972 0.000000
vt 0.011553 0.000000
vt 0.988447 0.000000
vt 0.909464 0.000000
vt 0.781751 0.000000
s 1
f 1/1/1 2/1/1 3/2/2
f 1/1/1 3/2/2 4/2/2
f 4/2/2 3/2/2 5/3/3
f 4/2/2 5/3/3 6/3/4
f 6/3/4 5/3/3 7/4/5
f 6/3/4 7/4/5 8/4/5
f 9/5/6 10/5/6 11/6/1
f 9/5/6 11/6/1 12/6/1
f 10/5/6 9/5/6 13/5/7
f 13/5/7 14/5/8 10/5/6
f 14/5/8 13/5/7 15/5/9
f 15/5/9 16/5/10 14/5/8
f 16/5/10 15/5/9 17/5/11
f 17/5/11 18/5/11 16/5/10
f 18/5/11 17/5/11 19/5/12
f 19/5/12 17/5/11 20/5/12
f 19/5/12 20/5/12 21/5/13
f 21/5/13 20/5/12 22/5/13
f 21/5/13 22/5/13 23/5/14
f 23/5/14 22/5/13 24/5/15
f 24/5/15 25/6/16 23/5/14
f 25/6/16 24/5/15 26/6/16
f 27/7/17 28/7/17 29/8/18
f 30/9/19 28/7/17 27/7/17
f 27/7/17 29/8/18 31/8/20
f 28/7/17 30/9/19 32/9/21
f 29/8/18 33/10/22 31/8/20
f 34/11/23 32/9/21 30/9/19
f 31/8/20 33/10/22 35/10/22
f 32/9/21 34/11/23 36/11/23
f 35/10/22 33/10/22 37/12/24
f 36/11/23 34/11/23 38/9/25
f 35/10/22 37/12/24 39/12/24
f 38/9/25 34/11/23 40/9/26
f 41/13/27 39/12/24 37/12/24
f 38/9/25 40/9/26 42/7/28
f 39/12/24 41/13/27 43/13/29
f 42/7/28 40/9/26 44/7/30
f 43/13/29 41/13/27 45/14/11
f 42/7/28 44/7/30 46/8/31
f 45/14/11 47/14/11 43/13/29
f 48/8/32 46/8/31 44/7/30
f 45/14/11 49/13/33 47/14/11
f 46/8/31 48/8/32 50/10/34
f 49/13/33 45/14/11 51/13/35
f 48/8/32 52/10/36 50/10/34
f 49/13/33 51/13/35 53/12/37
f 50/10/34 52/10/36 54/12/38
f 54/12/38 53/12/37 51/13/35
f 53/12/37 54/12/38 52/10/36
f 55/15/39 56/15/39 57/5/40
f 55/15/39 57/5/40 58/5/40
f 59/5/41 58/5/40 57/5/40
f 58/5/40 59/5/41 60/5/41
f 61/5/42 60/5/41 59/5/41
f 60/5/41 61/5/42 62/5/43
f 63/5/23 62/5/43 61/5/42
f 62/5/43 63/5/23 64/5/23
f 64/5/23 63/5/23 65/5/44
f 65/5/44 63/5/23 66/5/45
f 65/5/44 66/5/45 67/5/46
f 67/5/46 66/5/45 68/5/46
f 67/5/46 68/5/46 69/5/47
f 69/5/47 68/5/46 70/5/47
f 70/5/47 71/15/48 69/5/47
f 71/15/48 70/5/47 72/15/48
f 73/16/49 74/17/49 75/18/49
f 76/19/49 74/17/49 73/16/49
f 76/19/49 77/20/49 74/17/49
f 78/21/49 77/20/49 76/19/49
f 78/21/49 79/22/49 77/20/49
f 80/23/49 79/22/49 78/21/49
f 80/23/49 81/24/49 79/22/49
f 80/23/49 82/25/49 81/24/49
f 83/26/49 82/25/49 80/23/49
f 81/24/49 84/27/50 79/22/49
f 83/26/49 85/28/49 82/25/49
f 86/29/49 84/27/50 81/24/49
f 87/30/49 85/28/49 83/26/49
f 88/31/49 84/27/50 86/29/49
f 87/30/49 89/32/49 85/28/49
f 87/30/49 90/33/49 89/32/49
f 91/34/49 90/33/49 87/30/49
f 92/35/49 84/27/50 88/31/49
f 92/35/49 93/36/49 84/27/50
f 94/37/49 93/36/49 92/35/49
f 94/37/49 95/38/49 93/36/49
f 96/39/49 95/38/49 94/37/49
f 96/39/49 97/40/49 95/38/49
f 98/41/50 97/40/49 96/39/49
f 98/41/50 99/42/49 97/40/49
f 98/41/50 100/43/49 99/42/49
f 98/41/50 101/44/50 100/43/49
f 102/45/49 101/44/50 98/41/50
f 103/46/49 101/44/50 102/45/49
f 104/47/49 101/44/50 103/46/49
f 104/47/49 105/48/49 101/44/50
f 106/16/51 107/18/51 108/17/51
f 109/19/51 106/16/51 108/17/51
f 109/19/51 108/17/51 110/20/51
f 111/21/51 109/19/51 110/20/51
f 111/21/51 110/20/51 112/22/51
f 113/23/51 111/21/51 112/22/51
f 113/23/51 112/22/51 114/24/51
f 113/23/51 114/24/51 115/25/51
f 116/26/51 113/23/51 115/25/51
f 114/24/51 112/22/51 117/27/52
f 116/26/51 115/25/51 118/28/51
f 119/29/51 114/24/51 117/27/52
f 120/30/51 116/26/51 118/28/51
f 121/31/51 119/29/51 117/27/52
f 120/30/51 118/28/51 122/32/51
f 120/30/51 122/32/51 123/33/51
f 124/34/51 120/30/51 123/33/51
f 125/35/51 121/31/51 117/27/52
f 125/35/51 117/27/52 126/36/51
f 127/37/51 125/35/51 126/36/51
f 127/37/51 126/36/51 128/38/51
f 129/39/51 127/37/51 128/38/51
f 129/39/51 128/38/51 130/40/51
f 131/41/52 129/39/51 130/40/51
f 131/41/52 130/40/51 132/42/51
f 131/41/52 132/42/51 133/43/51
f 131/41/52 133/43/51 134/44/52
f 135/45/51 131/41/52 134/44/52
f 136/46/51 135/45/51 134/44/52
f 137/47/51 136/46/51 134/44/52
f 137/47/51 134/44/52 138/48/51
f 139/2/49 140/10/49 141/3/49
f 140/10/49 142/4/49 141/3/49
f 142/4/49 140/10/49 143/12/49
f 144/13/49 142/4/49 143/12/49
f 139/2/49 145/8/49 140/10/49
f 146/1/49 145/8/49 139/2/49
f 145/8/49 146/1/49 147/7/49
f 147/7/49 148/49/49 149/9/49
f 150/50/49 144/13/49 151/14/49
f 152/50/49 151/14/49 153/13/49
f 154/6/49 155/11/49 149/9/49
f 156/6/49 157/9/49 155/11/49
f 158/7/49 157/9/49 159/49/49
f 153/13/49 160/12/49 161/4/49
f 162/10/49 161/4/49 160/12/49
f 161/4/49 162/10/49 163/3/49
f 164/2/49 163/3/49 162/10/49
f 164/2/49 162/10/49 165/8/49
f 166/1/49 165/8/49 158/7/49
f 165/8/49 166/1/49 164/2/49
f 156/6/49 167/5/50 168/5/49
f 167/5/50 169/5/49 168/5/49
f 169/5/49 167/5/50 170/5/49
f 170/5/49 167/5/50 171/5/49
f 172/5/49 171/5/49 167/5/50
f 167/5/50 173/5/49 172/5/49
f 173/5/49 167/5/50 174/5/49
f 174/5/49 167/5/50 154/6/49
f 175/5/50 176/5/49 177/15/49
f 176/5/49 175/5/50 178/5/49
f 178/5/49 175/5/50 179/5/49
f 179/5/49 175/5/50 180/5/49
f 181/5/49 180/5/49 175/5/50
f 175/5/50 182/5/49 181/5/49
f 182/5/49 175/5/50 183/5/49
f 183/5/49 175/5/50 184/15/49
f 185/2/51 186/3/51 187/10/51
f 188/4/51 187/10/51 186/3/51
f 187/10/51 188/4/51 189/12/51
f 190/13/51 189/12/51 188/4/51
f 185/2/51 187/10/51 191/8/51
f 191/8/51 192/1/51 185/2/51
f 192/1/51 191/8/51 193/7/51
f 193/7/51 194/9/51 195/49/51
f 196/50/51 197/14/51 190/13/51
f 198/50/51 199/13/51 197/14/51
f 200/6/51 194/9/51 201/11/51
f 202/6/51 201/11/51 203/9/51
f 204/7/51 205/49/51 203/9/51
f 199/13/51 206/4/51 207/12/51
f 206/4/51 208/10/51 207/12/51
f 208/10/51 206/4/51 209/3/51
f 210/2/51 208/10/51 209/3/51
f 210/2/51 211/8/51 208/10/51
f 211/8/51 212/1/51 204/7/51
f 212/1/51 211/8/51 210/2/51
f 213/5/51 214/5/52 202/6/51
f 215/5/51 214/5/52 213/5/51
f 214/5/52 215/5/51 216/5/51
f 216/5/51 217/5/51 214/5/52
f 218/5/51 214/5/52 217/5/51
f 219/5/51 214/5/52 218/5/51
f 214/5/52 219/5/51 220/5/51
f 200/6/51 214/5/52 220/5/51
f 221/5/52 222/5/51 223/5/51
f 222/5/51 221/5/52 224/5/51
f 224/5/51 221/5/52 225/15/51
f 223/5/51 226/5/51 221/5/52
f 227/5/51 221/5/52 226/5/51
f 228/5/51 221/5/52 227/5/51
f 229/5/51 221/5/52 228/5/51
f 221/5/52 229/5/51 230/15/51
f 231/1/53 232/2/54 233/1/53
f 232/2/54 231/1/53 234/2/54
f 234/2/54 235/3/55 232/2/54
f 235/3/55 234/2/54 236/3/56
f 236/3/56 237/4/57 235/3/55
f 237/4/57 236/3/56 238/4/57
f 239/45/58 240/45/59 241/41/60
f 242/46/61 240/45/59 239/45/58
f 239/45/58 241/41/60 243/41/60
f 242/46/61 244/46/62 240/45/59
f 245/39/63 243/41/60 241/41/60
f 244/46/62 242/46/61 246/47/64
f 243/41/60 245/39/63 247/39/65
f 246/47/64 248/47/64 244/46/62
f 249/37/66 247/39/65 245/39/63
f 246/47/64 250/48/67 248/47/64
f 247/39/65 249/37/66 251/37/66
f 252/48/67 248/47/64 250/48/67
f 251/37/66 249/37/66 253/35/68
f 252/48/67 250/48/67 254/44/69
f 251/37/66 253/35/68 255/35/70
f 254/44/69 256/44/71 252/48/67
f 255/35/70 253/35/68 257/31/72
f 258/43/73 256/44/71 254/44/69
f 255/35/70 257/31/72 259/31/74
f 256/44/71 258/43/73 260/43/73
f 259/31/74 257/31/72 261/29/75
f 262/42/76 260/43/73 258/43/73
f 259/31/74 261/29/75 263/29/77
f 260/43/73 262/42/76 264/42/76
f 265/40/23 264/42/76 262/42/76
f 264/42/76 265/40/23 266/40/23
f 263/29/77 261/29/75 267/24/78
f 267/24/78 268/24/78 263/29/77
f 268/24/78 267/24/78 269/25/79
f 269/25/79 270/25/80 268/24/78
f 270/25/80 269/25/79 271/28/81
f 271/28/81 272/28/82 270/25/80
f 273/32/83 272/28/82 271/28/81
f 272/28/82 273/32/83 274/32/83
f 274/32/83 273/32/83 275/33/84
f 275/33/84 276/33/85 274/32/83
f 275/33/84 277/34/86 276/33/85
f 277/34/86 278/34/86 276/33/85
f 278/34/86 277/34/86 279/30/87
f 278/34/86 279/30/87 280/30/87
f 280/30/87 279/30/87 281/26/88
f 280/30/87 281/26/88 282/26/88
f 282/26/88 281/26/88 283/23/89
f 282/26/88 283/23/89 284/23/90
f 284/23/90 283/23/89 285/21/91
f 284/23/90 285/21/91 286/21/92
f 287/19/93 286/21/92 285/21/91
f 286/21/92 287/19/93 288/19/94
f 289/16/95 288/19/94 287/19/93
f 288/19/94 289/16/95 290/16/96
f 291/18/97 290/16/96 289/16/95
f 290/16/96 291/18/97 292/18/97
f 293/17/98 292/18/97 291/18/97
f 292/18/97 293/17/98 294/17/98
f 295/20/99 294/17/98 293/17/98
f 294/17/98 295/20/99 296/20/100
f 297/22/101 296/20/100 295/20/99
f 296/20/100 297/22/101 298/22/101
f 299/27/102 298/22/101 297/22/101
f 300/27/102 298/22/101 299/27/102
f 301/36/103 300/27/102 299/27/102
f 300/27/102 301/36/103 302/36/104
f 303/38/105 302/36/104 301/36/103
f 303/38/105 304/38/106 302/36/104
f 303/38/105 305/40/107 304/38/106
f 305/40/107 306/40/108 304/38/106
