# Blender 5.1.2
# www.blender.org
mtllib Sight.mtl
o RenderMesh_115454029547169
v 0.485818 0.085927 0.003496
v 0.503076 0.027482 -0.028258
v 0.485818 0.085927 -0.003497
v 0.503076 0.027482 0.028257
v 0.427921 0.000818 -0.087895
v 0.427921 0.000818 0.087895
v 0.398627 -0.106716 -0.087895
v 0.398627 -0.106716 0.087895
v 0.359568 0.000818 -0.087895
v 0.359568 0.000818 0.087895
v 0.330273 -0.106716 -0.087894
v 0.330273 -0.106716 0.087895
v -0.345179 0.065437 -0.084381
v -0.478942 0.065437 -0.084381
v -0.345179 0.065437 -0.069504
v -0.478942 0.065437 0.084382
v -0.505180 0.039181 -0.084381
v -0.345179 0.065437 0.069504
v -0.217221 0.065437 -0.069504
v -0.217221 0.065437 0.069504
v -0.345179 0.065437 0.084382
v -0.505179 0.039181 0.084382
v -0.495179 0.015418 -0.084381
v -0.495179 0.015418 0.084382
v -0.335179 0.015418 -0.084381
v -0.335179 0.015418 0.084382
v -0.227221 0.015418 0.084382
v -0.227221 0.015418 -0.084381
v 0.291214 0.000818 -0.087894
v 0.291214 0.000818 0.087895
v 0.261919 -0.106716 -0.087894
v 0.261919 -0.106716 0.087895
v -0.318024 0.168740 -0.035404
v -0.318023 0.168740 0.035405
v -0.314522 0.182062 -0.039294
v -0.323176 0.149137 -0.069504
v -0.314522 0.182062 0.039295
v -0.322221 0.152768 -0.084381
v -0.345179 0.065437 -0.084381
v -0.345179 0.065437 -0.069504
v -0.323176 0.149137 0.069504
v -0.322221 0.152768 0.084382
v -0.345179 0.065437 0.084382
v -0.345179 0.065437 0.069504
v 0.330273 -0.106716 0.087895
v 0.291165 -0.106716 -0.087894
v 0.330273 -0.106716 -0.087894
v 0.291165 -0.106716 0.087895
v 0.398627 -0.106716 0.087895
v 0.359519 -0.106716 -0.087895
v 0.398627 -0.106716 -0.087895
v 0.359519 -0.106716 0.087895
v 0.261919 -0.106716 -0.087894
v 0.261919 -0.106716 0.087895
v 0.222811 -0.106716 -0.087894
v 0.222811 -0.106716 0.087895
v 0.330273 -0.106716 -0.087894
v 0.320460 0.000818 -0.087894
v 0.359568 0.000818 -0.087895
v 0.291165 -0.106716 -0.087894
v 0.320460 0.000818 0.087895
v 0.291165 -0.106716 0.087895
v 0.330273 -0.106716 0.087895
v 0.359568 0.000818 0.087895
v 0.398627 -0.106716 -0.087895
v 0.388814 0.000818 -0.087895
v 0.427921 0.000818 -0.087895
v 0.359519 -0.106716 -0.087895
v 0.388814 0.000818 0.087895
v 0.359519 -0.106716 0.087895
v 0.398627 -0.106716 0.087895
v 0.427921 0.000818 0.087895
v 0.261919 -0.106716 -0.087894
v 0.252106 0.000818 -0.087894
v 0.291214 0.000818 -0.087894
v 0.222811 -0.106716 -0.087894
v 0.252106 0.000818 0.087895
v 0.222811 -0.106716 0.087895
v 0.261919 -0.106716 0.087895
v 0.291214 0.000818 0.087895
v -0.247878 0.182062 -0.039294
v -0.314522 0.182062 -0.039294
v -0.314522 0.182062 0.039295
v -0.240179 0.152768 -0.084381
v -0.247878 0.182062 0.039295
v -0.322221 0.152768 -0.084381
v -0.322221 0.152768 0.084382
v -0.217221 0.065437 -0.084381
v -0.240179 0.152768 0.084382
v -0.345179 0.065437 -0.084381
v -0.217221 0.065437 0.084382
v -0.345179 0.065437 0.084382
v -0.335179 0.015418 -0.084381
v -0.227221 0.015418 -0.084381
v -0.478942 0.065437 -0.084381
v -0.495179 0.015418 -0.084381
v -0.505180 0.039181 -0.084381
v -0.335179 0.015418 0.084382
v -0.227221 0.015418 0.084382
v -0.478942 0.065437 0.084382
v -0.495179 0.015418 0.084382
v -0.505179 0.039181 0.084382
v 0.485818 0.085927 -0.003497
v 0.426615 0.085927 -0.003497
v 0.426615 0.085927 0.003496
v 0.485818 0.085927 0.003496
v 0.323211 0.027482 -0.028258
v 0.503076 0.027482 -0.028258
v 0.503076 0.027482 0.028257
v 0.323211 0.027482 0.028257
v 0.323211 0.027482 0.028257
v 0.503076 0.027482 0.028257
v 0.426615 0.085927 0.003496
v 0.485818 0.085927 0.003496
v 0.503076 0.027482 -0.028258
v 0.426615 0.085927 -0.003497
v 0.485818 0.085927 -0.003497
v 0.323211 0.027482 -0.028258
v 0.320460 0.000818 -0.087894
v 0.359568 0.000818 0.087895
v 0.359568 0.000818 -0.087895
v 0.320460 0.000818 0.087895
v 0.388814 0.000818 -0.087895
v 0.388814 0.000818 0.087895
v 0.427921 0.000818 -0.087895
v 0.427921 0.000818 0.087895
v 0.252106 0.000818 0.087895
v 0.291214 0.000818 -0.087894
v 0.252106 0.000818 -0.087894
v 0.291214 0.000818 0.087895
v -0.244377 0.168740 -0.035404
v -0.318023 0.168740 0.035405
v -0.318024 0.168740 -0.035404
v -0.323176 0.149137 -0.069504
v -0.244376 0.168740 0.035405
v -0.239224 0.149137 -0.069504
v -0.217221 0.065437 -0.069504
v -0.345179 0.065437 -0.069504
v -0.239224 0.149137 0.069504
v -0.323176 0.149137 0.069504
v -0.217221 0.065437 0.069504
v -0.345179 0.065437 0.069504
v -0.247878 0.182062 0.039295
v -0.244377 0.168740 -0.035404
v -0.247878 0.182062 -0.039294
v -0.244376 0.168740 0.035405
v -0.239224 0.149137 -0.069504
v -0.239224 0.149137 0.069504
v -0.240179 0.152768 -0.084381
v -0.217221 0.065437 -0.084381
v -0.217221 0.065437 -0.069504
v -0.240179 0.152768 0.084382
v -0.217221 0.065437 0.084382
v -0.217221 0.065437 0.069504
v -0.227221 0.015418 0.084382
v -0.227221 0.015418 -0.084381
v -0.217221 0.065437 -0.084381
v -0.217221 0.065437 0.084382
v 0.323211 0.027482 -0.028258
v 0.426615 0.085927 0.003496
v 0.426615 0.085927 -0.003497
v 0.323211 0.027482 0.028257
v 0.252106 0.000818 -0.087894
v 0.222811 -0.106716 -0.087894
v 0.222811 -0.106716 0.087895
v 0.252106 0.000818 0.087895
v 0.320460 0.000818 -0.087894
v 0.291165 -0.106716 -0.087894
v 0.291165 -0.106716 0.087895
v 0.320460 0.000818 0.087895
v 0.388814 0.000818 -0.087895
v 0.359519 -0.106716 -0.087895
v 0.359519 -0.106716 0.087895
v 0.388814 0.000818 0.087895
vn 0.9591 0.2830 0.0004
vn 0.9591 0.2831 0.0003
vn 0.9649 -0.2624 0.0005
vn 0.9649 -0.2625 0.0005
vn 0.0001 1.0000 0.0005
vn -0.1397 0.9902 0.0005
vn -0.1396 0.9902 -0.0000
vn -0.9617 0.2742 0.0005
vn -0.9617 0.2741 -0.0000
vn -0.1533 -0.9882 -0.0000
vn -0.1533 -0.9882 0.0005
vn 0.0001 -1.0000 0.0005
vn 0.9649 -0.2625 0.0004
vn -0.9671 0.2545 0.0005
vn -0.9670 0.2546 0.0007
vn -0.9671 0.2545 0.0004
vn -0.9671 0.2546 0.0006
vn 0.0001 -1.0000 0.0006
vn 0.0001 0.0005 -1.0000
vn 0.0001 0.0005 1.0000
vn 0.0001 0.9617 -0.2740
vn -0.0000 0.9617 -0.2740
vn 0.0001 0.9617 0.2740
vn 0.0001 0.5035 -0.8640
vn -0.0000 0.9617 0.2740
vn 0.0001 0.5035 0.8640
vn 0.0001 1.0000 0.0006
vn -0.0000 0.3901 0.9208
vn 0.0003 0.3905 0.9206
vn 0.0003 0.3905 -0.9206
vn -0.0000 0.3901 -0.9208
vn 0.0001 -0.9681 0.2507
vn 0.0001 -0.9681 -0.2507
vn 0.0001 -0.5320 0.8467
vn 0.0001 -0.5320 -0.8467
vn 0.9671 0.2544 0.0003
vn 0.9671 0.2544 0.0004
vn 0.9671 0.2545 0.0006
vn 0.9671 0.2544 0.0005
vn 0.9806 -0.1958 0.0004
vn 0.9807 -0.1958 0.0006
vn 0.9806 -0.1958 0.0005
vn -0.4920 0.8706 0.0005
vn -0.4920 0.8706 0.0003
vn -0.9650 0.2622 0.0006
vn -0.9650 0.2623 0.0005
vt 0.000000 0.000000
s 1
f 1/1/1 2/1/1 3/1/2
f 2/1/1 1/1/1 4/1/1
f 5/1/3 6/1/4 7/1/4
f 7/1/4 6/1/4 8/1/3
f 9/1/3 10/1/3 11/1/3
f 11/1/3 10/1/3 12/1/3
f 13/1/5 14/1/6 15/1/5
f 16/1/7 15/1/5 14/1/6
f 16/1/7 14/1/6 17/1/8
f 16/1/7 18/1/5 15/1/5
f 18/1/5 19/1/5 15/1/5
f 19/1/5 18/1/5 20/1/5
f 18/1/5 16/1/7 21/1/5
f 17/1/8 22/1/9 16/1/7
f 23/1/10 22/1/9 17/1/8
f 22/1/9 23/1/10 24/1/11
f 23/1/10 25/1/12 24/1/11
f 25/1/12 26/1/12 24/1/11
f 25/1/12 27/1/12 26/1/12
f 25/1/12 28/1/12 27/1/12
f 29/1/3 30/1/13 31/1/13
f 31/1/13 30/1/13 32/1/3
f 33/1/14 34/1/14 35/1/15
f 35/1/15 36/1/14 33/1/14
f 35/1/15 34/1/14 37/1/14
f 35/1/15 38/1/16 36/1/14
f 39/1/17 36/1/14 38/1/16
f 36/1/14 39/1/17 40/1/14
f 41/1/14 37/1/14 34/1/14
f 37/1/14 41/1/14 42/1/14
f 41/1/14 43/1/14 42/1/14
f 43/1/14 41/1/14 44/1/14
f 45/1/12 46/1/12 47/1/18
f 46/1/12 45/1/12 48/1/12
f 49/1/12 50/1/12 51/1/12
f 50/1/12 49/1/12 52/1/12
f 53/1/12 54/1/12 55/1/12
f 55/1/12 54/1/12 56/1/12
f 57/1/19 58/1/19 59/1/19
f 58/1/19 57/1/19 60/1/19
f 61/1/20 62/1/20 63/1/20
f 63/1/20 64/1/20 61/1/20
f 65/1/19 66/1/19 67/1/19
f 66/1/19 65/1/19 68/1/19
f 69/1/20 70/1/20 71/1/20
f 71/1/20 72/1/20 69/1/20
f 73/1/19 74/1/19 75/1/19
f 74/1/19 73/1/19 76/1/19
f 77/1/20 78/1/20 79/1/20
f 79/1/20 80/1/20 77/1/20
f 81/1/21 82/1/22 83/1/23
f 84/1/24 82/1/22 81/1/21
f 81/1/21 83/1/23 85/1/25
f 84/1/24 86/1/24 82/1/22
f 83/1/23 87/1/26 85/1/25
f 88/1/19 86/1/24 84/1/24
f 85/1/25 87/1/26 89/1/26
f 86/1/24 88/1/19 90/1/19
f 91/1/20 89/1/26 87/1/26
f 92/1/20 91/1/20 87/1/26
f 88/1/19 93/1/19 90/1/19
f 93/1/19 88/1/19 94/1/19
f 95/1/19 90/1/19 93/1/19
f 95/1/19 93/1/19 96/1/19
f 95/1/19 96/1/19 97/1/19
f 98/1/20 91/1/20 92/1/20
f 98/1/20 99/1/20 91/1/20
f 100/1/20 98/1/20 92/1/20
f 98/1/20 100/1/20 101/1/20
f 101/1/20 100/1/20 102/1/20
f 103/1/5 104/1/5 105/1/5
f 103/1/5 105/1/5 106/1/27
f 107/1/12 108/1/12 109/1/12
f 107/1/12 109/1/12 110/1/12
f 111/1/28 112/1/29 113/1/28
f 112/1/29 114/1/28 113/1/28
f 115/1/30 116/1/31 117/1/31
f 116/1/31 115/1/30 118/1/31
f 119/1/5 120/1/5 121/1/27
f 120/1/5 119/1/5 122/1/5
f 123/1/27 124/1/5 125/1/5
f 125/1/5 124/1/5 126/1/5
f 127/1/5 128/1/5 129/1/5
f 128/1/5 127/1/5 130/1/5
f 131/1/32 132/1/33 133/1/32
f 134/1/34 131/1/32 133/1/32
f 132/1/33 131/1/32 135/1/33
f 131/1/32 134/1/34 136/1/34
f 134/1/34 137/1/20 136/1/34
f 137/1/20 134/1/34 138/1/20
f 132/1/33 135/1/33 139/1/35
f 132/1/33 139/1/35 140/1/35
f 141/1/19 140/1/35 139/1/35
f 141/1/19 142/1/19 140/1/35
f 143/1/36 144/1/37 145/1/37
f 144/1/37 143/1/36 146/1/37
f 147/1/37 145/1/37 144/1/37
f 143/1/36 148/1/38 146/1/37
f 145/1/37 147/1/37 149/1/37
f 147/1/37 150/1/37 149/1/37
f 150/1/37 147/1/37 151/1/37
f 143/1/36 152/1/39 148/1/38
f 153/1/37 148/1/38 152/1/39
f 148/1/38 153/1/37 154/1/37
f 155/1/40 156/1/41 157/1/42
f 157/1/42 158/1/41 155/1/40
f 159/1/43 160/1/44 161/1/44
f 160/1/44 159/1/43 162/1/43
f 163/1/45 164/1/45 165/1/45
f 163/1/45 165/1/45 166/1/46
f 167/1/45 168/1/45 169/1/46
f 167/1/45 169/1/46 170/1/46
f 171/1/46 172/1/46 173/1/46
f 171/1/46 173/1/46 174/1/45
