# Blender 5.1.2
# www.blender.org
mtllib ThingThingy.mtl
o RenderMesh_130460936981440
v 0.482509 -0.009322 -0.071137
v 0.496902 -0.030411 0.071137
v 0.496902 -0.030411 -0.071137
v 0.482509 -0.009322 0.071137
v 0.496902 -0.051766 0.070832
v 0.496902 -0.051766 -0.070832
v 0.496902 -0.057990 0.000156
v 0.496902 -0.062043 0.009927
v 0.496902 -0.062043 -0.009615
v 0.496902 -0.071827 0.013973
v 0.496902 -0.071827 -0.013662
v 0.496902 -0.090317 0.049870
v 0.496902 -0.090317 -0.049870
v 0.496902 -0.079613 0.010752
v 0.496902 -0.081611 -0.009615
v 0.496902 -0.081611 0.009927
v 0.496902 -0.102728 0.000000
v 0.496902 -0.085664 0.000156
v 0.496902 -0.079613 0.010752
v 0.427898 -0.071827 0.013973
v 0.496902 -0.071827 0.013973
v 0.427898 -0.062043 0.009927
v 0.496902 -0.062043 0.009927
v 0.427898 -0.081611 0.009927
v 0.496902 -0.057990 0.000156
v 0.496902 -0.081611 0.009927
v 0.427898 -0.057990 0.000156
v 0.427898 -0.062043 -0.009615
v 0.496902 -0.062043 -0.009615
v 0.427898 -0.071827 -0.013662
v 0.496902 -0.071827 -0.013662
v 0.427898 -0.085664 0.000156
v 0.496902 -0.085664 0.000156
v 0.427898 -0.081611 -0.009615
v 0.496902 -0.081611 -0.009615
v -0.242638 -0.000303 -0.069956
v -0.242638 -0.000303 0.069956
v -0.228360 0.027557 -0.069956
v -0.228360 0.027557 0.069956
v 0.182304 0.027557 -0.069956
v 0.182304 0.027557 0.069956
v 0.196582 -0.000303 -0.069956
v 0.196582 -0.000303 0.069956
v -0.228360 0.027557 -0.069956
v -0.228360 -0.028162 -0.069956
v -0.242638 -0.000303 -0.069956
v 0.182304 -0.028162 -0.069956
v 0.182304 0.027557 -0.069956
v 0.196582 -0.000303 -0.069956
v -0.228360 -0.028162 0.069956
v 0.182304 0.027557 0.069956
v -0.228360 0.027557 0.069956
v -0.242638 -0.000303 0.069956
v 0.182304 -0.028162 0.069956
v 0.196582 -0.000303 0.069956
v 0.282338 -0.009322 0.071137
v 0.282338 -0.009322 -0.071137
v 0.268263 -0.030411 -0.071137
v 0.268263 -0.030411 0.071137
v 0.268263 -0.051766 -0.070832
v 0.268263 -0.051766 0.070832
v 0.268263 -0.102728 0.000000
v 0.268263 -0.090317 -0.049870
v 0.268263 -0.090317 0.049870
v 0.282338 -0.009322 -0.071137
v 0.482509 -0.009322 0.071137
v 0.482509 -0.009322 -0.071137
v 0.282338 -0.009322 0.071137
v 0.482509 -0.009322 0.071137
v 0.268263 -0.030411 0.071137
v 0.496902 -0.030411 0.071137
v 0.282338 -0.009322 0.071137
v 0.268263 -0.051766 0.070832
v 0.496902 -0.051766 0.070832
v 0.268263 -0.090317 0.049870
v 0.496902 -0.090317 0.049870
v 0.268263 -0.102728 0.000000
v 0.496902 -0.102728 0.000000
v 0.268263 -0.090317 -0.049870
v 0.496902 -0.090317 -0.049870
v 0.268263 -0.051766 -0.070832
v 0.496902 -0.051766 -0.070832
v 0.268263 -0.030411 -0.071137
v 0.496902 -0.030411 -0.071137
v 0.482509 -0.009322 -0.071137
v 0.282338 -0.009322 -0.071137
v -0.228360 -0.028162 -0.069956
v 0.182304 -0.028162 -0.069956
v 0.182304 -0.028162 0.069956
v 0.196582 -0.000303 0.069956
v 0.196582 -0.000303 -0.069956
v -0.228360 -0.028162 0.069956
v -0.242638 -0.000303 -0.069956
v -0.242638 -0.000303 0.069956
vn 0.8258 0.5639 0.0004
vn 0.9462 0.3235 0.0005
vn 0.9463 0.3234 0.0005
vn 0.8258 0.5640 0.0006
vn 1.0000 0.0002 0.0002
vn 1.0000 0.0005 0.0005
vn 1.0000 0.0004 0.0005
vn -0.0000 0.3820 -0.9241
vn 0.1764 0.0005 -0.9843
vn 0.0005 0.0006 -1.0000
vn 0.1531 -0.7223 -0.6745
vn -0.0000 -0.7311 -0.6823
vn 0.1530 0.7223 -0.6745
vn 0.0004 -1.0000 0.0004
vn 0.0005 0.7311 -0.6823
vn 0.1296 -0.9916 0.0006
vn 0.1531 -0.7223 0.6744
vn 0.0005 -0.7311 0.6823
vn 0.1764 0.0005 0.9843
vn 0.0005 0.0005 1.0000
vn 0.1297 0.9915 0.0005
vn 0.0005 1.0000 0.0005
vn 0.1531 0.7224 0.6744
vn -0.0000 0.7311 0.6823
vn -0.8899 0.4562 0.0004
vn -0.8899 0.4562 0.0003
vn -0.1512 0.9885 0.0005
vn -0.1512 0.9885 -0.0000
vn 0.1512 0.9885 -0.0000
vn 0.1512 0.9885 0.0005
vn 0.8898 0.4563 0.0004
vn 0.8899 0.4561 -0.0000
vn 0.0005 0.0005 -1.0000
vn -0.8317 0.5552 0.0006
vn -0.9485 0.3167 0.0005
vn -1.0000 0.0005 0.0005
vn 0.0006 1.0000 0.0006
vn 0.0005 -0.0074 1.0000
vn 0.0005 -0.0073 1.0000
vn 0.0005 -0.2591 0.9659
vn -0.0000 -0.8142 0.5805
vn 0.0005 -0.8142 0.5806
vn 0.0005 -1.0000 0.0005
vn 0.0005 -0.8142 -0.5806
vn -0.0000 -0.8142 -0.5805
vn 0.0005 -0.2591 -0.9659
vn 0.0005 -0.0074 -1.0000
vn 0.0005 -0.0073 -1.0000
vn -0.1512 -0.9885 -0.0000
vn 0.1512 -0.9885 0.0005
vn 0.1512 -0.9885 -0.0000
vn 0.8899 -0.4561 -0.0000
vn -0.1512 -0.9885 0.0005
vn -0.8899 -0.4562 0.0004
vt 0.000000 0.000000
s 1
f 1/1/1 2/1/2 3/1/3
f 2/1/2 1/1/1 4/1/4
f 5/1/5 3/1/3 2/1/2
f 3/1/3 5/1/5 6/1/5
f 6/1/5 5/1/5 7/1/6
f 7/1/6 5/1/5 8/1/6
f 6/1/5 7/1/6 9/1/6
f 8/1/6 5/1/5 10/1/6
f 11/1/6 6/1/5 9/1/6
f 12/1/6 10/1/6 5/1/5
f 11/1/6 13/1/6 6/1/5
f 10/1/6 12/1/6 14/1/7
f 13/1/6 11/1/6 15/1/6
f 12/1/6 16/1/7 14/1/7
f 13/1/6 15/1/6 17/1/6
f 12/1/6 17/1/6 16/1/7
f 18/1/6 17/1/6 15/1/6
f 16/1/7 17/1/6 18/1/6
f 19/1/8 20/1/9 21/1/10
f 22/1/11 21/1/10 20/1/9
f 21/1/10 22/1/11 23/1/12
f 19/1/8 24/1/13 20/1/9
f 24/1/13 22/1/11 20/1/9
f 23/1/12 22/1/11 25/1/14
f 24/1/13 19/1/8 26/1/15
f 27/1/16 25/1/14 22/1/11
f 22/1/11 24/1/13 27/1/16
f 28/1/17 25/1/14 27/1/16
f 25/1/14 28/1/17 29/1/18
f 27/1/16 30/1/19 28/1/17
f 30/1/19 29/1/18 28/1/17
f 24/1/13 30/1/19 27/1/16
f 29/1/18 30/1/19 31/1/20
f 26/1/15 32/1/21 24/1/13
f 32/1/21 26/1/15 33/1/22
f 30/1/19 24/1/13 34/1/23
f 34/1/23 24/1/13 32/1/21
f 34/1/23 31/1/20 30/1/19
f 33/1/22 34/1/23 32/1/21
f 31/1/20 34/1/23 35/1/24
f 34/1/23 33/1/22 35/1/24
f 36/1/25 37/1/26 38/1/27
f 38/1/27 37/1/26 39/1/28
f 40/1/29 38/1/27 39/1/28
f 40/1/29 39/1/28 41/1/30
f 40/1/29 41/1/30 42/1/31
f 42/1/31 41/1/30 43/1/32
f 44/1/33 45/1/33 46/1/33
f 45/1/33 44/1/33 47/1/33
f 44/1/33 48/1/33 47/1/33
f 47/1/33 48/1/33 49/1/33
f 50/1/20 51/1/20 52/1/20
f 50/1/20 52/1/20 53/1/20
f 54/1/20 51/1/20 50/1/20
f 51/1/20 54/1/20 55/1/20
f 56/1/34 57/1/34 58/1/35
f 58/1/35 59/1/35 56/1/34
f 59/1/35 58/1/35 60/1/36
f 60/1/36 61/1/36 59/1/35
f 61/1/36 60/1/36 62/1/36
f 62/1/36 60/1/36 63/1/36
f 61/1/36 62/1/36 64/1/36
f 65/1/22 66/1/22 67/1/22
f 66/1/22 65/1/22 68/1/37
f 69/1/20 70/1/38 71/1/39
f 70/1/38 69/1/20 72/1/20
f 73/1/40 71/1/39 70/1/38
f 71/1/39 73/1/40 74/1/40
f 75/1/41 74/1/40 73/1/40
f 75/1/41 76/1/42 74/1/40
f 77/1/43 76/1/42 75/1/41
f 77/1/43 78/1/43 76/1/42
f 79/1/44 78/1/43 77/1/43
f 79/1/44 80/1/45 78/1/43
f 81/1/46 80/1/45 79/1/44
f 81/1/46 82/1/46 80/1/45
f 83/1/47 82/1/46 81/1/46
f 83/1/47 84/1/48 82/1/46
f 83/1/47 85/1/33 84/1/48
f 85/1/33 83/1/47 86/1/33
f 87/1/49 88/1/50 89/1/51
f 88/1/50 90/1/52 89/1/51
f 91/1/52 90/1/52 88/1/50
f 87/1/49 89/1/51 92/1/53
f 87/1/49 92/1/53 93/1/54
f 93/1/54 92/1/53 94/1/54
